rawline-500i.ufo
<glyph name="exclam" format="2">
  <advance width="528"/>
  <unicode hex="0021"/>
  <outline>
    <contour>
      <point x="147" y="492" type="line"/>
      <point x="354" y="1468" type="line"/>
      <point x="535" y="1468" type="line"/>
      <point x="328" y="492" type="line"/>
    </contour>
    <contour>
      <point x="43" y="0" type="line"/>
      <point x="96" y="254" type="line"/>
      <point x="276" y="254" type="line"/>
      <point x="223" y="0" type="line"/>
    </contour>
  </outline>
</glyph>
<glyph name="quotedbl" format="2">
  <advance width="651"/>
  <unicode hex="0022"/>
  <outline>
    <contour>
      <point x="217" y="1028" type="line"/>
      <point x="311" y="1470" type="line"/>
      <point x="467" y="1470" type="line"/>
      <point x="373" y="1028" type="line"/>
    </contour>
    <contour>
      <point x="446" y="1028" type="line"/>
      <point x="541" y="1470" type="line"/>
      <point x="696" y="1470" type="line"/>
      <point x="602" y="1028" type="line"/>
    </contour>
  </outline>
</glyph>
<glyph name="numbersign" format="2">
  <advance width="1359"/>
  <unicode hex="0023"/>
  <outline>
    <contour>
      <point x="1348" y="915" type="line"/>
      <point x="1085" y="915" type="line"/>
      <point x="926" y="551" type="line"/>
      <point x="1184" y="551" type="line"/>
      <point x="1155" y="412" type="line"/>
      <point x="864" y="412" type="line"/>
      <point x="682" y="0" type="line"/>
      <point x="532" y="0" type="line"/>
      <point x="717" y="412" type="line"/>
      <point x="399" y="412" type="line"/>
      <point x="217" y="0" type="line"/>
      <point x="68" y="0" type="line"/>
      <point x="252" y="412" type="line"/>
      <point x="33" y="412" type="line"/>
      <point x="61" y="551" type="line"/>
      <point x="315" y="551" type="line"/>
      <point x="473" y="915" type="line"/>
      <point x="225" y="915" type="line"/>
      <point x="254" y="1047" type="line"/>
      <point x="535" y="1047" type="line"/>
      <point x="715" y="1454" type="line"/>
      <point x="862" y="1454" type="line"/>
      <point x="682" y="1047" type="line"/>
      <point x="999" y="1047" type="line"/>
      <point x="1178" y="1454" type="line"/>
      <point x="1327" y="1454" type="line"/>
      <point x="1145" y="1047" type="line"/>
      <point x="1376" y="1047" type="line"/>
    </contour>
    <contour>
      <point x="778" y="551" type="line"/>
      <point x="938" y="915" type="line"/>
      <point x="621" y="915" type="line"/>
      <point x="463" y="551" type="line"/>
    </contour>
  </outline>
</glyph>
<glyph name="dollar" format="2">
  <advance width="1220"/>
  <unicode hex="0024"/>
  <outline>
    <contour>
      <point x="1106" y="1149" type="line"/>
      <point x="1072" y="1207"/>
      <point x="900" y="1294"/>
      <point x="791" y="1300" type="qcurve"/>
      <point x="688" y="813" type="line"/>
      <point x="715" y="807" type="line" smooth="yes"/>
      <point x="810" y="783"/>
      <point x="942" y="731"/>
      <point x="1050" y="653"/>
      <point x="1102" y="543"/>
      <point x="1102" y="469" type="qcurve" smooth="yes"/>
      <point x="1102" y="353"/>
      <point x="1011" y="169"/>
      <point x="851" y="52"/>
      <point x="644" y="-11"/>
      <point x="524" y="-14" type="qcurve"/>
      <point x="481" y="-219" type="line"/>
      <point x="393" y="-219" type="line"/>
      <point x="436" y="-12" type="line"/>
      <point x="156" y="10"/>
      <point x="-18" y="190" type="qcurve"/>
      <point x="102" y="346" type="line"/>
      <point x="145" y="278"/>
      <point x="353" y="165"/>
      <point x="481" y="154" type="qcurve"/>
      <point x="586" y="643" type="line"/>
      <point x="581" y="644"/>
      <point x="560" y="650"/>
      <point x="555" y="651" type="qcurve" smooth="yes"/>
      <point x="374" y="700"/>
      <point x="203" y="837"/>
      <point x="203" y="961" type="qcurve" smooth="yes"/>
      <point x="203" y="1106"/>
      <point x="351" y="1331"/>
      <point x="597" y="1453"/>
      <point x="750" y="1462" type="qcurve"/>
      <point x="795" y="1669" type="line"/>
      <point x="883" y="1669" type="line"/>
      <point x="840" y="1464" type="line"/>
      <point x="1078" y="1453"/>
      <point x="1223" y="1298" type="qcurve"/>
    </contour>
    <contour>
      <point x="406" y="1020" type="qcurve" smooth="yes"/>
      <point x="406" y="947"/>
      <point x="510" y="863"/>
      <point x="627" y="829" type="qcurve"/>
      <point x="727" y="1300" type="line"/>
      <point x="567" y="1291"/>
      <point x="406" y="1141"/>
    </contour>
    <contour>
      <point x="897" y="412" type="qcurve" smooth="yes"/>
      <point x="897" y="492"/>
      <point x="775" y="587"/>
      <point x="647" y="625" type="qcurve"/>
      <point x="549" y="152" type="line"/>
      <point x="711" y="154"/>
      <point x="897" y="291"/>
    </contour>
  </outline>
</glyph>
<glyph name="percent" format="2">
  <advance width="1447"/>
  <unicode hex="0025"/>
  <outline>
    <contour>
      <point x="188" y="1124" type="qcurve" smooth="yes"/>
      <point x="188" y="1263"/>
      <point x="418" y="1475"/>
      <point x="561" y="1475" type="qcurve" smooth="yes"/>
      <point x="670" y="1475"/>
      <point x="807" y="1333"/>
      <point x="807" y="1227" type="qcurve" smooth="yes"/>
      <point x="807" y="1088"/>
      <point x="578" y="877"/>
      <point x="434" y="877" type="qcurve" smooth="yes"/>
      <point x="326" y="877"/>
      <point x="188" y="1019"/>
    </contour>
    <contour>
      <point x="31" y="68" type="line"/>
      <point x="723" y="758" type="line"/>
      <point x="1393" y="1464" type="line"/>
      <point x="1464" y="1389" type="line"/>
      <point x="780" y="702" type="line"/>
      <point x="100" y="-10" type="line"/>
    </contour>
    <contour>
      <point x="674" y="1214" type="qcurve" smooth="yes"/>
      <point x="674" y="1282"/>
      <point x="599" y="1376"/>
      <point x="541" y="1376" type="qcurve" smooth="yes"/>
      <point x="459" y="1376"/>
      <point x="322" y="1229"/>
      <point x="322" y="1137" type="qcurve" smooth="yes"/>
      <point x="322" y="1068"/>
      <point x="396" y="975"/>
      <point x="455" y="975" type="qcurve" smooth="yes"/>
      <point x="537" y="975"/>
      <point x="674" y="1122"/>
    </contour>
    <contour>
      <point x="688" y="227" type="qcurve" smooth="yes"/>
      <point x="688" y="366"/>
      <point x="918" y="578"/>
      <point x="1061" y="578" type="qcurve" smooth="yes"/>
      <point x="1169" y="578"/>
      <point x="1305" y="436"/>
      <point x="1305" y="330" type="qcurve" smooth="yes"/>
      <point x="1305" y="238"/>
      <point x="1199" y="75"/>
      <point x="1028" y="-20"/>
      <point x="934" y="-20" type="qcurve" smooth="yes"/>
      <point x="826" y="-20"/>
      <point x="688" y="122"/>
    </contour>
    <contour>
      <point x="1174" y="317" type="qcurve" smooth="yes"/>
      <point x="1174" y="385"/>
      <point x="1096" y="479"/>
      <point x="1038" y="479" type="qcurve" smooth="yes"/>
      <point x="956" y="479"/>
      <point x="819" y="332"/>
      <point x="819" y="240" type="qcurve" smooth="yes"/>
      <point x="819" y="171"/>
      <point x="895" y="78"/>
      <point x="954" y="78" type="qcurve" smooth="yes"/>
      <point x="1037" y="78"/>
      <point x="1174" y="224"/>
    </contour>
  </outline>
</glyph>
<glyph name="ampersand" format="2">
  <advance width="1376"/>
  <unicode hex="0026"/>
  <outline>
    <contour>
      <point x="1307" y="711" type="line"/>
      <point x="1104" y="711" type="line"/>
      <point x="1046" y="510"/>
      <point x="940" y="348" type="qcurve"/>
      <point x="1184" y="0" type="line"/>
      <point x="961" y="0" type="line"/>
      <point x="823" y="201" type="line"/>
      <point x="612" y="-20"/>
      <point x="377" y="-20" type="qcurve" smooth="yes"/>
      <point x="227" y="-20"/>
      <point x="35" y="168"/>
      <point x="35" y="315" type="qcurve" smooth="yes"/>
      <point x="35" y="399"/>
      <point x="94" y="545"/>
      <point x="208" y="667"/>
      <point x="324" y="757"/>
      <point x="408" y="809" type="qcurve"/>
      <point x="297" y="986"/>
      <point x="297" y="1094" type="qcurve" smooth="yes"/>
      <point x="297" y="1197"/>
      <point x="417" y="1373"/>
      <point x="617" y="1473"/>
      <point x="731" y="1473" type="qcurve" smooth="yes"/>
      <point x="841" y="1473"/>
      <point x="1014" y="1357"/>
      <point x="1057" y="1257" type="qcurve"/>
      <point x="934" y="1147" type="line"/>
      <point x="904" y="1229"/>
      <point x="777" y="1335"/>
      <point x="702" y="1335" type="qcurve" smooth="yes"/>
      <point x="608" y="1335"/>
      <point x="467" y="1206"/>
      <point x="467" y="1122" type="qcurve" smooth="yes"/>
      <point x="467" y="1027"/>
      <point x="590" y="850" type="qcurve" smooth="yes"/>
      <point x="852" y="475" type="line"/>
      <point x="939" y="642"/>
      <point x="977" y="852" type="qcurve"/>
      <point x="1337" y="852" type="line"/>
    </contour>
    <contour>
      <point x="416" y="123" type="qcurve" smooth="yes"/>
      <point x="589" y="123"/>
      <point x="745" y="313" type="qcurve"/>
      <point x="485" y="696" type="line"/>
      <point x="350" y="609"/>
      <point x="211" y="443"/>
      <point x="211" y="338" type="qcurve" smooth="yes"/>
      <point x="211" y="238"/>
      <point x="327" y="123"/>
    </contour>
  </outline>
</glyph>
<glyph name="quotesingle" format="2">
  <advance width="421"/>
  <unicode hex="0027"/>
  <outline>
    <contour>
      <point x="217" y="1026" type="line"/>
      <point x="311" y="1470" type="line"/>
      <point x="467" y="1470" type="line"/>
      <point x="373" y="1026" type="line"/>
    </contour>
  </outline>
</glyph>
<glyph name="parenleft" format="2">
  <advance width="569"/>
  <unicode hex="0028"/>
  <outline>
    <contour>
      <point x="559" y="1524" type="qcurve"/>
      <point x="684" y="1462" type="line"/>
      <point x="617" y="1382"/>
      <point x="487" y="1194"/>
      <point x="344" y="944"/>
      <point x="256" y="669"/>
      <point x="256" y="549" type="qcurve" smooth="yes"/>
      <point x="256" y="421"/>
      <point x="315" y="116"/>
      <point x="367" y="-16" type="qcurve"/>
      <point x="219" y="-86" type="line"/>
      <point x="158" y="58"/>
      <point x="86" y="387"/>
      <point x="86" y="535" type="qcurve" smooth="yes"/>
      <point x="86" y="640"/>
      <point x="137" y="852"/>
      <point x="214" y="1030"/>
      <point x="348" y="1245"/>
      <point x="467" y="1407"/>
    </contour>
  </outline>
</glyph>
<glyph name="parenright" format="2">
  <advance width="569"/>
  <unicode hex="0029"/>
  <outline>
    <contour>
      <point x="53" y="-86" type="qcurve"/>
      <point x="-66" y="-16" type="line"/>
      <point x="136" y="232"/>
      <point x="352" y="658"/>
      <point x="352" y="868" type="qcurve" smooth="yes"/>
      <point x="352" y="1020"/>
      <point x="285" y="1363"/>
      <point x="244" y="1462" type="qcurve"/>
      <point x="397" y="1524" type="line"/>
      <point x="524" y="1169"/>
      <point x="524" y="885" type="qcurve" smooth="yes"/>
      <point x="524" y="759"/>
      <point x="454" y="507"/>
      <point x="318" y="260"/>
      <point x="162" y="43"/>
    </contour>
  </outline>
</glyph>
<glyph name="asterisk" format="2">
  <advance width="659"/>
  <unicode hex="002A"/>
  <outline>
    <contour>
      <point x="268" y="1102" type="line"/>
      <point x="383" y="1235" type="line"/>
      <point x="258" y="1280" type="line"/>
      <point x="303" y="1366" type="line"/>
      <point x="428" y="1311" type="line"/>
      <point x="453" y="1462" type="line"/>
      <point x="557" y="1462" type="line"/>
      <point x="518" y="1311" type="line"/>
      <point x="668" y="1366" type="line"/>
      <point x="674" y="1280" type="line"/>
      <point x="530" y="1235" type="line"/>
      <point x="590" y="1102" type="line"/>
      <point x="502" y="1051" type="line"/>
      <point x="449" y="1188" type="line"/>
      <point x="332" y="1051" type="line"/>
    </contour>
  </outline>
</glyph>
<glyph name="plus" format="2">
  <advance width="851"/>
  <unicode hex="002B"/>
  <outline>
    <contour>
      <point x="768" y="801" type="line"/>
      <point x="768" y="653" type="line"/>
      <point x="526" y="653" type="line"/>
      <point x="526" y="391" type="line"/>
      <point x="362" y="391" type="line"/>
      <point x="362" y="653" type="line"/>
      <point x="121" y="653" type="line"/>
      <point x="121" y="801" type="line"/>
      <point x="362" y="801" type="line"/>
      <point x="362" y="1063" type="line"/>
      <point x="526" y="1063" type="line"/>
      <point x="526" y="801" type="line"/>
    </contour>
  </outline>
</glyph>
<glyph name="comma" format="2">
  <advance width="425"/>
  <unicode hex="002C"/>
  <outline>
    <contour>
      <point x="-14" y="-166" type="line"/>
      <point x="66" y="16" type="line"/>
      <point x="4" y="16" type="line"/>
      <point x="49" y="229" type="line"/>
      <point x="217" y="229" type="line"/>
      <point x="172" y="16" type="line"/>
      <point x="74" y="-166" type="line"/>
    </contour>
  </outline>
</glyph>
<glyph name="hyphen" format="2">
  <advance width="831"/>
  <unicode hex="002D"/>
  <outline>
    <contour>
      <point x="98" y="477" type="line"/>
      <point x="133" y="641" type="line"/>
      <point x="709" y="641" type="line"/>
      <point x="674" y="477" type="line"/>
    </contour>
  </outline>
</glyph>
<glyph name="slash" format="2">
  <advance width="1286"/>
  <unicode hex="002F"/>
  <outline>
    <contour>
      <point x="1393" y="1454" type="line"/>
      <point x="147" y="0" type="line"/>
      <point x="-53" y="0" type="line"/>
      <point x="1192" y="1454" type="line"/>
    </contour>
  </outline>
</glyph>
<glyph name="zero" format="2">
  <advance width="1361"/>
  <unicode hex="0030"/>
  <outline>
    <contour>
      <point x="100" y="565" type="qcurve" smooth="yes"/>
      <point x="100" y="685"/>
      <point x="177" y="940"/>
      <point x="319" y="1167"/>
      <point x="504" y="1348"/>
      <point x="738" y="1454"/>
      <point x="858" y="1454" type="qcurve" smooth="yes"/>
      <point x="949" y="1454"/>
      <point x="1101" y="1384"/>
      <point x="1202" y="1268"/>
      <point x="1272" y="1114"/>
      <point x="1303" y="949"/>
      <point x="1303" y="864" type="qcurve" smooth="yes"/>
      <point x="1303" y="744"/>
      <point x="1226" y="490"/>
      <point x="1085" y="264"/>
      <point x="901" y="85"/>
      <point x="667" y="-20"/>
      <point x="547" y="-20" type="qcurve" smooth="yes"/>
      <point x="456" y="-20"/>
      <point x="305" y="49"/>
      <point x="203" y="164"/>
      <point x="132" y="316"/>
      <point x="100" y="480"/>
    </contour>
    <contour>
      <point x="1114" y="852" type="qcurve" smooth="yes"/>
      <point x="1114" y="936"/>
      <point x="1079" y="1088"/>
      <point x="1010" y="1214"/>
      <point x="896" y="1288"/>
      <point x="823" y="1288" type="qcurve" smooth="yes"/>
      <point x="730" y="1288"/>
      <point x="557" y="1191"/>
      <point x="432" y="1034"/>
      <point x="337" y="841"/>
      <point x="289" y="641"/>
      <point x="289" y="553" type="qcurve" smooth="yes"/>
      <point x="289" y="470"/>
      <point x="323" y="327"/>
      <point x="390" y="212"/>
      <point x="505" y="145"/>
      <point x="580" y="145" type="qcurve" smooth="yes"/>
      <point x="671" y="145"/>
      <point x="841" y="237"/>
      <point x="968" y="387"/>
      <point x="1064" y="572"/>
      <point x="1114" y="766"/>
    </contour>
  </outline>
</glyph>
<glyph name="one" format="2">
  <advance width="868"/>
  <unicode hex="0031"/>
  <outline>
    <contour>
      <point x="37" y="164" type="line"/>
      <point x="301" y="164" type="line"/>
      <point x="539" y="1280" type="line"/>
      <point x="493" y="1227"/>
      <point x="266" y="1104"/>
      <point x="193" y="1104" type="qcurve"/>
      <point x="227" y="1272" type="line"/>
      <point x="266" y="1272"/>
      <point x="366" y="1312"/>
      <point x="453" y="1367"/>
      <point x="532" y="1427"/>
      <point x="577" y="1466"/>
      <point x="580" y="1470" type="qcurve"/>
      <point x="764" y="1470" type="line"/>
      <point x="485" y="164" type="line"/>
      <point x="733" y="164" type="line"/>
      <point x="698" y="0" type="line"/>
      <point x="2" y="0" type="line"/>
    </contour>
  </outline>
</glyph>
<glyph name="two" format="2">
  <advance width="1157"/>
  <unicode hex="0032"/>
  <outline>
    <contour>
      <point x="473" y="670" type="qcurve" smooth="yes"/>
      <point x="505" y="685"/>
      <point x="606" y="727"/>
      <point x="673" y="756"/>
      <point x="763" y="801"/>
      <point x="822" y="841"/>
      <point x="886" y="900"/>
      <point x="924" y="964"/>
      <point x="948" y="1050"/>
      <point x="948" y="1100" type="qcurve" smooth="yes"/>
      <point x="948" y="1191"/>
      <point x="840" y="1305"/>
      <point x="735" y="1305" type="qcurve" smooth="yes"/>
      <point x="616" y="1305"/>
      <point x="402" y="1186"/>
      <point x="324" y="1108" type="qcurve"/>
      <point x="233" y="1225" type="line"/>
      <point x="258" y="1250"/>
      <point x="313" y="1296"/>
      <point x="428" y="1374"/>
      <point x="545" y="1430"/>
      <point x="709" y="1473"/>
      <point x="791" y="1473" type="qcurve" smooth="yes"/>
      <point x="968" y="1473"/>
      <point x="1153" y="1282"/>
      <point x="1153" y="1133" type="qcurve" smooth="yes"/>
      <point x="1153" y="902"/>
      <point x="975" y="758" type="qcurve" smooth="yes"/>
      <point x="887" y="686"/>
      <point x="696" y="599" type="qcurve" smooth="yes"/>
      <point x="683" y="593"/>
      <point x="658" y="582" type="qcurve"/>
      <point x="657" y="581" type="line"/>
      <point x="656" y="581" type="line"/>
      <point x="655" y="580" type="line"/>
      <point x="442" y="484"/>
      <point x="261" y="305"/>
      <point x="231" y="164" type="qcurve"/>
      <point x="956" y="164" type="line"/>
      <point x="922" y="0" type="line"/>
      <point x="-37" y="0" type="line"/>
      <point x="-7" y="142"/>
      <point x="83" y="352"/>
      <point x="212" y="509"/>
      <point x="366" y="620"/>
    </contour>
  </outline>
</glyph>
<glyph name="three" format="2">
  <advance width="1144"/>
  <unicode hex="0033"/>
  <outline>
    <contour>
      <point x="20" y="303" type="qcurve"/>
      <point x="145" y="412" type="line"/>
      <point x="145" y="299"/>
      <point x="293" y="150"/>
      <point x="436" y="150" type="qcurve" smooth="yes"/>
      <point x="590" y="150"/>
      <point x="815" y="315"/>
      <point x="815" y="438" type="qcurve" smooth="yes"/>
      <point x="815" y="550"/>
      <point x="618" y="668"/>
      <point x="438" y="668" type="qcurve" smooth="yes"/>
      <point x="373" y="668" type="line"/>
      <point x="406" y="821" type="line"/>
      <point x="471" y="821" type="line" smooth="yes"/>
      <point x="674" y="821"/>
      <point x="918" y="968"/>
      <point x="918" y="1102" type="qcurve" smooth="yes"/>
      <point x="918" y="1200"/>
      <point x="788" y="1313"/>
      <point x="682" y="1313" type="qcurve" smooth="yes"/>
      <point x="572" y="1313"/>
      <point x="371" y="1200"/>
      <point x="319" y="1118" type="qcurve"/>
      <point x="225" y="1243" type="line"/>
      <point x="305" y="1348"/>
      <point x="580" y="1473"/>
      <point x="721" y="1473" type="qcurve" smooth="yes"/>
      <point x="898" y="1473"/>
      <point x="1112" y="1280"/>
      <point x="1112" y="1128" type="qcurve" smooth="yes"/>
      <point x="1112" y="993"/>
      <point x="933" y="791"/>
      <point x="768" y="752" type="qcurve"/>
      <point x="876" y="731"/>
      <point x="999" y="564"/>
      <point x="999" y="446" type="qcurve" smooth="yes"/>
      <point x="999" y="362"/>
      <point x="932" y="212"/>
      <point x="818" y="103"/>
      <point x="668" y="22"/>
      <point x="498" y="-18"/>
      <point x="412" y="-18" type="qcurve" smooth="yes"/>
      <point x="231" y="-18"/>
      <point x="20" y="156"/>
    </contour>
  </outline>
</glyph>
<glyph name="four" format="2">
  <advance width="1134"/>
  <unicode hex="0034"/>
  <outline>
    <contour>
      <point x="569" y="0" type="line"/>
      <point x="647" y="371" type="line"/>
      <point x="4" y="371" type="line"/>
      <point x="39" y="532" type="line"/>
      <point x="932" y="1454" type="line"/>
      <point x="1057" y="1454" type="line"/>
      <point x="862" y="535" type="line"/>
      <point x="1034" y="535" type="line"/>
      <point x="999" y="371" type="line"/>
      <point x="827" y="371" type="line"/>
      <point x="750" y="0" type="line"/>
    </contour>
    <contour>
      <point x="700" y="535" type="line"/>
      <point x="838" y="1178" type="line"/>
      <point x="227" y="535" type="line"/>
    </contour>
  </outline>
</glyph>
<glyph name="five" format="2">
  <advance width="1103"/>
  <unicode hex="0035"/>
  <outline>
    <contour>
      <point x="2" y="252" type="qcurve"/>
      <point x="135" y="350" type="line"/>
      <point x="169" y="254"/>
      <point x="324" y="141"/>
      <point x="426" y="141" type="qcurve" smooth="yes"/>
      <point x="579" y="141"/>
      <point x="807" y="363"/>
      <point x="807" y="522" type="qcurve" smooth="yes"/>
      <point x="807" y="633"/>
      <point x="679" y="772"/>
      <point x="575" y="772" type="qcurve" smooth="yes"/>
      <point x="495" y="772"/>
      <point x="333" y="693"/>
      <point x="274" y="623" type="qcurve"/>
      <point x="113" y="623" type="line"/>
      <point x="125" y="648"/>
      <point x="290" y="1065"/>
      <point x="443" y="1454"/>
      <point x="444" y="1454" type="qcurve" smooth="yes"/>
      <point x="1118" y="1454" type="line"/>
      <point x="1081" y="1288" type="line"/>
      <point x="543" y="1288" type="line"/>
      <point x="362" y="825" type="line"/>
      <point x="471" y="928"/>
      <point x="631" y="928" type="qcurve" smooth="yes"/>
      <point x="794" y="928"/>
      <point x="995" y="720"/>
      <point x="995" y="555" type="qcurve" smooth="yes"/>
      <point x="995" y="394"/>
      <point x="824" y="127"/>
      <point x="548" y="-20"/>
      <point x="391" y="-20" type="qcurve" smooth="yes"/>
      <point x="244" y="-20"/>
      <point x="38" y="126"/>
    </contour>
  </outline>
</glyph>
<glyph name="seven" format="2">
  <advance width="1052"/>
  <unicode hex="0037"/>
  <outline>
    <contour>
      <point x="901" y="1288" type="line"/>
      <point x="201" y="1288" type="line"/>
      <point x="236" y="1454" type="line"/>
      <point x="1223" y="1454" type="line"/>
      <point x="217" y="0" type="line"/>
      <point x="14" y="0" type="line"/>
    </contour>
  </outline>
</glyph>
<glyph name="eight" format="2">
  <advance width="1179"/>
  <unicode hex="0038"/>
  <outline>
    <contour>
      <point x="451" y="-16" type="qcurve" smooth="yes"/>
      <point x="272" y="-16"/>
      <point x="49" y="191"/>
      <point x="49" y="348" type="qcurve" smooth="yes"/>
      <point x="49" y="428"/>
      <point x="111" y="572"/>
      <point x="214" y="678"/>
      <point x="328" y="754"/>
      <point x="389" y="778" type="qcurve"/>
      <point x="322" y="811"/>
      <point x="238" y="943"/>
      <point x="238" y="1024" type="qcurve" smooth="yes"/>
      <point x="238" y="1102"/>
      <point x="304" y="1242"/>
      <point x="412" y="1343"/>
      <point x="550" y="1417"/>
      <point x="697" y="1454"/>
      <point x="766" y="1454" type="qcurve" smooth="yes"/>
      <point x="862" y="1454"/>
      <point x="1029" y="1383"/>
      <point x="1139" y="1235"/>
      <point x="1139" y="1137" type="qcurve" smooth="yes"/>
      <point x="1139" y="1016"/>
      <point x="973" y="827"/>
      <point x="854" y="778" type="qcurve"/>
      <point x="937" y="740"/>
      <point x="1042" y="579"/>
      <point x="1042" y="477" type="qcurve" smooth="yes"/>
      <point x="1042" y="337"/>
      <point x="871" y="107"/>
      <point x="601" y="-16"/>
    </contour>
    <contour>
      <point x="637" y="842" type="qcurve" smooth="yes"/>
      <point x="707" y="842"/>
      <point x="847" y="902"/>
      <point x="950" y="1028"/>
      <point x="950" y="1108" type="qcurve" smooth="yes"/>
      <point x="950" y="1192"/>
      <point x="825" y="1292"/>
      <point x="731" y="1292" type="qcurve" smooth="yes"/>
      <point x="654" y="1292"/>
      <point x="513" y="1229"/>
      <point x="420" y="1107"/>
      <point x="420" y="1030" type="qcurve" smooth="yes"/>
      <point x="420" y="944"/>
      <point x="551" y="842"/>
    </contour>
    <contour>
      <point x="604" y="702" type="qcurve" smooth="yes"/>
      <point x="518" y="702"/>
      <point x="351" y="622"/>
      <point x="238" y="469"/>
      <point x="238" y="377" type="qcurve" smooth="yes"/>
      <point x="238" y="274"/>
      <point x="388" y="145"/>
      <point x="489" y="145" type="qcurve" smooth="yes"/>
      <point x="552" y="145"/>
      <point x="683" y="194"/>
      <point x="791" y="277"/>
      <point x="860" y="401"/>
      <point x="860" y="471" type="qcurve" smooth="yes"/>
      <point x="860" y="575"/>
      <point x="708" y="702"/>
    </contour>
  </outline>
</glyph>
<glyph name="nine" format="2">
  <advance width="1212"/>
  <unicode hex="0039"/>
  <outline>
    <contour>
      <point x="541" y="473" type="qcurve" smooth="yes"/>
      <point x="659" y="473"/>
      <point x="875" y="601"/>
      <point x="940" y="707" type="qcurve"/>
      <point x="881" y="439"/>
      <point x="629" y="139"/>
      <point x="471" y="139" type="qcurve" smooth="yes"/>
      <point x="372" y="139"/>
      <point x="229" y="252"/>
      <point x="207" y="348" type="qcurve"/>
      <point x="74" y="240" type="line"/>
      <point x="112" y="117"/>
      <point x="303" y="-20"/>
      <point x="436" y="-20" type="qcurve" smooth="yes"/>
      <point x="592" y="-20"/>
      <point x="866" y="147"/>
      <point x="1053" y="427"/>
      <point x="1161" y="799"/>
      <point x="1161" y="1001" type="qcurve" smooth="yes"/>
      <point x="1161" y="1218"/>
      <point x="953" y="1464"/>
      <point x="770" y="1464" type="qcurve" smooth="yes"/>
      <point x="614" y="1464"/>
      <point x="330" y="1304"/>
      <point x="156" y="1030"/>
      <point x="156" y="874" type="qcurve" smooth="yes"/>
      <point x="156" y="702"/>
      <point x="370" y="473"/>
    </contour>
    <contour>
      <point x="993" y="1024" type="qcurve" smooth="yes"/>
      <point x="993" y="920"/>
      <point x="875" y="731"/>
      <point x="688" y="621"/>
      <point x="590" y="621" type="qcurve" smooth="yes"/>
      <point x="477" y="621"/>
      <point x="334" y="783"/>
      <point x="334" y="903" type="qcurve" smooth="yes"/>
      <point x="334" y="1008"/>
      <point x="451" y="1198"/>
      <point x="637" y="1311"/>
      <point x="735" y="1311" type="qcurve" smooth="yes"/>
      <point x="847" y="1311"/>
      <point x="993" y="1144"/>
    </contour>
  </outline>
</glyph>
<glyph name="colon" format="2">
  <advance width="405"/>
  <unicode hex="003A"/>
  <outline>
    <contour>
      <point x="172" y="831" type="line"/>
      <point x="221" y="1061" type="line"/>
      <point x="371" y="1061" type="line"/>
      <point x="322" y="831" type="line"/>
    </contour>
    <contour>
      <point x="-4" y="0" type="line"/>
      <point x="45" y="229" type="line"/>
      <point x="195" y="229" type="line"/>
      <point x="145" y="0" type="line"/>
    </contour>
  </outline>
</glyph>
<glyph name="semicolon" format="2">
  <advance width="413"/>
  <unicode hex="003B"/>
  <outline>
    <contour>
      <point x="174" y="831" type="line"/>
      <point x="221" y="1061" type="line"/>
      <point x="371" y="1061" type="line"/>
      <point x="322" y="831" type="line"/>
    </contour>
    <contour>
      <point x="-18" y="-166" type="line"/>
      <point x="61" y="16" type="line"/>
      <point x="0" y="16" type="line"/>
      <point x="45" y="229" type="line"/>
      <point x="213" y="229" type="line"/>
      <point x="168" y="16" type="line"/>
      <point x="70" y="-166" type="line"/>
    </contour>
  </outline>
</glyph>
<glyph name="less" format="2">
  <advance width="1120"/>
  <unicode hex="003C"/>
  <outline>
    <contour>
      <point x="61" y="573" type="line"/>
      <point x="922" y="1092" type="line"/>
      <point x="922" y="899" type="line"/>
      <point x="324" y="530" type="line"/>
      <point x="922" y="168" type="line"/>
      <point x="922" y="-33" type="line"/>
      <point x="61" y="479" type="line"/>
    </contour>
  </outline>
</glyph>
<glyph name="equal" format="2">
  <advance width="980"/>
  <unicode hex="003D"/>
  <outline>
    <contour>
      <point x="166" y="641" type="line"/>
      <point x="166" y="764" type="line"/>
      <point x="791" y="764" type="line"/>
      <point x="791" y="641" type="line"/>
    </contour>
    <contour>
      <point x="166" y="367" type="line"/>
      <point x="166" y="489" type="line"/>
      <point x="791" y="489" type="line"/>
      <point x="791" y="367" type="line"/>
    </contour>
  </outline>
</glyph>
<glyph name="question" format="2">
  <advance width="946"/>
  <unicode hex="003F"/>
  <outline>
    <contour>
      <point x="240" y="432" type="line"/>
      <point x="264" y="547"/>
      <point x="374" y="710"/>
      <point x="473" y="768" type="qcurve" smooth="yes"/>
      <point x="492" y="779"/>
      <point x="586" y="830"/>
      <point x="645" y="863"/>
      <point x="727" y="927"/>
      <point x="775" y="989"/>
      <point x="811" y="1082"/>
      <point x="811" y="1135" type="qcurve" smooth="yes"/>
      <point x="811" y="1224"/>
      <point x="703" y="1323"/>
      <point x="621" y="1323" type="qcurve" smooth="yes"/>
      <point x="530" y="1323"/>
      <point x="357" y="1211"/>
      <point x="299" y="1128" type="qcurve"/>
      <point x="195" y="1208" type="line"/>
      <point x="273" y="1332"/>
      <point x="525" y="1473"/>
      <point x="657" y="1473" type="qcurve" smooth="yes"/>
      <point x="792" y="1473"/>
      <point x="975" y="1311"/>
      <point x="975" y="1161" type="qcurve" smooth="yes"/>
      <point x="975" y="1085"/>
      <point x="938" y="962"/>
      <point x="886" y="880"/>
      <point x="789" y="800"/>
      <point x="711" y="754"/>
      <point x="645" y="719" type="qcurve" smooth="yes"/>
      <point x="607" y="700"/>
      <point x="573" y="681"/>
      <point x="507" y="640"/>
      <point x="472" y="603"/>
      <point x="428" y="547"/>
      <point x="400" y="476"/>
      <point x="391" y="432" type="qcurve"/>
    </contour>
    <contour>
      <point x="152" y="0" type="line"/>
      <point x="203" y="238" type="line"/>
      <point x="352" y="238" type="line"/>
      <point x="303" y="0" type="line"/>
    </contour>
  </outline>
</glyph>
<glyph name="at" format="2">
  <advance width="1654"/>
  <unicode hex="0040"/>
  <outline>
    <contour>
      <point x="1444" y="618" type="qcurve" smooth="yes"/>
      <point x="1444" y="720"/>
      <point x="1377" y="909"/>
      <point x="1253" y="1061"/>
      <point x="1052" y="1153"/>
      <point x="928" y="1153" type="qcurve" smooth="yes"/>
      <point x="811" y="1153"/>
      <point x="578" y="1072"/>
      <point x="378" y="922"/>
      <point x="223" y="723"/>
      <point x="135" y="470"/>
      <point x="135" y="336" type="qcurve" smooth="yes"/>
      <point x="135" y="179"/>
      <point x="253" y="-71"/>
      <point x="481" y="-217"/>
      <point x="633" y="-217" type="qcurve" smooth="yes"/>
      <point x="772" y="-217"/>
      <point x="948" y="-139" type="qcurve"/>
      <point x="958" y="-217" type="line"/>
      <point x="784" y="-299"/>
      <point x="614" y="-299" type="qcurve" smooth="yes"/>
      <point x="363" y="-299"/>
      <point x="49" y="48"/>
      <point x="49" y="328" type="qcurve" smooth="yes"/>
      <point x="49" y="459"/>
      <point x="124" y="705"/>
      <point x="253" y="901"/>
      <point x="429" y="1065"/>
      <point x="628" y="1175"/>
      <point x="843" y="1235"/>
      <point x="948" y="1235" type="qcurve" smooth="yes"/>
      <point x="1083" y="1235"/>
      <point x="1308" y="1135"/>
      <point x="1452" y="968"/>
      <point x="1530" y="757"/>
      <point x="1530" y="643" type="qcurve" smooth="yes"/>
      <point x="1530" y="589"/>
      <point x="1513" y="458"/>
      <point x="1478" y="302"/>
      <point x="1415" y="158"/>
      <point x="1332" y="39"/>
      <point x="1211" y="-33"/>
      <point x="1139" y="-33" type="qcurve" smooth="yes"/>
      <point x="997" y="-33"/>
      <point x="997" y="102" type="qcurve" smooth="yes"/>
      <point x="997" y="134"/>
      <point x="1001" y="150" type="qcurve"/>
      <point x="931" y="82"/>
      <point x="749" y="-2"/>
      <point x="659" y="-2" type="qcurve" smooth="yes"/>
      <point x="561" y="-2"/>
      <point x="411" y="102"/>
      <point x="336" y="271"/>
      <point x="336" y="375" type="qcurve" smooth="yes"/>
      <point x="336" y="517"/>
      <point x="477" y="779"/>
      <point x="709" y="938"/>
      <point x="834" y="938" type="qcurve" smooth="yes"/>
      <point x="938" y="938"/>
      <point x="1079" y="829"/>
      <point x="1110" y="741" type="qcurve"/>
      <point x="1147" y="922" type="line"/>
      <point x="1262" y="922" type="line"/>
      <point x="1108" y="203" type="line" smooth="yes"/>
      <point x="1100" y="167"/>
      <point x="1100" y="135" type="qcurve" smooth="yes"/>
      <point x="1100" y="94"/>
      <point x="1131" y="57"/>
      <point x="1165" y="57" type="qcurve" smooth="yes"/>
      <point x="1227" y="57"/>
      <point x="1337" y="174"/>
      <point x="1405" y="349"/>
      <point x="1444" y="539"/>
    </contour>
    <contour>
      <point x="1026" y="334" type="qcurve"/>
      <point x="1075" y="614" type="line"/>
      <point x="1044" y="724"/>
      <point x="914" y="834"/>
      <point x="831" y="834" type="qcurve" smooth="yes"/>
      <point x="766" y="834"/>
      <point x="631" y="766"/>
      <point x="525" y="654"/>
      <point x="457" y="494"/>
      <point x="457" y="408" type="qcurve" smooth="yes"/>
      <point x="457" y="275"/>
      <point x="605" y="100"/>
      <point x="711" y="100" type="qcurve" smooth="yes"/>
      <point x="807" y="100"/>
      <point x="990" y="239"/>
    </contour>
  </outline>
</glyph>
<glyph name="B" format="2">
  <advance width="1325"/>
  <unicode hex="0042"/>
  <outline>
    <contour>
      <point x="350" y="1454" type="line"/>
      <point x="1042" y="1454" type="line" smooth="yes"/>
      <point x="1157" y="1454"/>
      <point x="1288" y="1279"/>
      <point x="1288" y="1157" type="qcurve" smooth="yes"/>
      <point x="1288" y="1027"/>
      <point x="1133" y="799"/>
      <point x="1008" y="745" type="qcurve"/>
      <point x="1098" y="715"/>
      <point x="1196" y="559"/>
      <point x="1196" y="453" type="qcurve" smooth="yes"/>
      <point x="1196" y="323"/>
      <point x="1052" y="112"/>
      <point x="826" y="0"/>
      <point x="698" y="0" type="qcurve" smooth="yes"/>
      <point x="41" y="0" type="line"/>
    </contour>
    <contour>
      <point x="829" y="809" type="line" smooth="yes"/>
      <point x="933" y="809"/>
      <point x="1096" y="987"/>
      <point x="1096" y="1104" type="qcurve" smooth="yes"/>
      <point x="1096" y="1187"/>
      <point x="1013" y="1294"/>
      <point x="944" y="1294" type="qcurve" smooth="yes"/>
      <point x="500" y="1294" type="line"/>
      <point x="397" y="809" type="line"/>
    </contour>
    <contour>
      <point x="731" y="160" type="line" smooth="yes"/>
      <point x="839" y="160"/>
      <point x="1014" y="343"/>
      <point x="1014" y="459" type="qcurve" smooth="yes"/>
      <point x="1014" y="543"/>
      <point x="925" y="659"/>
      <point x="852" y="659" type="qcurve" smooth="yes"/>
      <point x="365" y="659" type="line"/>
      <point x="260" y="160" type="line"/>
    </contour>
  </outline>
</glyph>
<glyph name="D" format="2">
  <advance width="1417"/>
  <unicode hex="0044"/>
  <anchor x="0" y="0" name="Anchor-11"/>
  <anchor x="653" y="727" name="Anchor-10"/>
  <anchor x="801" y="1450" name="Anchor-9"/>
  <anchor x="0" y="0" name="Anchor-8"/>
  <anchor x="494" y="0" name="Anchor-7"/>
  <outline>
    <contour>
      <point x="350" y="1454" type="line"/>
      <point x="831" y="1454" type="line" smooth="yes"/>
      <point x="965" y="1454"/>
      <point x="1173" y="1368"/>
      <point x="1302" y="1215"/>
      <point x="1368" y="1014"/>
      <point x="1368" y="895" type="qcurve" smooth="yes"/>
      <point x="1368" y="642"/>
      <point x="1149" y="232"/>
      <point x="761" y="0"/>
      <point x="522" y="0" type="qcurve" smooth="yes"/>
      <point x="41" y="0" type="line"/>
    </contour>
    <contour>
      <point x="557" y="164" type="line" smooth="yes"/>
      <point x="696" y="164"/>
      <point x="932" y="279"/>
      <point x="1090" y="473"/>
      <point x="1178" y="727"/>
      <point x="1178" y="866" type="qcurve" smooth="yes"/>
      <point x="1178" y="1058"/>
      <point x="981" y="1290"/>
      <point x="797" y="1290" type="qcurve" smooth="yes"/>
      <point x="500" y="1290" type="line"/>
      <point x="260" y="164" type="line"/>
    </contour>
  </outline>
</glyph>
<glyph name="E" format="2">
  <advance width="1187"/>
  <unicode hex="0045"/>
  <anchor x="0" y="0" name="Anchor-11"/>
  <anchor x="0" y="0" name="Anchor-10"/>
  <anchor x="788" y="1454" name="Anchor-9"/>
  <anchor x="981" y="0" name="Anchor-8"/>
  <anchor x="481" y="0" name="Anchor-7"/>
  <outline>
    <contour>
      <point x="350" y="1454" type="line"/>
      <point x="1272" y="1454" type="line"/>
      <point x="1237" y="1290" type="line"/>
      <point x="500" y="1290" type="line"/>
      <point x="399" y="819" type="line"/>
      <point x="1040" y="819" type="line"/>
      <point x="1008" y="666" type="line"/>
      <point x="367" y="666" type="line"/>
      <point x="260" y="164" type="line"/>
      <point x="1016" y="164" type="line"/>
      <point x="981" y="0" type="line"/>
      <point x="41" y="0" type="line"/>
    </contour>
  </outline>
</glyph>
<glyph name="F" format="2">
  <advance width="1157"/>
  <unicode hex="0046"/>
  <outline>
    <contour>
      <point x="350" y="1454" type="line"/>
      <point x="1264" y="1454" type="line"/>
      <point x="1229" y="1290" type="line"/>
      <point x="500" y="1290" type="line"/>
      <point x="397" y="805" type="line"/>
      <point x="1010" y="805" type="line"/>
      <point x="977" y="651" type="line"/>
      <point x="365" y="651" type="line"/>
      <point x="225" y="0" type="line"/>
      <point x="41" y="0" type="line"/>
    </contour>
  </outline>
</glyph>
<glyph name="I" format="2">
  <advance width="528"/>
  <unicode hex="0049"/>
  <anchor x="0" y="0" name="Anchor-11"/>
  <anchor x="0" y="0" name="Anchor-10"/>
  <anchor x="442" y="1454" name="Anchor-9"/>
  <anchor x="225" y="0" name="Anchor-8"/>
  <anchor x="133" y="0" name="Anchor-7"/>
  <outline>
    <contour>
      <point x="350" y="1452" type="line"/>
      <point x="535" y="1452" type="line"/>
      <point x="225" y="0" type="line"/>
      <point x="41" y="0" type="line"/>
    </contour>
  </outline>
</glyph>
<glyph name="K" format="2">
  <advance width="1280"/>
  <unicode hex="004B"/>
  <anchor x="0" y="0" name="Anchor-11"/>
  <anchor x="0" y="0" name="Anchor-10"/>
  <anchor x="0" y="0" name="Anchor-9"/>
  <anchor x="0" y="0" name="Anchor-8"/>
  <anchor x="569" y="0" name="Anchor-7"/>
  <outline>
    <contour>
      <point x="350" y="1452" type="line"/>
      <point x="535" y="1452" type="line"/>
      <point x="362" y="649" type="line"/>
      <point x="1233" y="1454" type="line"/>
      <point x="1434" y="1454" type="line"/>
      <point x="745" y="813" type="line"/>
      <point x="1155" y="0" type="line"/>
      <point x="952" y="0" type="line"/>
      <point x="608" y="707" type="line"/>
      <point x="319" y="444" type="line"/>
      <point x="225" y="0" type="line"/>
      <point x="41" y="0" type="line"/>
    </contour>
  </outline>
</glyph>
<glyph name="L" format="2">
  <advance width="1144"/>
  <unicode hex="004C"/>
  <anchor x="975" y="1069" name="Anchor-11"/>
  <anchor x="614" y="727" name="Anchor-10"/>
  <anchor x="426" y="1454" name="Anchor-9"/>
  <anchor x="0" y="0" name="Anchor-8"/>
  <anchor x="516" y="0" name="Anchor-7"/>
  <outline>
    <contour>
      <point x="350" y="1454" type="line"/>
      <point x="535" y="1454" type="line"/>
      <point x="260" y="164" type="line"/>
      <point x="1024" y="164" type="line"/>
      <point x="989" y="0" type="line"/>
      <point x="41" y="0" type="line"/>
    </contour>
  </outline>
</glyph>
<glyph name="M" format="2">
  <advance width="1716"/>
  <unicode hex="004D"/>
  <anchor x="0" y="0" name="Anchor-11"/>
  <anchor x="0" y="0" name="Anchor-10"/>
  <anchor x="1053" y="1454" name="Anchor-9"/>
  <anchor x="0" y="0" name="Anchor-8"/>
  <anchor x="745" y="0" name="Anchor-7"/>
  <outline>
    <contour>
      <point x="350" y="1454" type="line"/>
      <point x="545" y="1454" type="line"/>
      <point x="836" y="510" type="line"/>
      <point x="1530" y="1454" type="line"/>
      <point x="1722" y="1454" type="line"/>
      <point x="1413" y="0" type="line"/>
      <point x="1229" y="0" type="line"/>
      <point x="1468" y="1124" type="line"/>
      <point x="836" y="262" type="line"/>
      <point x="731" y="262" type="line"/>
      <point x="465" y="1124" type="line"/>
      <point x="225" y="0" type="line"/>
      <point x="41" y="0" type="line"/>
    </contour>
  </outline>
</glyph>
<glyph name="N" format="2">
  <advance width="1513"/>
  <unicode hex="004E"/>
  <anchor x="0" y="0" name="Anchor-11"/>
  <anchor x="0" y="0" name="Anchor-10"/>
  <anchor x="967" y="1450" name="Anchor-9"/>
  <anchor x="0" y="0" name="Anchor-8"/>
  <anchor x="647" y="0" name="Anchor-7"/>
  <outline>
    <contour>
      <point x="350" y="1454" type="line"/>
      <point x="494" y="1454" type="line"/>
      <point x="1096" y="322" type="line"/>
      <point x="1335" y="1452" type="line"/>
      <point x="1520" y="1452" type="line"/>
      <point x="1210" y="0" type="line"/>
      <point x="1057" y="0" type="line"/>
      <point x="461" y="1110" type="line"/>
      <point x="225" y="0" type="line"/>
      <point x="41" y="0" type="line"/>
    </contour>
  </outline>
</glyph>
<glyph name="P" format="2">
  <advance width="1230"/>
  <unicode hex="0050"/>
  <outline>
    <contour>
      <point x="350" y="1454" type="line"/>
      <point x="928" y="1454" type="line" smooth="yes"/>
      <point x="1029" y="1454"/>
      <point x="1183" y="1343"/>
      <point x="1260" y="1169"/>
      <point x="1260" y="1069" type="qcurve" smooth="yes"/>
      <point x="1260" y="991"/>
      <point x="1207" y="831"/>
      <point x="1109" y="693"/>
      <point x="981" y="585"/>
      <point x="822" y="522"/>
      <point x="739" y="522" type="qcurve" smooth="yes"/>
      <point x="336" y="522" type="line"/>
      <point x="225" y="0" type="line"/>
      <point x="41" y="0" type="line"/>
    </contour>
    <contour>
      <point x="764" y="686" type="line" smooth="yes"/>
      <point x="845" y="686"/>
      <point x="988" y="791"/>
      <point x="1071" y="961"/>
      <point x="1071" y="1053" type="qcurve" smooth="yes"/>
      <point x="1071" y="1156"/>
      <point x="964" y="1290"/>
      <point x="881" y="1290" type="qcurve" smooth="yes"/>
      <point x="500" y="1290" type="line"/>
      <point x="371" y="686" type="line"/>
    </contour>
  </outline>
</glyph>
<glyph name="T" format="2">
  <advance width="1200"/>
  <unicode hex="0054"/>
  <anchor x="0" y="0" name="Anchor-11"/>
  <anchor x="0" y="0" name="Anchor-10"/>
  <anchor x="778" y="1450" name="Anchor-9"/>
  <anchor x="0" y="0" name="Anchor-8"/>
  <anchor x="469" y="0" name="Anchor-7"/>
  <outline>
    <contour>
      <point x="649" y="1290" type="line"/>
      <point x="176" y="1290" type="line"/>
      <point x="211" y="1454" type="line"/>
      <point x="1341" y="1454" type="line"/>
      <point x="1307" y="1290" type="line"/>
      <point x="834" y="1290" type="line"/>
      <point x="559" y="0" type="line"/>
      <point x="375" y="0" type="line"/>
    </contour>
  </outline>
</glyph>
<glyph name="V" format="2">
  <advance width="1331"/>
  <unicode hex="0056"/>
  <outline>
    <contour>
      <point x="195" y="1454" type="line"/>
      <point x="389" y="1454" type="line"/>
      <point x="578" y="231" type="line"/>
      <point x="1284" y="1454" type="line"/>
      <point x="1479" y="1454" type="line"/>
      <point x="608" y="0" type="line"/>
      <point x="449" y="0" type="line"/>
    </contour>
  </outline>
</glyph>
<glyph name="X" format="2">
  <advance width="1249"/>
  <unicode hex="0058"/>
  <outline>
    <contour>
      <point x="547" y="717" type="line"/>
      <point x="186" y="1454" type="line"/>
      <point x="391" y="1454" type="line"/>
      <point x="676" y="848" type="line"/>
      <point x="1217" y="1454" type="line"/>
      <point x="1419" y="1454" type="line"/>
      <point x="745" y="717" type="line"/>
      <point x="1094" y="0" type="line"/>
      <point x="891" y="0" type="line"/>
      <point x="618" y="586" type="line"/>
      <point x="98" y="0" type="line"/>
      <point x="-106" y="0" type="line"/>
    </contour>
  </outline>
</glyph>
<glyph name="Y" format="2">
  <advance width="1253"/>
  <unicode hex="0059"/>
  <anchor x="0" y="0" name="Anchor-11"/>
  <anchor x="0" y="0" name="Anchor-10"/>
  <anchor x="762" y="1450" name="Anchor-9"/>
  <anchor x="0" y="0" name="Anchor-8"/>
  <anchor x="0" y="0" name="Anchor-7"/>
  <outline>
    <contour>
      <point x="508" y="535" type="line"/>
      <point x="182" y="1454" type="line"/>
      <point x="385" y="1454" type="line"/>
      <point x="635" y="696" type="line"/>
      <point x="1210" y="1454" type="line"/>
      <point x="1411" y="1454" type="line"/>
      <point x="690" y="530" type="line"/>
      <point x="578" y="0" type="line"/>
      <point x="393" y="0" type="line"/>
    </contour>
  </outline>
</glyph>
<glyph name="bracketleft" format="2">
  <advance width="542"/>
  <unicode hex="005B"/>
  <outline>
    <contour>
      <point x="20" y="-82" type="line"/>
      <point x="360" y="1516" type="line"/>
      <point x="641" y="1516" type="line"/>
      <point x="610" y="1368" type="line"/>
      <point x="496" y="1368" type="line"/>
      <point x="219" y="66" type="line"/>
      <point x="334" y="66" type="line"/>
      <point x="303" y="-82" type="line"/>
    </contour>
  </outline>
</glyph>
<glyph name="backslash" format="2">
  <advance width="1138"/>
  <unicode hex="005C"/>
  <outline>
    <contour>
      <point x="424" y="1454" type="line"/>
      <point x="961" y="0" type="line"/>
      <point x="760" y="0" type="line"/>
      <point x="221" y="1454" type="line"/>
    </contour>
  </outline>
</glyph>
<glyph name="bracketright" format="2">
  <advance width="542"/>
  <unicode hex="005D"/>
  <outline>
    <contour>
      <point x="-55" y="-82" type="line"/>
      <point x="-25" y="66" type="line"/>
      <point x="90" y="66" type="line"/>
      <point x="367" y="1368" type="line"/>
      <point x="252" y="1368" type="line"/>
      <point x="285" y="1516" type="line"/>
      <point x="565" y="1516" type="line"/>
      <point x="227" y="-82" type="line"/>
    </contour>
  </outline>
</glyph>
<glyph name="asciicircum" format="2">
  <advance width="1138"/>
  <unicode hex="005E"/>
  <outline>
    <contour>
      <point x="104" y="621" type="line"/>
      <point x="510" y="1454" type="line"/>
      <point x="662" y="1454" type="line"/>
      <point x="1065" y="621" type="line"/>
      <point x="911" y="621" type="line"/>
      <point x="586" y="1292" type="line"/>
      <point x="254" y="621" type="line"/>
    </contour>
  </outline>
</glyph>
<glyph name="underscore" format="2">
  <advance width="989"/>
  <unicode hex="005F"/>
  <outline>
    <contour>
      <point x="-39" y="-164" type="line"/>
      <point x="-4" y="0" type="line"/>
      <point x="727" y="0" type="line"/>
      <point x="692" y="-164" type="line"/>
    </contour>
  </outline>
</glyph>
<glyph name="grave" format="2">
  <advance width="495"/>
  <unicode hex="0060"/>
  <anchor x="457" y="1495" name="Anchor-13"/>
  <outline>
    <contour>
      <point x="307" y="1495" type="line"/>
      <point x="483" y="1495" type="line"/>
      <point x="553" y="1288" type="line"/>
      <point x="428" y="1247" type="line"/>
    </contour>
  </outline>
</glyph>
<glyph name="b" format="2">
  <advance width="1226"/>
  <unicode hex="0062"/>
  <outline>
    <contour>
      <point x="213" y="201" type="qcurve"/>
      <point x="170" y="0" type="line"/>
      <point x="10" y="0" type="line"/>
      <point x="328" y="1495" type="line"/>
      <point x="508" y="1495" type="line"/>
      <point x="373" y="856" type="line"/>
      <point x="461" y="964"/>
      <point x="676" y="1087"/>
      <point x="791" y="1087" type="qcurve" smooth="yes"/>
      <point x="877" y="1087"/>
      <point x="1015" y="1016"/>
      <point x="1101" y="894"/>
      <point x="1147" y="738"/>
      <point x="1147" y="651" type="qcurve" smooth="yes"/>
      <point x="1147" y="520"/>
      <point x="1043" y="270"/>
      <point x="874" y="90"/>
      <point x="652" y="-20"/>
      <point x="539" y="-20" type="qcurve" smooth="yes"/>
      <point x="417" y="-20"/>
      <point x="248" y="100"/>
    </contour>
    <contour>
      <point x="956" y="618" type="qcurve" smooth="yes"/>
      <point x="956" y="748"/>
      <point x="821" y="932"/>
      <point x="705" y="932" type="qcurve" smooth="yes"/>
      <point x="604" y="932"/>
      <point x="406" y="790"/>
      <point x="336" y="682" type="qcurve"/>
      <point x="270" y="373" type="line"/>
      <point x="270" y="275"/>
      <point x="425" y="135"/>
      <point x="532" y="135" type="qcurve" smooth="yes"/>
      <point x="637" y="135"/>
      <point x="835" y="272"/>
      <point x="956" y="497"/>
    </contour>
  </outline>
</glyph>
<glyph name="c" format="2">
  <advance width="1087"/>
  <unicode hex="0063"/>
  <anchor x="0" y="0" name="Anchor-11"/>
  <anchor x="0" y="0" name="Anchor-10"/>
  <anchor x="694" y="1069" name="Anchor-9"/>
  <anchor x="0" y="0" name="Anchor-8"/>
  <anchor x="496" y="0" name="Anchor-7"/>
  <outline>
    <contour>
      <point x="45" y="432" type="qcurve" smooth="yes"/>
      <point x="45" y="602"/>
      <point x="212" y="902"/>
      <point x="512" y="1087"/>
      <point x="690" y="1087" type="qcurve" smooth="yes"/>
      <point x="843" y="1087"/>
      <point x="1037" y="949"/>
      <point x="1069" y="827" type="qcurve"/>
      <point x="883" y="772" type="line"/>
      <point x="858" y="850"/>
      <point x="743" y="932"/>
      <point x="659" y="932" type="qcurve" smooth="yes"/>
      <point x="551" y="932"/>
      <point x="353" y="804"/>
      <point x="231" y="582"/>
      <point x="231" y="455" type="qcurve" smooth="yes"/>
      <point x="231" y="316"/>
      <point x="374" y="135"/>
      <point x="489" y="135" type="qcurve" smooth="yes"/>
      <point x="576" y="135"/>
      <point x="751" y="233"/>
      <point x="788" y="301" type="qcurve"/>
      <point x="954" y="248" type="line"/>
      <point x="883" y="129"/>
      <point x="614" y="-20"/>
      <point x="465" y="-20" type="qcurve" smooth="yes"/>
      <point x="334" y="-20"/>
      <point x="141" y="103"/>
      <point x="45" y="305"/>
    </contour>
  </outline>
</glyph>
<glyph name="d" format="2">
  <advance width="1241"/>
  <unicode hex="0064"/>
  <anchor x="1313" y="1069" name="Anchor-11"/>
  <anchor x="621" y="535" name="Anchor-10"/>
  <anchor x="733" y="1069" name="Anchor-9"/>
  <anchor x="0" y="0" name="Anchor-8"/>
  <anchor x="508" y="0" name="Anchor-7"/>
  <outline>
    <contour>
      <point x="45" y="424" type="qcurve" smooth="yes"/>
      <point x="45" y="550"/>
      <point x="143" y="793"/>
      <point x="304" y="975"/>
      <point x="523" y="1087"/>
      <point x="637" y="1087" type="qcurve" smooth="yes"/>
      <point x="755" y="1087"/>
      <point x="920" y="958"/>
      <point x="956" y="856" type="qcurve"/>
      <point x="1094" y="1495" type="line"/>
      <point x="1274" y="1495" type="line"/>
      <point x="1004" y="221" type="line" smooth="yes"/>
      <point x="999" y="196"/>
      <point x="999" y="195" type="qcurve" smooth="yes"/>
      <point x="999" y="175"/>
      <point x="1020" y="158"/>
      <point x="1044" y="156" type="qcurve"/>
      <point x="1012" y="0" type="line"/>
      <point x="950" y="-8"/>
      <point x="940" y="-8" type="qcurve" smooth="yes"/>
      <point x="885" y="-8"/>
      <point x="823" y="43"/>
      <point x="823" y="84" type="qcurve" smooth="yes"/>
      <point x="823" y="121"/>
      <point x="842" y="201" type="qcurve"/>
      <point x="763" y="99"/>
      <point x="536" y="-20"/>
      <point x="426" y="-20" type="qcurve" smooth="yes"/>
      <point x="252" y="-20"/>
      <point x="45" y="236"/>
    </contour>
    <contour>
      <point x="856" y="375" type="qcurve"/>
      <point x="920" y="682" type="line"/>
      <point x="907" y="786"/>
      <point x="751" y="932"/>
      <point x="657" y="932" type="qcurve" smooth="yes"/>
      <point x="547" y="932"/>
      <point x="350" y="789"/>
      <point x="236" y="568"/>
      <point x="236" y="453" type="qcurve" smooth="yes"/>
      <point x="236" y="318"/>
      <point x="384" y="135"/>
      <point x="504" y="135" type="qcurve" smooth="yes"/>
      <point x="597" y="135"/>
      <point x="816" y="279"/>
    </contour>
  </outline>
</glyph>
<glyph name="f" format="2">
  <advance width="684"/>
  <unicode hex="0066"/>
  <outline>
    <contour>
      <point x="258" y="928" type="line"/>
      <point x="121" y="928" type="line"/>
      <point x="152" y="1069" type="line"/>
      <point x="289" y="1069" type="line"/>
      <point x="293" y="1092" type="line" smooth="yes"/>
      <point x="331" y="1288"/>
      <point x="552" y="1516"/>
      <point x="698" y="1516" type="qcurve" smooth="yes"/>
      <point x="819" y="1516"/>
      <point x="911" y="1450" type="qcurve"/>
      <point x="838" y="1317" type="line"/>
      <point x="815" y="1337"/>
      <point x="739" y="1362"/>
      <point x="702" y="1362" type="qcurve" smooth="yes"/>
      <point x="619" y="1362"/>
      <point x="503" y="1226"/>
      <point x="475" y="1098" type="qcurve" smooth="yes"/>
      <point x="469" y="1069" type="line"/>
      <point x="737" y="1069" type="line"/>
      <point x="707" y="928" type="line"/>
      <point x="438" y="928" type="line"/>
      <point x="150" y="-434" type="line"/>
      <point x="-31" y="-434" type="line"/>
    </contour>
  </outline>
</glyph>
<glyph name="i" format="2">
  <advance width="462"/>
  <unicode hex="0069"/>
  <anchor x="0" y="0" name="Anchor-11"/>
  <anchor x="0" y="0" name="Anchor-10"/>
  <anchor x="0" y="0" name="Anchor-9"/>
  <anchor x="190" y="0" name="Anchor-8"/>
  <anchor x="98" y="0" name="Anchor-7"/>
  <outline>
    <contour>
      <point x="328" y="1495" type="line"/>
      <point x="508" y="1495" type="line"/>
      <point x="461" y="1270" type="line"/>
      <point x="281" y="1270" type="line"/>
    </contour>
    <contour>
      <point x="238" y="1069" type="line"/>
      <point x="418" y="1069" type="line"/>
      <point x="190" y="0" type="line"/>
      <point x="10" y="0" type="line"/>
    </contour>
  </outline>
</glyph>
<glyph name="n" format="2">
  <advance width="1161"/>
  <unicode hex="006E"/>
  <anchor x="0" y="0" name="Anchor-11"/>
  <anchor x="0" y="0" name="Anchor-10"/>
  <anchor x="825" y="1069" name="Anchor-9"/>
  <anchor x="0" y="0" name="Anchor-8"/>
  <anchor x="475" y="0" name="Anchor-7"/>
  <outline>
    <contour>
      <point x="238" y="1069" type="line"/>
      <point x="401" y="1069" type="line"/>
      <point x="352" y="840" type="line"/>
      <point x="435" y="953"/>
      <point x="692" y="1087"/>
      <point x="825" y="1087" type="qcurve" smooth="yes"/>
      <point x="1059" y="1087"/>
      <point x="1059" y="836" type="qcurve" smooth="yes"/>
      <point x="1059" y="768"/>
      <point x="1034" y="639" type="qcurve" smooth="yes"/>
      <point x="899" y="0" type="line"/>
      <point x="719" y="0" type="line"/>
      <point x="846" y="598" type="line" smooth="yes"/>
      <point x="864" y="686"/>
      <point x="864" y="752" type="qcurve" smooth="yes"/>
      <point x="864" y="926"/>
      <point x="719" y="926" type="qcurve" smooth="yes"/>
      <point x="615" y="926"/>
      <point x="387" y="765"/>
      <point x="328" y="645" type="qcurve"/>
      <point x="190" y="0" type="line"/>
      <point x="10" y="0" type="line"/>
    </contour>
  </outline>
</glyph>
<glyph name="p" format="2">
  <advance width="1228"/>
  <unicode hex="0070"/>
  <outline>
    <contour>
      <point x="238" y="1069" type="line"/>
      <point x="397" y="1069" type="line"/>
      <point x="354" y="868" type="line"/>
      <point x="438" y="969"/>
      <point x="657" y="1087"/>
      <point x="770" y="1087" type="qcurve" smooth="yes"/>
      <point x="941" y="1087"/>
      <point x="1147" y="828"/>
      <point x="1147" y="641" type="qcurve" smooth="yes"/>
      <point x="1147" y="473"/>
      <point x="986" y="168"/>
      <point x="713" y="-20"/>
      <point x="559" y="-20" type="qcurve" smooth="yes"/>
      <point x="439" y="-20"/>
      <point x="273" y="106"/>
      <point x="236" y="211" type="qcurve"/>
      <point x="98" y="-436" type="line"/>
      <point x="-82" y="-436" type="line"/>
    </contour>
    <contour>
      <point x="958" y="612" type="qcurve" smooth="yes"/>
      <point x="958" y="748"/>
      <point x="810" y="932"/>
      <point x="690" y="932" type="qcurve" smooth="yes"/>
      <point x="630" y="932"/>
      <point x="487" y="868"/>
      <point x="365" y="755"/>
      <point x="338" y="692" type="qcurve"/>
      <point x="272" y="387" type="line"/>
      <point x="293" y="278"/>
      <point x="438" y="135"/>
      <point x="537" y="135" type="qcurve" smooth="yes"/>
      <point x="647" y="135"/>
      <point x="844" y="278"/>
      <point x="958" y="498"/>
    </contour>
  </outline>
</glyph>
<glyph name="q" format="2">
  <advance width="1226"/>
  <unicode hex="0071"/>
  <outline>
    <contour>
      <point x="819" y="211" type="line"/>
      <point x="632" y="-20"/>
      <point x="397" y="-20" type="qcurve" smooth="yes"/>
      <point x="234" y="-20"/>
      <point x="45" y="230"/>
      <point x="45" y="416" type="qcurve" smooth="yes"/>
      <point x="45" y="547"/>
      <point x="150" y="796"/>
      <point x="320" y="977"/>
      <point x="543" y="1087"/>
      <point x="657" y="1087" type="qcurve" smooth="yes"/>
      <point x="772" y="1087"/>
      <point x="943" y="966"/>
      <point x="979" y="866" type="qcurve"/>
      <point x="1022" y="1069" type="line"/>
      <point x="1182" y="1069" type="line"/>
      <point x="862" y="-436" type="line"/>
      <point x="682" y="-436" type="line"/>
    </contour>
    <contour>
      <point x="852" y="365" type="qcurve"/>
      <point x="918" y="672" type="line"/>
      <point x="918" y="776"/>
      <point x="767" y="932"/>
      <point x="666" y="932" type="qcurve" smooth="yes"/>
      <point x="557" y="932"/>
      <point x="354" y="790"/>
      <point x="233" y="564"/>
      <point x="233" y="446" type="qcurve" smooth="yes"/>
      <point x="233" y="313"/>
      <point x="374" y="135"/>
      <point x="492" y="135" type="qcurve" smooth="yes"/>
      <point x="592" y="135"/>
      <point x="777" y="262"/>
    </contour>
  </outline>
</glyph>
<glyph name="r" format="2">
  <advance width="724"/>
  <unicode hex="0072"/>
  <anchor x="0" y="0" name="Anchor-11"/>
  <anchor x="0" y="0" name="Anchor-10"/>
  <anchor x="481" y="1069" name="Anchor-9"/>
  <anchor x="0" y="0" name="Anchor-8"/>
  <anchor x="102" y="0" name="Anchor-7"/>
  <outline>
    <contour>
      <point x="238" y="1069" type="line"/>
      <point x="406" y="1069" type="line"/>
      <point x="352" y="821" type="line"/>
      <point x="430" y="934"/>
      <point x="631" y="1071"/>
      <point x="727" y="1071" type="qcurve" smooth="yes"/>
      <point x="756" y="1071"/>
      <point x="780" y="1067" type="qcurve"/>
      <point x="748" y="911" type="line"/>
      <point x="619" y="908"/>
      <point x="395" y="775"/>
      <point x="330" y="659" type="qcurve"/>
      <point x="190" y="0" type="line"/>
      <point x="10" y="0" type="line"/>
    </contour>
  </outline>
</glyph>
<glyph name="s" format="2">
  <advance width="972"/>
  <unicode hex="0073"/>
  <anchor x="0" y="0" name="Anchor-11"/>
  <anchor x="0" y="0" name="Anchor-10"/>
  <anchor x="600" y="1069" name="Anchor-9"/>
  <anchor x="0" y="0" name="Anchor-8"/>
  <anchor x="383" y="0" name="Anchor-7"/>
  <outline>
    <contour>
      <point x="-49" y="135" type="qcurve"/>
      <point x="53" y="256" type="line"/>
      <point x="196" y="119"/>
      <point x="387" y="119" type="qcurve" smooth="yes"/>
      <point x="511" y="119"/>
      <point x="664" y="224"/>
      <point x="664" y="311" type="qcurve" smooth="yes"/>
      <point x="664" y="375"/>
      <point x="570" y="432"/>
      <point x="442" y="469" type="qcurve" smooth="yes"/>
      <point x="427" y="473"/>
      <point x="420" y="475" type="qcurve" smooth="yes"/>
      <point x="369" y="490"/>
      <point x="309" y="509"/>
      <point x="237" y="536"/>
      <point x="198" y="560"/>
      <point x="156" y="594"/>
      <point x="136" y="634"/>
      <point x="123" y="685"/>
      <point x="123" y="717" type="qcurve" smooth="yes"/>
      <point x="123" y="824"/>
      <point x="245" y="994"/>
      <point x="456" y="1087"/>
      <point x="586" y="1087" type="qcurve" smooth="yes"/>
      <point x="816" y="1087"/>
      <point x="944" y="946" type="qcurve"/>
      <point x="840" y="838" type="line"/>
      <point x="788" y="897"/>
      <point x="662" y="950"/>
      <point x="578" y="950" type="qcurve" smooth="yes"/>
      <point x="455" y="950"/>
      <point x="301" y="850"/>
      <point x="301" y="758" type="qcurve" smooth="yes"/>
      <point x="301" y="697"/>
      <point x="381" y="646"/>
      <point x="504" y="612" type="qcurve" smooth="yes"/>
      <point x="577" y="592"/>
      <point x="674" y="558"/>
      <point x="764" y="511"/>
      <point x="816" y="457"/>
      <point x="846" y="382"/>
      <point x="846" y="334" type="qcurve" smooth="yes"/>
      <point x="846" y="182"/>
      <point x="584" y="-20"/>
      <point x="371" y="-20" type="qcurve" smooth="yes"/>
      <point x="241" y="-20"/>
      <point x="19" y="61"/>
    </contour>
  </outline>
</glyph>
<glyph name="v" format="2">
  <advance width="1040"/>
  <unicode hex="0076"/>
  <outline>
    <contour>
      <point x="115" y="1069" type="line"/>
      <point x="301" y="1069" type="line"/>
      <point x="422" y="158" type="line"/>
      <point x="780" y="653"/>
      <point x="887" y="1069" type="qcurve"/>
      <point x="1059" y="1069" type="line"/>
      <point x="922" y="571"/>
      <point x="479" y="0" type="qcurve"/>
      <point x="285" y="0" type="line"/>
    </contour>
  </outline>
</glyph>
<glyph name="braceleft" format="2">
  <advance width="542"/>
  <unicode hex="007B"/>
  <outline>
    <contour>
      <point x="502" y="1368" type="line"/>
      <point x="395" y="868" type="line" smooth="yes"/>
      <point x="388" y="836"/>
      <point x="344" y="765"/>
      <point x="309" y="737" type="qcurve"/>
      <point x="342" y="701"/>
      <point x="342" y="637" type="qcurve" smooth="yes"/>
      <point x="342" y="616"/>
      <point x="340" y="606" type="qcurve" smooth="yes"/>
      <point x="229" y="84" type="line"/>
      <point x="336" y="84" type="line"/>
      <point x="305" y="-63" type="line"/>
      <point x="78" y="-63" type="line" smooth="yes"/>
      <point x="45" y="-63"/>
      <point x="45" y="-25" type="qcurve" smooth="yes"/>
      <point x="45" y="-10"/>
      <point x="47" y="-2" type="qcurve" smooth="yes"/>
      <point x="164" y="553" type="line" smooth="yes"/>
      <point x="166" y="563"/>
      <point x="166" y="584" type="qcurve" smooth="yes"/>
      <point x="166" y="619"/>
      <point x="134" y="670"/>
      <point x="106" y="674" type="qcurve"/>
      <point x="135" y="805" type="line"/>
      <point x="172" y="805"/>
      <point x="237" y="885"/>
      <point x="244" y="922" type="qcurve" smooth="yes"/>
      <point x="356" y="1454" type="line" smooth="yes"/>
      <point x="363" y="1487"/>
      <point x="400" y="1516"/>
      <point x="414" y="1516" type="qcurve" smooth="yes"/>
      <point x="641" y="1516" type="line"/>
      <point x="608" y="1368" type="line"/>
    </contour>
  </outline>
</glyph>
<glyph name="bar" format="2">
  <advance width="618"/>
  <unicode hex="007C"/>
  <outline>
    <contour>
      <point x="242" y="-266" type="line"/>
      <point x="242" y="1587" type="line"/>
      <point x="397" y="1587" type="line"/>
      <point x="397" y="-266" type="line"/>
    </contour>
  </outline>
</glyph>
<glyph name="braceright" format="2">
  <advance width="540"/>
  <unicode hex="007D"/>
  <outline>
    <contour>
      <point x="254" y="1368" type="line"/>
      <point x="285" y="1516" type="line"/>
      <point x="510" y="1516" type="line" smooth="yes"/>
      <point x="521" y="1516"/>
      <point x="545" y="1496"/>
      <point x="545" y="1473" type="qcurve" smooth="yes"/>
      <point x="545" y="1460"/>
      <point x="543" y="1454" type="qcurve" smooth="yes"/>
      <point x="428" y="922" type="line" smooth="yes"/>
      <point x="426" y="914"/>
      <point x="426" y="897" type="qcurve" smooth="yes"/>
      <point x="426" y="861"/>
      <point x="456" y="805"/>
      <point x="487" y="805" type="qcurve"/>
      <point x="459" y="674" type="line"/>
      <point x="421" y="668"/>
      <point x="359" y="598"/>
      <point x="350" y="553" type="qcurve" smooth="yes"/>
      <point x="233" y="-2" type="line" smooth="yes"/>
      <point x="226" y="-34"/>
      <point x="191" y="-63"/>
      <point x="174" y="-63" type="qcurve" smooth="yes"/>
      <point x="-51" y="-63" type="line"/>
      <point x="-20" y="84" type="line"/>
      <point x="88" y="84" type="line"/>
      <point x="199" y="606" type="line" smooth="yes"/>
      <point x="206" y="637"/>
      <point x="250" y="711"/>
      <point x="283" y="737" type="qcurve"/>
      <point x="250" y="779"/>
      <point x="250" y="836" type="qcurve" smooth="yes"/>
      <point x="250" y="848"/>
      <point x="254" y="868" type="qcurve" smooth="yes"/>
      <point x="360" y="1368" type="line"/>
    </contour>
  </outline>
</glyph>
<glyph name="asciitilde" format="2">
  <advance width="1050"/>
  <unicode hex="007E"/>
  <outline>
    <contour>
      <point x="381" y="715" type="qcurve" smooth="yes"/>
      <point x="424" y="715"/>
      <point x="508" y="678"/>
      <point x="565" y="635"/>
      <point x="643" y="598"/>
      <point x="680" y="598" type="qcurve" smooth="yes"/>
      <point x="715" y="598"/>
      <point x="778" y="628"/>
      <point x="816" y="668"/>
      <point x="837" y="699"/>
      <point x="838" y="705" type="qcurve"/>
      <point x="942" y="705" type="line"/>
      <point x="940" y="698"/>
      <point x="917" y="654"/>
      <point x="866" y="587"/>
      <point x="801" y="528"/>
      <point x="705" y="485"/>
      <point x="653" y="485" type="qcurve" smooth="yes"/>
      <point x="608" y="485"/>
      <point x="521" y="521"/>
      <point x="463" y="564"/>
      <point x="389" y="600"/>
      <point x="356" y="600" type="qcurve" smooth="yes"/>
      <point x="312" y="600"/>
      <point x="238" y="542"/>
      <point x="207" y="491"/>
      <point x="207" y="485" type="qcurve"/>
      <point x="100" y="485" type="line"/>
      <point x="103" y="497"/>
      <point x="128" y="546"/>
      <point x="178" y="614"/>
      <point x="241" y="673"/>
      <point x="333" y="715"/>
    </contour>
  </outline>
</glyph>
<glyph name="exclamdown" format="2">
  <advance width="526"/>
  <unicode hex="00A1"/>
  <outline>
    <contour>
      <point x="532" y="1462" type="line"/>
      <point x="479" y="1208" type="line"/>
      <point x="299" y="1208" type="line"/>
      <point x="352" y="1462" type="line"/>
    </contour>
    <contour>
      <point x="428" y="971" type="line"/>
      <point x="221" y="-6" type="line"/>
      <point x="41" y="-6" type="line"/>
      <point x="248" y="971" type="line"/>
    </contour>
  </outline>
</glyph>
<glyph name="cent" format="2">
  <advance width="1122"/>
  <unicode hex="00A2"/>
  <outline>
    <contour>
      <point x="360" y="-246" type="line"/>
      <point x="410" y="-18" type="line"/>
      <point x="303" y="-9"/>
      <point x="139" y="124"/>
      <point x="57" y="321"/>
      <point x="57" y="432" type="qcurve" smooth="yes"/>
      <point x="57" y="584"/>
      <point x="205" y="868"/>
      <point x="477" y="1066"/>
      <point x="643" y="1085" type="qcurve"/>
      <point x="694" y="1321" type="line"/>
      <point x="782" y="1321" type="line"/>
      <point x="733" y="1085" type="line"/>
      <point x="871" y="1081"/>
      <point x="1049" y="947"/>
      <point x="1083" y="827" type="qcurve"/>
      <point x="897" y="772" type="line"/>
      <point x="851" y="916"/>
      <point x="698" y="926" type="qcurve"/>
      <point x="532" y="139" type="line"/>
      <point x="606" y="146"/>
      <point x="771" y="236"/>
      <point x="803" y="301" type="qcurve"/>
      <point x="969" y="248" type="line"/>
      <point x="920" y="164"/>
      <point x="744" y="37"/>
      <point x="570" y="-20"/>
      <point x="498" y="-20" type="qcurve"/>
      <point x="451" y="-246" type="line"/>
    </contour>
    <contour>
      <point x="444" y="147" type="qcurve"/>
      <point x="608" y="920" type="line"/>
      <point x="458" y="900"/>
      <point x="244" y="611"/>
      <point x="244" y="453" type="qcurve" smooth="yes"/>
      <point x="244" y="340"/>
      <point x="353" y="167"/>
    </contour>
  </outline>
</glyph>
<glyph name="sterling" format="2">
  <advance width="1005"/>
  <unicode hex="00A3"/>
  <outline>
    <contour>
      <point x="707" y="1464" type="qcurve" smooth="yes"/>
      <point x="817" y="1464"/>
      <point x="989" y="1349"/>
      <point x="1032" y="1249" type="qcurve"/>
      <point x="909" y="1139" type="line"/>
      <point x="880" y="1218"/>
      <point x="749" y="1315"/>
      <point x="672" y="1315" type="qcurve" smooth="yes"/>
      <point x="571" y="1315"/>
      <point x="416" y="1158"/>
      <point x="416" y="1049" type="qcurve" smooth="yes"/>
      <point x="416" y="1010"/>
      <point x="434" y="922"/>
      <point x="468" y="800"/>
      <point x="475" y="768" type="qcurve"/>
      <point x="827" y="768" type="line"/>
      <point x="797" y="629" type="line"/>
      <point x="492" y="629" type="line"/>
      <point x="492" y="565"/>
      <point x="471" y="468"/>
      <point x="410" y="352"/>
      <point x="297" y="224"/>
      <point x="207" y="141" type="qcurve"/>
      <point x="286" y="162"/>
      <point x="354" y="162" type="qcurve" smooth="yes"/>
      <point x="408" y="162"/>
      <point x="574" y="125"/>
      <point x="618" y="125" type="qcurve" smooth="yes"/>
      <point x="684" y="125"/>
      <point x="791" y="162" type="qcurve"/>
      <point x="805" y="25" type="line"/>
      <point x="690" y="-31"/>
      <point x="578" y="-31" type="qcurve" smooth="yes"/>
      <point x="520" y="-31"/>
      <point x="312" y="20"/>
      <point x="250" y="20" type="qcurve" smooth="yes"/>
      <point x="137" y="20"/>
      <point x="18" y="-16" type="qcurve"/>
      <point x="2" y="115" type="line"/>
      <point x="189" y="272"/>
      <point x="330" y="484"/>
      <point x="330" y="610" type="qcurve" smooth="yes"/>
      <point x="330" y="629" type="line"/>
      <point x="113" y="629" type="line"/>
      <point x="141" y="768" type="line"/>
      <point x="309" y="768" type="line"/>
      <point x="305" y="785"/>
      <point x="276" y="888"/>
      <point x="264" y="936"/>
      <point x="252" y="1016"/>
      <point x="252" y="1049" type="qcurve" smooth="yes"/>
      <point x="252" y="1159"/>
      <point x="384" y="1353"/>
      <point x="593" y="1464"/>
    </contour>
  </outline>
</glyph>
<glyph name="currency" format="2">
  <advance width="1161"/>
  <unicode hex="00A4"/>
  <outline>
    <contour>
      <point x="371" y="995" type="line"/>
      <point x="465" y="1067"/>
      <point x="594" y="1067" type="qcurve" smooth="yes"/>
      <point x="719" y="1067"/>
      <point x="817" y="995" type="qcurve"/>
      <point x="963" y="1143" type="line"/>
      <point x="1047" y="1059" type="line"/>
      <point x="899" y="911" type="line"/>
      <point x="967" y="815"/>
      <point x="967" y="690" type="qcurve" smooth="yes"/>
      <point x="967" y="567"/>
      <point x="897" y="469" type="qcurve"/>
      <point x="1047" y="322" type="line"/>
      <point x="973" y="248" type="line"/>
      <point x="821" y="389" type="line"/>
      <point x="724" y="315"/>
      <point x="594" y="315" type="qcurve" smooth="yes"/>
      <point x="465" y="315"/>
      <point x="365" y="389" type="qcurve"/>
      <point x="215" y="248" type="line"/>
      <point x="141" y="322" type="line"/>
      <point x="289" y="469" type="line"/>
      <point x="221" y="569"/>
      <point x="221" y="690" type="qcurve" smooth="yes"/>
      <point x="221" y="817"/>
      <point x="287" y="911" type="qcurve"/>
      <point x="141" y="1059" type="line"/>
      <point x="225" y="1143" type="line"/>
    </contour>
    <contour>
      <point x="688" y="440"/>
      <point x="819" y="586"/>
      <point x="819" y="692" type="qcurve" smooth="yes"/>
      <point x="819" y="797"/>
      <point x="688" y="940"/>
      <point x="500" y="940"/>
      <point x="369" y="795"/>
      <point x="369" y="688" type="qcurve" smooth="yes"/>
      <point x="369" y="584"/>
      <point x="500" y="440"/>
    </contour>
  </outline>
</glyph>
<glyph name="yen" format="2">
  <advance width="1351"/>
  <unicode hex="00A5"/>
  <outline>
    <contour>
      <point x="922" y="772" type="line"/>
      <point x="1079" y="772" type="line"/>
      <point x="1053" y="649" type="line"/>
      <point x="829" y="649" type="line"/>
      <point x="737" y="530" type="line"/>
      <point x="725" y="473" type="line"/>
      <point x="1016" y="473" type="line"/>
      <point x="991" y="350" type="line"/>
      <point x="698" y="350" type="line"/>
      <point x="625" y="0" type="line"/>
      <point x="440" y="0" type="line"/>
      <point x="514" y="350" type="line"/>
      <point x="227" y="350" type="line"/>
      <point x="254" y="473" type="line"/>
      <point x="541" y="473" type="line"/>
      <point x="555" y="535" type="line"/>
      <point x="516" y="649" type="line"/>
      <point x="291" y="649" type="line"/>
      <point x="317" y="772" type="line"/>
      <point x="477" y="772" type="line"/>
      <point x="231" y="1454" type="line"/>
      <point x="432" y="1454" type="line"/>
      <point x="680" y="696" type="line"/>
      <point x="1255" y="1454" type="line"/>
      <point x="1458" y="1454" type="line"/>
    </contour>
  </outline>
</glyph>
<glyph name="brokenbar" format="2">
  <advance width="606"/>
  <unicode hex="00A6"/>
  <outline>
    <contour>
      <point x="391" y="1587" type="line"/>
      <point x="391" y="762" type="line"/>
      <point x="236" y="762" type="line"/>
      <point x="236" y="1587" type="line"/>
    </contour>
    <contour>
      <point x="391" y="559" type="line"/>
      <point x="391" y="-266" type="line"/>
      <point x="236" y="-266" type="line"/>
      <point x="236" y="559" type="line"/>
    </contour>
  </outline>
</glyph>
<glyph name="section" format="2">
  <advance width="1019"/>
  <unicode hex="00A7"/>
  <outline>
    <contour>
      <point x="850" y="270" type="qcurve" smooth="yes"/>
      <point x="850" y="181"/>
      <point x="784" y="28"/>
      <point x="680" y="-74"/>
      <point x="547" y="-147"/>
      <point x="414" y="-180"/>
      <point x="352" y="-180" type="qcurve" smooth="yes"/>
      <point x="224" y="-180"/>
      <point x="46" y="-65"/>
      <point x="-6" y="14" type="qcurve"/>
      <point x="133" y="125" type="line"/>
      <point x="234" y="-8"/>
      <point x="381" y="-8" type="qcurve" smooth="yes"/>
      <point x="446" y="-8"/>
      <point x="571" y="46"/>
      <point x="657" y="157"/>
      <point x="657" y="227" type="qcurve" smooth="yes"/>
      <point x="657" y="265"/>
      <point x="626" y="316"/>
      <point x="568" y="342"/>
      <point x="513" y="353"/>
      <point x="475" y="356" type="qcurve" smooth="yes"/>
      <point x="322" y="365"/>
      <point x="150" y="509"/>
      <point x="150" y="635" type="qcurve" smooth="yes"/>
      <point x="150" y="767"/>
      <point x="240" y="866" type="qcurve"/>
      <point x="218" y="890"/>
      <point x="190" y="982"/>
      <point x="190" y="1036" type="qcurve" smooth="yes"/>
      <point x="190" y="1154"/>
      <point x="335" y="1355"/>
      <point x="554" y="1464"/>
      <point x="668" y="1464" type="qcurve" smooth="yes"/>
      <point x="742" y="1464"/>
      <point x="859" y="1427"/>
      <point x="935" y="1361"/>
      <point x="983" y="1294"/>
      <point x="1001" y="1251" type="qcurve"/>
      <point x="848" y="1186" type="line"/>
      <point x="830" y="1245"/>
      <point x="717" y="1303"/>
      <point x="643" y="1303" type="qcurve" smooth="yes"/>
      <point x="540" y="1303"/>
      <point x="375" y="1168"/>
      <point x="375" y="1063" type="qcurve" smooth="yes"/>
      <point x="375" y="923"/>
      <point x="563" y="920" type="qcurve" smooth="yes"/>
      <point x="629" y="919"/>
      <point x="746" y="890"/>
      <point x="845" y="829"/>
      <point x="903" y="723"/>
      <point x="903" y="653" type="qcurve" smooth="yes"/>
      <point x="903" y="582"/>
      <point x="843" y="450"/>
      <point x="803" y="412" type="qcurve"/>
      <point x="850" y="371"/>
    </contour>
    <contour>
      <point x="645" y="461" type="qcurve"/>
      <point x="680" y="486"/>
      <point x="727" y="579"/>
      <point x="727" y="625" type="qcurve" smooth="yes"/>
      <point x="727" y="701"/>
      <point x="615" y="772"/>
      <point x="539" y="772" type="qcurve" smooth="yes"/>
      <point x="453" y="772"/>
      <point x="397" y="799" type="qcurve"/>
      <point x="367" y="772"/>
      <point x="324" y="683"/>
      <point x="324" y="635" type="qcurve" smooth="yes"/>
      <point x="324" y="584"/>
      <point x="372" y="521"/>
      <point x="451" y="495"/>
      <point x="532" y="484"/>
      <point x="622" y="472"/>
    </contour>
  </outline>
</glyph>
<glyph name="dieresis" format="2">
  <advance width="677"/>
  <unicode hex="00A8"/>
  <anchor x="541" y="1487" name="Anchor-13"/>
  <outline>
    <contour>
      <point x="260" y="1278" type="line"/>
      <point x="305" y="1487" type="line"/>
      <point x="457" y="1487" type="line"/>
      <point x="412" y="1278" type="line"/>
    </contour>
    <contour>
      <point x="582" y="1278" type="line"/>
      <point x="627" y="1487" type="line"/>
      <point x="776" y="1487" type="line"/>
      <point x="733" y="1278" type="line"/>
    </contour>
  </outline>
</glyph>
<glyph name="copyright" format="2">
  <advance width="1738"/>
  <unicode hex="00A9"/>
  <outline>
    <contour>
      <point x="133" y="727" type="qcurve" smooth="yes"/>
      <point x="133" y="935"/>
      <point x="329" y="1273"/>
      <point x="675" y="1464"/>
      <point x="889" y="1464" type="qcurve" smooth="yes"/>
      <point x="1019" y="1464"/>
      <point x="1254" y="1392"/>
      <point x="1441" y="1259"/>
      <point x="1579" y="1079"/>
      <point x="1653" y="852"/>
      <point x="1653" y="727" type="qcurve" smooth="yes"/>
      <point x="1653" y="570"/>
      <point x="1537" y="295"/>
      <point x="1335" y="99"/>
      <point x="1051" y="-14"/>
      <point x="889" y="-14" type="qcurve" smooth="yes"/>
      <point x="729" y="-14"/>
      <point x="448" y="99"/>
      <point x="248" y="295"/>
      <point x="133" y="570"/>
    </contour>
    <contour>
      <point x="1569" y="723" type="qcurve" smooth="yes"/>
      <point x="1569" y="910"/>
      <point x="1393" y="1214"/>
      <point x="1082" y="1386"/>
      <point x="889" y="1386" type="qcurve" smooth="yes"/>
      <point x="747" y="1386"/>
      <point x="496" y="1285"/>
      <point x="318" y="1110"/>
      <point x="215" y="864"/>
      <point x="215" y="725" type="qcurve" smooth="yes"/>
      <point x="215" y="540"/>
      <point x="389" y="237"/>
      <point x="699" y="63"/>
      <point x="1079" y="63"/>
      <point x="1389" y="228"/>
      <point x="1569" y="531"/>
    </contour>
    <contour>
      <point x="416" y="727" type="qcurve" smooth="yes"/>
      <point x="416" y="799"/>
      <point x="453" y="936"/>
      <point x="531" y="1060"/>
      <point x="641" y="1153"/>
      <point x="801" y="1208"/>
      <point x="895" y="1208" type="qcurve" smooth="yes"/>
      <point x="1039" y="1208"/>
      <point x="1258" y="1084"/>
      <point x="1307" y="971" type="qcurve"/>
      <point x="1133" y="915" type="line"/>
      <point x="1098" y="990"/>
      <point x="965" y="1053"/>
      <point x="895" y="1053" type="qcurve" smooth="yes"/>
      <point x="757" y="1053"/>
      <point x="600" y="858"/>
      <point x="600" y="727" type="qcurve" smooth="yes"/>
      <point x="600" y="629"/>
      <point x="694" y="476"/>
      <point x="828" y="403"/>
      <point x="899" y="403" type="qcurve" smooth="yes"/>
      <point x="973" y="403"/>
      <point x="1114" y="482"/>
      <point x="1145" y="547" type="qcurve"/>
      <point x="1319" y="494" type="line"/>
      <point x="1281" y="400"/>
      <point x="1054" y="248"/>
      <point x="905" y="248" type="qcurve" smooth="yes"/>
      <point x="772" y="248"/>
      <point x="550" y="367"/>
      <point x="416" y="588"/>
    </contour>
  </outline>
</glyph>
<glyph name="ordfeminine" format="2">
  <advance width="856"/>
  <unicode hex="00AA"/>
  <anchor x="0" y="0" name="Anchor-11"/>
  <anchor x="0" y="0" name="Anchor-10"/>
  <anchor x="391" y="1063" name="Anchor-9"/>
  <anchor x="0" y="0" name="Anchor-8"/>
  <anchor x="786" y="23" name="Anchor-7"/>
  <outline>
    <contour>
      <point x="150" y="891" type="qcurve" smooth="yes"/>
      <point x="150" y="1008"/>
      <point x="350" y="1161"/>
      <point x="494" y="1161" type="qcurve" smooth="yes"/>
      <point x="600" y="1161"/>
      <point x="672" y="1126" type="qcurve"/>
      <point x="682" y="1178" type="line" smooth="yes"/>
      <point x="688" y="1205"/>
      <point x="688" y="1227" type="qcurve" smooth="yes"/>
      <point x="688" y="1287"/>
      <point x="616" y="1354"/>
      <point x="549" y="1354" type="qcurve" smooth="yes"/>
      <point x="448" y="1354"/>
      <point x="311" y="1270" type="qcurve"/>
      <point x="285" y="1362" type="line"/>
      <point x="440" y="1456"/>
      <point x="582" y="1456" type="qcurve" smooth="yes"/>
      <point x="701" y="1456"/>
      <point x="831" y="1347"/>
      <point x="831" y="1245" type="qcurve" smooth="yes"/>
      <point x="831" y="1213"/>
      <point x="821" y="1161" type="qcurve" smooth="yes"/>
      <point x="764" y="893" type="line" smooth="yes"/>
      <point x="762" y="887"/>
      <point x="762" y="874" type="qcurve" smooth="yes"/>
      <point x="762" y="847"/>
      <point x="795" y="844" type="qcurve"/>
      <point x="768" y="717" type="line"/>
      <point x="738" y="711"/>
      <point x="713" y="711" type="qcurve" smooth="yes"/>
      <point x="623" y="711"/>
      <point x="623" y="776" type="qcurve" smooth="yes"/>
      <point x="623" y="789"/>
      <point x="631" y="838" type="qcurve"/>
      <point x="570" y="774"/>
      <point x="417" y="705"/>
      <point x="338" y="705" type="qcurve" smooth="yes"/>
      <point x="254" y="705"/>
      <point x="150" y="810"/>
    </contour>
    <contour>
      <point x="631" y="944" type="qcurve" smooth="yes"/>
      <point x="651" y="1042" type="line"/>
      <point x="596" y="1073"/>
      <point x="500" y="1073" type="qcurve" smooth="yes"/>
      <point x="410" y="1073"/>
      <point x="289" y="989"/>
      <point x="289" y="922" type="qcurve" smooth="yes"/>
      <point x="289" y="875"/>
      <point x="351" y="813"/>
      <point x="401" y="813" type="qcurve" smooth="yes"/>
      <point x="473" y="813"/>
      <point x="621" y="894"/>
    </contour>
  </outline>
</glyph>
<glyph name="guillemotleft" format="2">
  <advance width="1179"/>
  <unicode hex="00AB"/>
  <outline>
    <contour>
      <point x="74" y="573" type="line"/>
      <point x="647" y="944" type="line"/>
      <point x="614" y="793" type="line"/>
      <point x="209" y="530" type="line"/>
      <point x="504" y="274" type="line"/>
      <point x="471" y="123" type="line"/>
      <point x="53" y="479" type="line"/>
    </contour>
    <contour>
      <point x="553" y="573" type="line"/>
      <point x="1126" y="944" type="line"/>
      <point x="1096" y="793" type="line"/>
      <point x="690" y="530" type="line"/>
      <point x="985" y="274" type="line"/>
      <point x="952" y="123" type="line"/>
      <point x="535" y="479" type="line"/>
    </contour>
  </outline>
</glyph>
<glyph name="logicalnot" format="2">
  <advance width="1169"/>
  <unicode hex="00AC"/>
  <outline>
    <contour>
      <point x="1059" y="768" type="line"/>
      <point x="946" y="246" type="line"/>
      <point x="793" y="246" type="line"/>
      <point x="868" y="604" type="line"/>
      <point x="133" y="604" type="line"/>
      <point x="168" y="768" type="line"/>
    </contour>
  </outline>
</glyph>
<glyph name="sfthyphen" format="2">
  <advance width="1146"/>
  <unicode hex="00AD"/>
  <outline>
    <contour>
      <point x="98" y="477" type="line"/>
      <point x="133" y="641" type="line"/>
      <point x="1024" y="641" type="line"/>
      <point x="989" y="477" type="line"/>
    </contour>
  </outline>
</glyph>
<glyph name="registered" format="2">
  <advance width="1738"/>
  <unicode hex="00AE"/>
  <outline>
    <contour>
      <point x="133" y="727" type="qcurve" smooth="yes"/>
      <point x="133" y="883"/>
      <point x="248" y="1157"/>
      <point x="448" y="1352"/>
      <point x="730" y="1464"/>
      <point x="1052" y="1464"/>
      <point x="1335" y="1352"/>
      <point x="1537" y="1157"/>
      <point x="1653" y="883"/>
      <point x="1653" y="727" type="qcurve" smooth="yes"/>
      <point x="1653" y="570"/>
      <point x="1537" y="295"/>
      <point x="1335" y="99"/>
      <point x="1052" y="-14"/>
      <point x="730" y="-14"/>
      <point x="448" y="99"/>
      <point x="248" y="295"/>
      <point x="133" y="570"/>
    </contour>
    <contour>
      <point x="1567" y="725" type="qcurve" smooth="yes"/>
      <point x="1567" y="864"/>
      <point x="1464" y="1109"/>
      <point x="1286" y="1284"/>
      <point x="1034" y="1386"/>
      <point x="748" y="1386"/>
      <point x="497" y="1284"/>
      <point x="320" y="1109"/>
      <point x="219" y="865"/>
      <point x="219" y="727" type="qcurve" smooth="yes"/>
      <point x="219" y="587"/>
      <point x="320" y="341"/>
      <point x="497" y="164"/>
      <point x="748" y="61"/>
      <point x="891" y="61" type="qcurve" smooth="yes"/>
      <point x="1080" y="61"/>
      <point x="1388" y="227"/>
      <point x="1567" y="532"/>
    </contour>
    <contour>
      <point x="573" y="1186" type="line"/>
      <point x="967" y="1186" type="line" smooth="yes"/>
      <point x="1084" y="1186"/>
      <point x="1245" y="1003"/>
      <point x="1245" y="891" type="qcurve" smooth="yes"/>
      <point x="1245" y="795"/>
      <point x="1136" y="639"/>
      <point x="1049" y="618" type="qcurve"/>
      <point x="1272" y="266" type="line"/>
      <point x="1122" y="266" type="line"/>
      <point x="913" y="598" type="line"/>
      <point x="707" y="598" type="line"/>
      <point x="707" y="266" type="line"/>
      <point x="573" y="266" type="line"/>
    </contour>
    <contour>
      <point x="961" y="715" type="line" smooth="yes"/>
      <point x="1033" y="715"/>
      <point x="1114" y="813"/>
      <point x="1114" y="891" type="qcurve" smooth="yes"/>
      <point x="1114" y="968"/>
      <point x="1023" y="1065"/>
      <point x="954" y="1065" type="qcurve" smooth="yes"/>
      <point x="707" y="1065" type="line"/>
      <point x="707" y="715" type="line"/>
    </contour>
  </outline>
</glyph>
<glyph name="macron" format="2">
  <advance width="776"/>
  <unicode hex="00AF"/>
  <anchor x="584" y="1454" name="Anchor-13"/>
  <outline>
    <contour>
      <point x="272" y="1335" type="line"/>
      <point x="297" y="1454" type="line"/>
      <point x="868" y="1454" type="line"/>
      <point x="842" y="1335" type="line"/>
    </contour>
  </outline>
</glyph>
<glyph name="degree" format="2">
  <advance width="542"/>
  <unicode hex="00B0"/>
  <outline>
    <contour>
      <point x="231" y="1262" type="qcurve" smooth="yes"/>
      <point x="231" y="1347"/>
      <point x="362" y="1483"/>
      <point x="451" y="1483" type="qcurve" smooth="yes"/>
      <point x="514" y="1483"/>
      <point x="592" y="1400"/>
      <point x="592" y="1337" type="qcurve" smooth="yes"/>
      <point x="592" y="1247"/>
      <point x="461" y="1118"/>
      <point x="373" y="1118" type="qcurve" smooth="yes"/>
      <point x="310" y="1118"/>
      <point x="231" y="1199"/>
    </contour>
    <contour>
      <point x="494" y="1317" type="qcurve" smooth="yes"/>
      <point x="494" y="1348"/>
      <point x="459" y="1386"/>
      <point x="430" y="1386" type="qcurve" smooth="yes"/>
      <point x="392" y="1386"/>
      <point x="328" y="1325"/>
      <point x="328" y="1286" type="qcurve" smooth="yes"/>
      <point x="328" y="1253"/>
      <point x="363" y="1214"/>
      <point x="393" y="1214" type="qcurve" smooth="yes"/>
      <point x="429" y="1214"/>
      <point x="494" y="1277"/>
    </contour>
  </outline>
</glyph>
<glyph name="plusminus" format="2">
  <advance width="993"/>
  <unicode hex="00B1"/>
  <outline>
    <contour>
      <point x="811" y="827" type="line"/>
      <point x="811" y="680" type="line"/>
      <point x="553" y="680" type="line"/>
      <point x="553" y="401" type="line"/>
      <point x="389" y="401" type="line"/>
      <point x="389" y="680" type="line"/>
      <point x="131" y="680" type="line"/>
      <point x="131" y="827" type="line"/>
      <point x="389" y="827" type="line"/>
      <point x="389" y="1106" type="line"/>
      <point x="553" y="1106" type="line"/>
      <point x="553" y="827" type="line"/>
    </contour>
    <contour>
      <point x="131" y="104" type="line"/>
      <point x="131" y="252" type="line"/>
      <point x="811" y="252" type="line"/>
      <point x="811" y="104" type="line"/>
    </contour>
  </outline>
</glyph>
<glyph name="twosuperior" format="2">
  <advance width="784"/>
  <unicode hex="00B2"/>
  <outline>
    <contour>
      <point x="111" y="819" type="line"/>
      <point x="144" y="977"/>
      <point x="296" y="1149"/>
      <point x="442" y="1204" type="qcurve" smooth="yes"/>
      <point x="459" y="1210"/>
      <point x="531" y="1236"/>
      <point x="570" y="1251"/>
      <point x="633" y="1278"/>
      <point x="668" y="1299"/>
      <point x="713" y="1332"/>
      <point x="736" y="1365"/>
      <point x="752" y="1409"/>
      <point x="752" y="1434" type="qcurve" smooth="yes"/>
      <point x="752" y="1550"/>
      <point x="606" y="1550" type="qcurve" smooth="yes"/>
      <point x="522" y="1550"/>
      <point x="372" y="1480"/>
      <point x="324" y="1436" type="qcurve"/>
      <point x="268" y="1522" type="line"/>
      <point x="284" y="1539"/>
      <point x="343" y="1581"/>
      <point x="435" y="1629"/>
      <point x="563" y="1661"/>
      <point x="631" y="1661" type="qcurve" smooth="yes"/>
      <point x="753" y="1661"/>
      <point x="881" y="1551"/>
      <point x="881" y="1458" type="qcurve" smooth="yes"/>
      <point x="881" y="1340"/>
      <point x="726" y="1192"/>
      <point x="553" y="1135" type="qcurve" smooth="yes"/>
      <point x="343" y="1067"/>
      <point x="313" y="930" type="qcurve"/>
      <point x="774" y="930" type="line"/>
      <point x="750" y="819" type="line"/>
    </contour>
  </outline>
</glyph>
<glyph name="threesuperior" format="2">
  <advance width="776"/>
  <unicode hex="00B3"/>
  <outline>
    <contour>
      <point x="143" y="985" type="qcurve"/>
      <point x="221" y="1047" type="line"/>
      <point x="221" y="998"/>
      <point x="337" y="907"/>
      <point x="434" y="907" type="qcurve" smooth="yes"/>
      <point x="533" y="907"/>
      <point x="682" y="1004"/>
      <point x="682" y="1071" type="qcurve" smooth="yes"/>
      <point x="682" y="1131"/>
      <point x="544" y="1196"/>
      <point x="422" y="1196" type="qcurve" smooth="yes"/>
      <point x="377" y="1196" type="line"/>
      <point x="397" y="1298" type="line"/>
      <point x="442" y="1298" type="line" smooth="yes"/>
      <point x="578" y="1298"/>
      <point x="735" y="1372"/>
      <point x="735" y="1444" type="qcurve" smooth="yes"/>
      <point x="735" y="1495"/>
      <point x="638" y="1556"/>
      <point x="569" y="1556" type="qcurve" smooth="yes"/>
      <point x="414" y="1556"/>
      <point x="322" y="1446" type="qcurve"/>
      <point x="266" y="1534" type="line"/>
      <point x="316" y="1593"/>
      <point x="494" y="1661"/>
      <point x="590" y="1661" type="qcurve" smooth="yes"/>
      <point x="710" y="1661"/>
      <point x="858" y="1550"/>
      <point x="858" y="1464" type="qcurve" smooth="yes"/>
      <point x="858" y="1382"/>
      <point x="742" y="1273"/>
      <point x="635" y="1251" type="qcurve"/>
      <point x="710" y="1239"/>
      <point x="797" y="1142"/>
      <point x="797" y="1075" type="qcurve" smooth="yes"/>
      <point x="797" y="993"/>
      <point x="683" y="868"/>
      <point x="512" y="809"/>
      <point x="414" y="809" type="qcurve" smooth="yes"/>
      <point x="292" y="809"/>
      <point x="144" y="903"/>
    </contour>
  </outline>
</glyph>
<glyph name="acute" format="2">
  <advance width="493"/>
  <unicode hex="00B4"/>
  <anchor x="430" y="1495" name="Anchor-13"/>
  <outline>
    <contour>
      <point x="373" y="1247" type="line"/>
      <point x="262" y="1288" type="line"/>
      <point x="418" y="1495" type="line"/>
      <point x="596" y="1495" type="line"/>
    </contour>
  </outline>
</glyph>
<glyph name="mu" format="2">
  <advance width="1241"/>
  <unicode hex="00B5"/>
  <outline>
    <contour>
      <point x="254" y="1069" type="line"/>
      <point x="434" y="1069" type="line"/>
      <point x="305" y="463" type="line" smooth="yes"/>
      <point x="287" y="384"/>
      <point x="287" y="322" type="qcurve" smooth="yes"/>
      <point x="287" y="135"/>
      <point x="451" y="135" type="qcurve" smooth="yes"/>
      <point x="552" y="135"/>
      <point x="762" y="278"/>
      <point x="831" y="399" type="qcurve"/>
      <point x="975" y="1069" type="line"/>
      <point x="1155" y="1069" type="line"/>
      <point x="975" y="221" type="line" smooth="yes"/>
      <point x="971" y="201"/>
      <point x="971" y="195" type="qcurve" smooth="yes"/>
      <point x="971" y="175"/>
      <point x="993" y="158"/>
      <point x="1018" y="156" type="qcurve"/>
      <point x="983" y="0" type="line"/>
      <point x="921" y="-8"/>
      <point x="909" y="-8" type="qcurve" smooth="yes"/>
      <point x="857" y="-8"/>
      <point x="797" y="40"/>
      <point x="797" y="80" type="qcurve" smooth="yes"/>
      <point x="797" y="131"/>
      <point x="821" y="229" type="qcurve"/>
      <point x="752" y="127"/>
      <point x="518" y="-20"/>
      <point x="408" y="-20" type="qcurve" smooth="yes"/>
      <point x="325" y="-20"/>
      <point x="233" y="68"/>
      <point x="225" y="137" type="qcurve"/>
      <point x="115" y="-434" type="line"/>
      <point x="-66" y="-434" type="line"/>
    </contour>
  </outline>
</glyph>
<glyph name="paragraph" format="2">
  <advance width="1218"/>
  <unicode hex="00B6"/>
  <outline>
    <contour>
      <point x="801" y="1454" type="qcurve" smooth="yes"/>
      <point x="1309" y="1454" type="line"/>
      <point x="1278" y="1315" type="line"/>
      <point x="1143" y="1315" type="line"/>
      <point x="827" y="-164" type="line"/>
      <point x="672" y="-164" type="line"/>
      <point x="805" y="459" type="line"/>
      <point x="678" y="459" type="line"/>
      <point x="545" y="-164" type="line"/>
      <point x="389" y="-164" type="line"/>
      <point x="522" y="459" type="line"/>
      <point x="337" y="462"/>
      <point x="131" y="668"/>
      <point x="131" y="844" type="qcurve" smooth="yes"/>
      <point x="131" y="1120"/>
      <point x="495" y="1454"/>
    </contour>
    <contour>
      <point x="551" y="598" type="qcurve"/>
      <point x="705" y="1315" type="line"/>
      <point x="514" y="1312"/>
      <point x="289" y="1066"/>
      <point x="289" y="877" type="qcurve" smooth="yes"/>
      <point x="289" y="748"/>
      <point x="433" y="606"/>
    </contour>
    <contour>
      <point x="987" y="1315" type="line"/>
      <point x="860" y="1315" type="line"/>
      <point x="707" y="598" type="line"/>
      <point x="834" y="598" type="line"/>
    </contour>
  </outline>
</glyph>
<glyph name="periodcentered" format="2">
  <advance width="407"/>
  <unicode hex="00B7"/>
  <outline>
    <contour>
      <point x="102" y="502" type="line"/>
      <point x="156" y="756" type="line"/>
      <point x="307" y="756" type="line"/>
      <point x="254" y="502" type="line"/>
    </contour>
  </outline>
</glyph>
<glyph name="cedilla" format="2">
  <advance width="612"/>
  <unicode hex="00B8"/>
  <outline>
    <contour>
      <point x="115" y="-381" type="qcurve" smooth="yes"/>
      <point x="6" y="-381"/>
      <point x="-80" y="-324" type="qcurve"/>
      <point x="-8" y="-223" type="line"/>
      <point x="57" y="-268"/>
      <point x="113" y="-268" type="qcurve" smooth="yes"/>
      <point x="177" y="-268"/>
      <point x="252" y="-202"/>
      <point x="252" y="-141" type="qcurve" smooth="yes"/>
      <point x="252" y="-67"/>
      <point x="172" y="0" type="qcurve"/>
      <point x="244" y="47" type="line"/>
      <point x="356" y="-46"/>
      <point x="356" y="-156" type="qcurve" smooth="yes"/>
      <point x="356" y="-258"/>
      <point x="225" y="-381"/>
    </contour>
  </outline>
</glyph>
<glyph name="onesuperior" format="2">
  <advance width="550"/>
  <unicode hex="00B9"/>
  <outline>
    <contour>
      <point x="578" y="932" type="line"/>
      <point x="553" y="819" type="line"/>
      <point x="141" y="819" type="line"/>
      <point x="166" y="932" type="line"/>
      <point x="322" y="932" type="line"/>
      <point x="449" y="1534" type="line"/>
      <point x="419" y="1504"/>
      <point x="285" y="1434"/>
      <point x="242" y="1434" type="qcurve"/>
      <point x="266" y="1546" type="line"/>
      <point x="303" y="1546"/>
      <point x="406" y="1602"/>
      <point x="473" y="1656"/>
      <point x="475" y="1661" type="qcurve"/>
      <point x="590" y="1661" type="line"/>
      <point x="434" y="932" type="line"/>
    </contour>
  </outline>
</glyph>
<glyph name="ordmasculine" format="2">
  <advance width="882"/>
  <unicode hex="00BA"/>
  <anchor x="0" y="0" name="Anchor-11"/>
  <anchor x="0" y="0" name="Anchor-10"/>
  <anchor x="461" y="1063" name="Anchor-9"/>
  <anchor x="0" y="0" name="Anchor-8"/>
  <anchor x="459" y="0" name="Anchor-7"/>
  <outline>
    <contour>
      <point x="172" y="1008" type="qcurve" smooth="yes"/>
      <point x="172" y="1123"/>
      <point x="290" y="1330"/>
      <point x="496" y="1456"/>
      <point x="616" y="1456" type="qcurve" smooth="yes"/>
      <point x="748" y="1456"/>
      <point x="901" y="1284"/>
      <point x="901" y="1153" type="qcurve" smooth="yes"/>
      <point x="901" y="1039"/>
      <point x="784" y="833"/>
      <point x="577" y="705"/>
      <point x="457" y="705" type="qcurve" smooth="yes"/>
      <point x="324" y="705"/>
      <point x="172" y="879"/>
    </contour>
    <contour>
      <point x="754" y="1133" type="qcurve" smooth="yes"/>
      <point x="754" y="1218"/>
      <point x="663" y="1329"/>
      <point x="590" y="1329" type="qcurve" smooth="yes"/>
      <point x="486" y="1329"/>
      <point x="319" y="1148"/>
      <point x="319" y="1026" type="qcurve" smooth="yes"/>
      <point x="319" y="940"/>
      <point x="410" y="829"/>
      <point x="483" y="829" type="qcurve" smooth="yes"/>
      <point x="586" y="829"/>
      <point x="754" y="1012"/>
    </contour>
  </outline>
</glyph>
<glyph name="guillemotright" format="2">
  <advance width="1179"/>
  <unicode hex="00BB"/>
  <outline>
    <contour>
      <point x="586" y="479" type="line"/>
      <point x="16" y="123" type="line"/>
      <point x="49" y="274" type="line"/>
      <point x="453" y="530" type="line"/>
      <point x="160" y="793" type="line"/>
      <point x="190" y="944" type="line"/>
      <point x="606" y="573" type="line"/>
    </contour>
    <contour>
      <point x="1067" y="479" type="line"/>
      <point x="498" y="123" type="line"/>
      <point x="528" y="274" type="line"/>
      <point x="932" y="530" type="line"/>
      <point x="639" y="793" type="line"/>
      <point x="672" y="944" type="line"/>
      <point x="1087" y="573" type="line"/>
    </contour>
  </outline>
</glyph>
<glyph name="onequarter" format="2">
  <advance width="1667"/>
  <unicode hex="00BC"/>
  <outline>
    <contour>
      <point x="543" y="768" type="line"/>
      <point x="518" y="655" type="line"/>
      <point x="106" y="655" type="line"/>
      <point x="131" y="768" type="line"/>
      <point x="287" y="768" type="line"/>
      <point x="414" y="1370" type="line"/>
      <point x="384" y="1340"/>
      <point x="250" y="1270"/>
      <point x="207" y="1270" type="qcurve"/>
      <point x="231" y="1382" type="line"/>
      <point x="268" y="1382"/>
      <point x="371" y="1438"/>
      <point x="438" y="1492"/>
      <point x="440" y="1497" type="qcurve"/>
      <point x="555" y="1497" type="line"/>
      <point x="399" y="768" type="line"/>
    </contour>
    <contour>
      <point x="31" y="68" type="line"/>
      <point x="723" y="758" type="line"/>
      <point x="1393" y="1464" type="line"/>
      <point x="1464" y="1389" type="line"/>
      <point x="780" y="702" type="line"/>
      <point x="100" y="-10" type="line"/>
    </contour>
    <contour>
      <point x="1294" y="205" type="line"/>
      <point x="856" y="205" type="line"/>
      <point x="879" y="313" type="line"/>
      <point x="1462" y="831" type="line"/>
      <point x="1540" y="831" type="line"/>
      <point x="1430" y="315" type="line"/>
      <point x="1546" y="315" type="line"/>
      <point x="1522" y="205" type="line"/>
      <point x="1407" y="205" type="line"/>
      <point x="1364" y="0" type="line"/>
      <point x="1251" y="0" type="line"/>
    </contour>
    <contour>
      <point x="1323" y="315" type="line"/>
      <point x="1401" y="684" type="line"/>
      <point x="995" y="315" type="line"/>
    </contour>
  </outline>
</glyph>
<glyph name="onehalf" format="2">
  <advance width="1656"/>
  <unicode hex="00BD"/>
  <outline>
    <contour>
      <point x="543" y="768" type="line"/>
      <point x="518" y="655" type="line"/>
      <point x="106" y="655" type="line"/>
      <point x="131" y="768" type="line"/>
      <point x="287" y="768" type="line"/>
      <point x="414" y="1370" type="line"/>
      <point x="384" y="1340"/>
      <point x="250" y="1270"/>
      <point x="207" y="1270" type="qcurve"/>
      <point x="231" y="1382" type="line"/>
      <point x="268" y="1382"/>
      <point x="371" y="1438"/>
      <point x="438" y="1492"/>
      <point x="440" y="1497" type="qcurve"/>
      <point x="555" y="1497" type="line"/>
      <point x="399" y="768" type="line"/>
    </contour>
    <contour>
      <point x="31" y="68" type="line"/>
      <point x="723" y="758" type="line"/>
      <point x="1393" y="1464" type="line"/>
      <point x="1464" y="1389" type="line"/>
      <point x="780" y="702" type="line"/>
      <point x="100" y="-10" type="line"/>
    </contour>
    <contour>
      <point x="838" y="0" type="line"/>
      <point x="869" y="157"/>
      <point x="1017" y="329"/>
      <point x="1157" y="385" type="qcurve" smooth="yes"/>
      <point x="1174" y="391"/>
      <point x="1243" y="417"/>
      <point x="1281" y="432"/>
      <point x="1341" y="458"/>
      <point x="1376" y="480"/>
      <point x="1418" y="512"/>
      <point x="1440" y="545"/>
      <point x="1456" y="589"/>
      <point x="1456" y="614" type="qcurve" smooth="yes"/>
      <point x="1456" y="731"/>
      <point x="1315" y="731" type="qcurve" smooth="yes"/>
      <point x="1235" y="731"/>
      <point x="1088" y="660"/>
      <point x="1042" y="616" type="qcurve"/>
      <point x="989" y="702" type="line"/>
      <point x="1006" y="720"/>
      <point x="1062" y="761"/>
      <point x="1150" y="810"/>
      <point x="1274" y="842"/>
      <point x="1339" y="842" type="qcurve" smooth="yes"/>
      <point x="1457" y="842"/>
      <point x="1581" y="731"/>
      <point x="1581" y="639" type="qcurve" smooth="yes"/>
      <point x="1581" y="521"/>
      <point x="1430" y="372"/>
      <point x="1264" y="315" type="qcurve" smooth="yes"/>
      <point x="1062" y="247"/>
      <point x="1032" y="111" type="qcurve"/>
      <point x="1477" y="111" type="line"/>
      <point x="1454" y="0" type="line"/>
    </contour>
  </outline>
</glyph>
<glyph name="questiondown" format="2">
  <advance width="935"/>
  <unicode hex="00BF"/>
  <outline>
    <contour>
      <point x="748" y="1036" type="line"/>
      <point x="696" y="799" type="line"/>
      <point x="547" y="799" type="line"/>
      <point x="596" y="1036" type="line"/>
    </contour>
    <contour>
      <point x="659" y="604" type="line"/>
      <point x="635" y="489"/>
      <point x="525" y="326"/>
      <point x="426" y="268" type="qcurve" smooth="yes"/>
      <point x="407" y="257"/>
      <point x="313" y="207"/>
      <point x="254" y="173"/>
      <point x="172" y="110"/>
      <point x="123" y="48"/>
      <point x="88" y="-45"/>
      <point x="88" y="-98" type="qcurve" smooth="yes"/>
      <point x="88" y="-187"/>
      <point x="197" y="-287"/>
      <point x="279" y="-287" type="qcurve" smooth="yes"/>
      <point x="370" y="-287"/>
      <point x="542" y="-176"/>
      <point x="600" y="-92" type="qcurve"/>
      <point x="705" y="-172" type="line"/>
      <point x="627" y="-295"/>
      <point x="374" y="-436"/>
      <point x="242" y="-436" type="qcurve" smooth="yes"/>
      <point x="107" y="-436"/>
      <point x="-76" y="-275"/>
      <point x="-76" y="-125" type="qcurve" smooth="yes"/>
      <point x="-76" y="-49"/>
      <point x="-39" y="74"/>
      <point x="13" y="156"/>
      <point x="110" y="236"/>
      <point x="188" y="282"/>
      <point x="254" y="317" type="qcurve" smooth="yes"/>
      <point x="292" y="336"/>
      <point x="326" y="355"/>
      <point x="392" y="396"/>
      <point x="427" y="433"/>
      <point x="471" y="489"/>
      <point x="499" y="560"/>
      <point x="508" y="604" type="qcurve"/>
    </contour>
  </outline>
</glyph>
<glyph name="Aacute" format="2">
  <advance width="1335"/>
  <unicode hex="00C1"/>
  <anchor x="0" y="0" name="Anchor-11"/>
  <anchor x="0" y="0" name="Anchor-10"/>
  <anchor x="997" y="1880" name="Anchor-9"/>
  <anchor x="1184" y="0" name="Anchor-8"/>
  <anchor x="555" y="0" name="Anchor-7"/>
  <outline>
    <contour>
      <point x="940" y="1632" type="line"/>
      <point x="829" y="1673" type="line"/>
      <point x="985" y="1880" type="line"/>
      <point x="1163" y="1880" type="line"/>
    </contour>
    <contour>
      <point x="774" y="1454" type="line"/>
      <point x="932" y="1454" type="line"/>
      <point x="1184" y="0" type="line"/>
      <point x="987" y="0" type="line"/>
      <point x="918" y="426" type="line"/>
      <point x="348" y="426" type="line"/>
      <point x="100" y="0" type="line"/>
      <point x="-96" y="0" type="line"/>
    </contour>
    <contour>
      <point x="909" y="569" type="line"/>
      <point x="809" y="1241" type="line"/>
      <point x="414" y="569" type="line"/>
    </contour>
  </outline>
</glyph>
<glyph name="Atilde" format="2">
  <advance width="1335"/>
  <unicode hex="00C3"/>
  <anchor x="0" y="0" name="Anchor-11"/>
  <anchor x="0" y="0" name="Anchor-10"/>
  <anchor x="950" y="1880" name="Anchor-9"/>
  <anchor x="1184" y="0" name="Anchor-8"/>
  <anchor x="555" y="0" name="Anchor-7"/>
  <outline>
    <contour>
      <point x="793" y="1755" type="qcurve" smooth="yes"/>
      <point x="754" y="1755"/>
      <point x="697" y="1707"/>
      <point x="678" y="1665"/>
      <point x="678" y="1657" type="qcurve"/>
      <point x="571" y="1657" type="line"/>
      <point x="575" y="1675"/>
      <point x="607" y="1736"/>
      <point x="664" y="1813"/>
      <point x="759" y="1868"/>
      <point x="813" y="1868" type="qcurve" smooth="yes"/>
      <point x="850" y="1868"/>
      <point x="915" y="1840"/>
      <point x="955" y="1808"/>
      <point x="1013" y="1780"/>
      <point x="1044" y="1780" type="qcurve" smooth="yes"/>
      <point x="1078" y="1780"/>
      <point x="1132" y="1808"/>
      <point x="1161" y="1848"/>
      <point x="1174" y="1873"/>
      <point x="1176" y="1880" type="qcurve"/>
      <point x="1280" y="1880" type="line"/>
      <point x="1277" y="1864"/>
      <point x="1244" y="1802"/>
      <point x="1185" y="1725"/>
      <point x="1084" y="1669"/>
      <point x="1026" y="1669" type="qcurve" smooth="yes"/>
      <point x="987" y="1669"/>
      <point x="918" y="1696"/>
      <point x="876" y="1728"/>
      <point x="821" y="1755"/>
    </contour>
    <contour>
      <point x="774" y="1454" type="line"/>
      <point x="932" y="1454" type="line"/>
      <point x="1184" y="0" type="line"/>
      <point x="987" y="0" type="line"/>
      <point x="918" y="426" type="line"/>
      <point x="348" y="426" type="line"/>
      <point x="100" y="0" type="line"/>
      <point x="-96" y="0" type="line"/>
    </contour>
    <contour>
      <point x="909" y="569" type="line"/>
      <point x="809" y="1241" type="line"/>
      <point x="414" y="569" type="line"/>
    </contour>
  </outline>
</glyph>
<glyph name="Aring" format="2">
  <advance width="1335"/>
  <unicode hex="00C5"/>
  <anchor x="0" y="0" name="Anchor-11"/>
  <anchor x="0" y="0" name="Anchor-10"/>
  <anchor x="950" y="1880" name="Anchor-9"/>
  <anchor x="1184" y="0" name="Anchor-8"/>
  <anchor x="555" y="0" name="Anchor-7"/>
  <outline>
    <contour>
      <point x="950" y="1880" type="qcurve" smooth="yes"/>
      <point x="1012" y="1880"/>
      <point x="1083" y="1818"/>
      <point x="1083" y="1765" type="qcurve" smooth="yes"/>
      <point x="1083" y="1692"/>
      <point x="973" y="1597"/>
      <point x="889" y="1597" type="qcurve" smooth="yes"/>
      <point x="828" y="1597"/>
      <point x="756" y="1659"/>
      <point x="756" y="1712" type="qcurve" smooth="yes"/>
      <point x="756" y="1786"/>
      <point x="869" y="1880"/>
    </contour>
    <contour>
      <point x="840" y="1724" type="qcurve" smooth="yes"/>
      <point x="840" y="1697"/>
      <point x="874" y="1661"/>
      <point x="903" y="1661" type="qcurve" smooth="yes"/>
      <point x="939" y="1661"/>
      <point x="1001" y="1715"/>
      <point x="1001" y="1753" type="qcurve" smooth="yes"/>
      <point x="1001" y="1782"/>
      <point x="965" y="1817"/>
      <point x="936" y="1817" type="qcurve" smooth="yes"/>
      <point x="898" y="1817"/>
      <point x="840" y="1763"/>
    </contour>
    <contour>
      <point x="774" y="1454" type="line"/>
      <point x="932" y="1454" type="line"/>
      <point x="1184" y="0" type="line"/>
      <point x="987" y="0" type="line"/>
      <point x="918" y="426" type="line"/>
      <point x="348" y="426" type="line"/>
      <point x="100" y="0" type="line"/>
      <point x="-96" y="0" type="line"/>
    </contour>
    <contour>
      <point x="909" y="569" type="line"/>
      <point x="809" y="1241" type="line"/>
      <point x="414" y="569" type="line"/>
    </contour>
  </outline>
</glyph>
<glyph name="Ecircumflex" format="2">
  <advance width="1187"/>
  <unicode hex="00CA"/>
  <anchor x="0" y="0" name="Anchor-11"/>
  <anchor x="0" y="0" name="Anchor-10"/>
  <anchor x="866" y="1880" name="Anchor-9"/>
  <anchor x="981" y="0" name="Anchor-8"/>
  <anchor x="481" y="0" name="Anchor-7"/>
  <outline>
    <contour>
      <point x="578" y="1696" type="line"/>
      <point x="815" y="1880" type="line"/>
      <point x="946" y="1880" type="line"/>
      <point x="1104" y="1696" type="line"/>
      <point x="995" y="1647" type="line"/>
      <point x="858" y="1776" type="line"/>
      <point x="666" y="1647" type="line"/>
    </contour>
    <contour>
      <point x="350" y="1454" type="line"/>
      <point x="1272" y="1454" type="line"/>
      <point x="1237" y="1290" type="line"/>
      <point x="500" y="1290" type="line"/>
      <point x="399" y="819" type="line"/>
      <point x="1040" y="819" type="line"/>
      <point x="1008" y="666" type="line"/>
      <point x="367" y="666" type="line"/>
      <point x="260" y="164" type="line"/>
      <point x="1016" y="164" type="line"/>
      <point x="981" y="0" type="line"/>
      <point x="41" y="0" type="line"/>
    </contour>
  </outline>
</glyph>
<glyph name="Edieresis" format="2">
  <advance width="1187"/>
  <unicode hex="00CB"/>
  <anchor x="0" y="0" name="Anchor-11"/>
  <anchor x="0" y="0" name="Anchor-10"/>
  <anchor x="879" y="1872" name="Anchor-9"/>
  <anchor x="981" y="0" name="Anchor-8"/>
  <anchor x="481" y="0" name="Anchor-7"/>
  <outline>
    <contour>
      <point x="598" y="1663" type="line"/>
      <point x="643" y="1872" type="line"/>
      <point x="795" y="1872" type="line"/>
      <point x="750" y="1663" type="line"/>
    </contour>
    <contour>
      <point x="920" y="1663" type="line"/>
      <point x="965" y="1872" type="line"/>
      <point x="1114" y="1872" type="line"/>
      <point x="1071" y="1663" type="line"/>
    </contour>
    <contour>
      <point x="350" y="1454" type="line"/>
      <point x="1272" y="1454" type="line"/>
      <point x="1237" y="1290" type="line"/>
      <point x="500" y="1290" type="line"/>
      <point x="399" y="819" type="line"/>
      <point x="1040" y="819" type="line"/>
      <point x="1008" y="666" type="line"/>
      <point x="367" y="666" type="line"/>
      <point x="260" y="164" type="line"/>
      <point x="1016" y="164" type="line"/>
      <point x="981" y="0" type="line"/>
      <point x="41" y="0" type="line"/>
    </contour>
  </outline>
</glyph>
<glyph name="Igrave" format="2">
  <advance width="528"/>
  <unicode hex="00CC"/>
  <anchor x="0" y="0" name="Anchor-11"/>
  <anchor x="0" y="0" name="Anchor-10"/>
  <anchor x="406" y="1880" name="Anchor-9"/>
  <anchor x="225" y="0" name="Anchor-8"/>
  <anchor x="133" y="0" name="Anchor-7"/>
  <outline>
    <contour>
      <point x="256" y="1880" type="line"/>
      <point x="432" y="1880" type="line"/>
      <point x="502" y="1673" type="line"/>
      <point x="377" y="1632" type="line"/>
    </contour>
    <contour>
      <point x="350" y="1452" type="line"/>
      <point x="535" y="1452" type="line"/>
      <point x="225" y="0" type="line"/>
      <point x="41" y="0" type="line"/>
    </contour>
  </outline>
</glyph>
<glyph name="Iacute" format="2">
  <advance width="528"/>
  <unicode hex="00CD"/>
  <anchor x="0" y="0" name="Anchor-11"/>
  <anchor x="0" y="0" name="Anchor-10"/>
  <anchor x="582" y="1880" name="Anchor-9"/>
  <anchor x="225" y="0" name="Anchor-8"/>
  <anchor x="133" y="0" name="Anchor-7"/>
  <outline>
    <contour>
      <point x="524" y="1632" type="line"/>
      <point x="414" y="1673" type="line"/>
      <point x="569" y="1880" type="line"/>
      <point x="748" y="1880" type="line"/>
    </contour>
    <contour>
      <point x="350" y="1452" type="line"/>
      <point x="535" y="1452" type="line"/>
      <point x="225" y="0" type="line"/>
      <point x="41" y="0" type="line"/>
    </contour>
  </outline>
</glyph>
<glyph name="Icircumflex" format="2">
  <advance width="528"/>
  <unicode hex="00CE"/>
  <anchor x="0" y="0" name="Anchor-11"/>
  <anchor x="0" y="0" name="Anchor-10"/>
  <anchor x="520" y="1880" name="Anchor-9"/>
  <anchor x="225" y="0" name="Anchor-8"/>
  <anchor x="133" y="0" name="Anchor-7"/>
  <outline>
    <contour>
      <point x="231" y="1696" type="line"/>
      <point x="469" y="1880" type="line"/>
      <point x="600" y="1880" type="line"/>
      <point x="758" y="1696" type="line"/>
      <point x="649" y="1647" type="line"/>
      <point x="512" y="1776" type="line"/>
      <point x="319" y="1647" type="line"/>
    </contour>
    <contour>
      <point x="350" y="1452" type="line"/>
      <point x="535" y="1452" type="line"/>
      <point x="225" y="0" type="line"/>
      <point x="41" y="0" type="line"/>
    </contour>
  </outline>
</glyph>
<glyph name="Idieresis" format="2">
  <advance width="528"/>
  <unicode hex="00CF"/>
  <anchor x="0" y="0" name="Anchor-11"/>
  <anchor x="0" y="0" name="Anchor-10"/>
  <anchor x="532" y="1872" name="Anchor-9"/>
  <anchor x="225" y="0" name="Anchor-8"/>
  <anchor x="133" y="0" name="Anchor-7"/>
  <outline>
    <contour>
      <point x="252" y="1663" type="line"/>
      <point x="297" y="1872" type="line"/>
      <point x="449" y="1872" type="line"/>
      <point x="403" y="1663" type="line"/>
    </contour>
    <contour>
      <point x="573" y="1663" type="line"/>
      <point x="618" y="1872" type="line"/>
      <point x="768" y="1872" type="line"/>
      <point x="725" y="1663" type="line"/>
    </contour>
    <contour>
      <point x="350" y="1452" type="line"/>
      <point x="535" y="1452" type="line"/>
      <point x="225" y="0" type="line"/>
      <point x="41" y="0" type="line"/>
    </contour>
  </outline>
</glyph>
<glyph name="Ntilde" format="2">
  <advance width="1513"/>
  <unicode hex="00D1"/>
  <anchor x="0" y="0" name="Anchor-11"/>
  <anchor x="0" y="0" name="Anchor-10"/>
  <anchor x="1059" y="1876" name="Anchor-9"/>
  <anchor x="0" y="0" name="Anchor-8"/>
  <anchor x="647" y="0" name="Anchor-7"/>
  <outline>
    <contour>
      <point x="901" y="1751" type="qcurve" smooth="yes"/>
      <point x="862" y="1751"/>
      <point x="805" y="1703"/>
      <point x="786" y="1661"/>
      <point x="786" y="1653" type="qcurve"/>
      <point x="680" y="1653" type="line"/>
      <point x="684" y="1671"/>
      <point x="716" y="1732"/>
      <point x="773" y="1809"/>
      <point x="868" y="1864"/>
      <point x="922" y="1864" type="qcurve" smooth="yes"/>
      <point x="959" y="1864"/>
      <point x="1024" y="1836"/>
      <point x="1064" y="1804"/>
      <point x="1122" y="1776"/>
      <point x="1153" y="1776" type="qcurve" smooth="yes"/>
      <point x="1187" y="1776"/>
      <point x="1241" y="1804"/>
      <point x="1269" y="1844"/>
      <point x="1282" y="1869"/>
      <point x="1284" y="1876" type="qcurve"/>
      <point x="1389" y="1876" type="line"/>
      <point x="1386" y="1860"/>
      <point x="1353" y="1798"/>
      <point x="1294" y="1721"/>
      <point x="1193" y="1665"/>
      <point x="1135" y="1665" type="qcurve" smooth="yes"/>
      <point x="1085" y="1665"/>
      <point x="1004" y="1708"/>
      <point x="935" y="1751"/>
    </contour>
    <contour>
      <point x="350" y="1454" type="line"/>
      <point x="494" y="1454" type="line"/>
      <point x="1096" y="322" type="line"/>
      <point x="1335" y="1452" type="line"/>
      <point x="1520" y="1452" type="line"/>
      <point x="1210" y="0" type="line"/>
      <point x="1057" y="0" type="line"/>
      <point x="461" y="1110" type="line"/>
      <point x="225" y="0" type="line"/>
      <point x="41" y="0" type="line"/>
    </contour>
  </outline>
</glyph>
<glyph name="multiply" format="2">
  <advance width="964"/>
  <unicode hex="00D7"/>
  <outline>
    <contour>
      <point x="819" y="322" type="line"/>
      <point x="705" y="209" type="line"/>
      <point x="467" y="446" type="line"/>
      <point x="229" y="209" type="line"/>
      <point x="117" y="324" type="line"/>
      <point x="352" y="559" type="line"/>
      <point x="121" y="793" type="line"/>
      <point x="236" y="905" type="line"/>
      <point x="467" y="674" type="line"/>
      <point x="700" y="907" type="line"/>
      <point x="813" y="793" type="line"/>
      <point x="582" y="559" type="line"/>
    </contour>
  </outline>
</glyph>
<glyph name="Oslash" format="2">
  <advance width="1476"/>
  <unicode hex="00D8"/>
  <anchor x="1137" y="1380" name="Anchor-11"/>
  <anchor x="739" y="727" name="Anchor-10"/>
  <anchor x="924" y="1450" name="Anchor-9"/>
  <anchor x="688" y="0" name="Anchor-8"/>
  <anchor x="643" y="0" name="Anchor-7"/>
  <outline>
    <contour>
      <point x="1491" y="1454" type="line"/>
      <point x="1319" y="1253" type="line"/>
      <point x="1432" y="1083"/>
      <point x="1432" y="860" type="qcurve" smooth="yes"/>
      <point x="1432" y="698"/>
      <point x="1292" y="380"/>
      <point x="1066" y="139"/>
      <point x="761" y="-10"/>
      <point x="604" y="-10" type="qcurve" smooth="yes"/>
      <point x="441" y="-10"/>
      <point x="315" y="82" type="qcurve"/>
      <point x="246" y="0" type="line"/>
      <point x="45" y="0" type="line"/>
      <point x="209" y="193" type="line"/>
      <point x="90" y="359"/>
      <point x="90" y="590" type="qcurve" smooth="yes"/>
      <point x="90" y="720"/>
      <point x="180" y="981"/>
      <point x="340" y="1199"/>
      <point x="547" y="1369"/>
      <point x="796" y="1464"/>
      <point x="922" y="1464" type="qcurve" smooth="yes"/>
      <point x="1089" y="1464"/>
      <point x="1214" y="1366" type="qcurve"/>
      <point x="1290" y="1454" type="line"/>
    </contour>
    <contour>
      <point x="279" y="606" type="qcurve" smooth="yes"/>
      <point x="279" y="457"/>
      <point x="338" y="342" type="qcurve"/>
      <point x="1092" y="1223" type="line"/>
      <point x="1007" y="1296"/>
      <point x="883" y="1296" type="qcurve" smooth="yes"/>
      <point x="761" y="1296"/>
      <point x="534" y="1172"/>
      <point x="375" y="976"/>
      <point x="279" y="728"/>
    </contour>
    <contour>
      <point x="1243" y="846" type="qcurve" smooth="yes"/>
      <point x="1243" y="990"/>
      <point x="1188" y="1100" type="qcurve"/>
      <point x="436" y="223" type="line"/>
      <point x="522" y="156"/>
      <point x="641" y="156" type="qcurve" smooth="yes"/>
      <point x="739" y="156"/>
      <point x="926" y="237"/>
      <point x="1072" y="375"/>
      <point x="1183" y="551"/>
      <point x="1243" y="750"/>
    </contour>
  </outline>
</glyph>
<glyph name="Yacute" format="2">
  <advance width="1253"/>
  <unicode hex="00DD"/>
  <anchor x="0" y="0" name="Anchor-11"/>
  <anchor x="0" y="0" name="Anchor-10"/>
  <anchor x="901" y="1876" name="Anchor-9"/>
  <anchor x="0" y="0" name="Anchor-8"/>
  <anchor x="0" y="0" name="Anchor-7"/>
  <outline>
    <contour>
      <point x="844" y="1628" type="line"/>
      <point x="733" y="1669" type="line"/>
      <point x="889" y="1876" type="line"/>
      <point x="1067" y="1876" type="line"/>
    </contour>
    <contour>
      <point x="508" y="535" type="line"/>
      <point x="182" y="1454" type="line"/>
      <point x="385" y="1454" type="line"/>
      <point x="635" y="696" type="line"/>
      <point x="1210" y="1454" type="line"/>
      <point x="1411" y="1454" type="line"/>
      <point x="690" y="530" type="line"/>
      <point x="578" y="0" type="line"/>
      <point x="393" y="0" type="line"/>
    </contour>
  </outline>
</glyph>
<glyph name="Thorn" format="2">
  <advance width="1189"/>
  <unicode hex="00DE"/>
  <outline>
    <contour>
      <point x="350" y="1454" type="line"/>
      <point x="535" y="1454" type="line"/>
      <point x="475" y="1174" type="line"/>
      <point x="831" y="1174" type="line" smooth="yes"/>
      <point x="982" y="1174"/>
      <point x="1165" y="944"/>
      <point x="1165" y="788" type="qcurve" smooth="yes"/>
      <point x="1165" y="656"/>
      <point x="1025" y="404"/>
      <point x="782" y="242"/>
      <point x="645" y="242" type="qcurve" smooth="yes"/>
      <point x="276" y="242" type="line"/>
      <point x="225" y="0" type="line"/>
      <point x="41" y="0" type="line"/>
    </contour>
    <contour>
      <point x="672" y="406" type="line" smooth="yes"/>
      <point x="753" y="406"/>
      <point x="896" y="515"/>
      <point x="977" y="682"/>
      <point x="977" y="770" type="qcurve" smooth="yes"/>
      <point x="977" y="872"/>
      <point x="871" y="1010"/>
      <point x="788" y="1010" type="qcurve" smooth="yes"/>
      <point x="440" y="1010" type="line"/>
      <point x="311" y="406" type="line"/>
    </contour>
  </outline>
</glyph>
<glyph name="germandbls" format="2">
  <advance width="1089"/>
  <unicode hex="00DF"/>
  <outline>
    <contour>
      <point x="377" y="154" type="line"/>
      <point x="569" y="157"/>
      <point x="799" y="331"/>
      <point x="799" y="502" type="qcurve" smooth="yes"/>
      <point x="799" y="607"/>
      <point x="674" y="731"/>
      <point x="567" y="731" type="qcurve" smooth="yes"/>
      <point x="528" y="731" type="line"/>
      <point x="563" y="895" type="line"/>
      <point x="600" y="895" type="line" smooth="yes"/>
      <point x="706" y="895"/>
      <point x="854" y="1041"/>
      <point x="854" y="1149" type="qcurve" smooth="yes"/>
      <point x="854" y="1225"/>
      <point x="759" y="1307"/>
      <point x="686" y="1307" type="qcurve" smooth="yes"/>
      <point x="574" y="1307"/>
      <point x="426" y="1148"/>
      <point x="401" y="1030" type="qcurve" smooth="yes"/>
      <point x="182" y="0" type="line"/>
      <point x="10" y="0" type="line"/>
      <point x="236" y="1059" type="line" smooth="yes"/>
      <point x="274" y="1237"/>
      <point x="549" y="1462"/>
      <point x="727" y="1462" type="qcurve" smooth="yes"/>
      <point x="864" y="1462"/>
      <point x="1034" y="1313"/>
      <point x="1034" y="1190" type="qcurve" smooth="yes"/>
      <point x="1034" y="1069"/>
      <point x="870" y="852"/>
      <point x="768" y="823" type="qcurve"/>
      <point x="872" y="799"/>
      <point x="985" y="628"/>
      <point x="985" y="510" type="qcurve" smooth="yes"/>
      <point x="985" y="413"/>
      <point x="920" y="247"/>
      <point x="803" y="125"/>
      <point x="642" y="38"/>
      <point x="450" y="-8"/>
      <point x="342" y="-12" type="qcurve"/>
    </contour>
  </outline>
</glyph>
<glyph name="atilde" format="2">
  <advance width="1241"/>
  <unicode hex="00E3"/>
  <anchor x="0" y="0" name="Anchor-11"/>
  <anchor x="0" y="0" name="Anchor-10"/>
  <anchor x="825" y="1495" name="Anchor-9"/>
  <anchor x="1012" y="0" name="Anchor-8"/>
  <anchor x="508" y="0" name="Anchor-7"/>
  <outline>
    <contour>
      <point x="668" y="1370" type="qcurve" smooth="yes"/>
      <point x="629" y="1370"/>
      <point x="572" y="1322"/>
      <point x="553" y="1280"/>
      <point x="553" y="1272" type="qcurve"/>
      <point x="446" y="1272" type="line"/>
      <point x="450" y="1290"/>
      <point x="482" y="1351"/>
      <point x="539" y="1428"/>
      <point x="634" y="1483"/>
      <point x="688" y="1483" type="qcurve" smooth="yes"/>
      <point x="735" y="1483"/>
      <point x="811" y="1439"/>
      <point x="881" y="1395"/>
      <point x="920" y="1395" type="qcurve" smooth="yes"/>
      <point x="954" y="1395"/>
      <point x="1008" y="1423"/>
      <point x="1036" y="1463"/>
      <point x="1049" y="1488"/>
      <point x="1051" y="1495" type="qcurve"/>
      <point x="1155" y="1495" type="line"/>
      <point x="1152" y="1479"/>
      <point x="1119" y="1417"/>
      <point x="1060" y="1340"/>
      <point x="959" y="1284"/>
      <point x="901" y="1284" type="qcurve" smooth="yes"/>
      <point x="862" y="1284"/>
      <point x="793" y="1311"/>
      <point x="751" y="1343"/>
      <point x="696" y="1370"/>
    </contour>
    <contour>
      <point x="45" y="424" type="qcurve" smooth="yes"/>
      <point x="45" y="550"/>
      <point x="143" y="793"/>
      <point x="304" y="975"/>
      <point x="523" y="1087"/>
      <point x="637" y="1087" type="qcurve" smooth="yes"/>
      <point x="755" y="1087"/>
      <point x="920" y="958"/>
      <point x="956" y="856" type="qcurve"/>
      <point x="1004" y="1069" type="line"/>
      <point x="1184" y="1069" type="line"/>
      <point x="1004" y="221" type="line" smooth="yes"/>
      <point x="999" y="196"/>
      <point x="999" y="195" type="qcurve" smooth="yes"/>
      <point x="999" y="175"/>
      <point x="1020" y="158"/>
      <point x="1044" y="156" type="qcurve"/>
      <point x="1012" y="0" type="line"/>
      <point x="950" y="-8"/>
      <point x="940" y="-8" type="qcurve" smooth="yes"/>
      <point x="885" y="-8"/>
      <point x="823" y="43"/>
      <point x="823" y="84" type="qcurve" smooth="yes"/>
      <point x="823" y="114"/>
      <point x="842" y="201" type="qcurve"/>
      <point x="763" y="99"/>
      <point x="536" y="-20"/>
      <point x="426" y="-20" type="qcurve" smooth="yes"/>
      <point x="252" y="-20"/>
      <point x="45" y="236"/>
    </contour>
    <contour>
      <point x="856" y="375" type="qcurve"/>
      <point x="920" y="682" type="line"/>
      <point x="907" y="786"/>
      <point x="751" y="932"/>
      <point x="657" y="932" type="qcurve" smooth="yes"/>
      <point x="547" y="932"/>
      <point x="350" y="789"/>
      <point x="236" y="568"/>
      <point x="236" y="453" type="qcurve" smooth="yes"/>
      <point x="236" y="318"/>
      <point x="384" y="135"/>
      <point x="504" y="135" type="qcurve" smooth="yes"/>
      <point x="597" y="135"/>
      <point x="816" y="279"/>
    </contour>
  </outline>
</glyph>
<glyph name="edieresis" format="2">
  <advance width="1103"/>
  <unicode hex="00EB"/>
  <anchor x="0" y="0" name="Anchor-11"/>
  <anchor x="0" y="0" name="Anchor-10"/>
  <anchor x="788" y="1487" name="Anchor-9"/>
  <anchor x="614" y="0" name="Anchor-8"/>
  <anchor x="471" y="0" name="Anchor-7"/>
  <outline>
    <contour>
      <point x="705" y="1487" type="line"/>
      <point x="659" y="1278" type="line"/>
      <point x="508" y="1278" type="line"/>
      <point x="553" y="1487" type="line"/>
    </contour>
    <contour>
      <point x="1024" y="1487" type="line"/>
      <point x="981" y="1278" type="line"/>
      <point x="829" y="1278" type="line"/>
      <point x="874" y="1487" type="line"/>
    </contour>
    <contour>
      <point x="467" y="469" type="qcurve" smooth="yes"/>
      <point x="344" y="469"/>
      <point x="231" y="479" type="qcurve"/>
      <point x="229" y="463"/>
      <point x="229" y="432" type="qcurve" smooth="yes"/>
      <point x="229" y="296"/>
      <point x="366" y="115"/>
      <point x="496" y="115" type="qcurve" smooth="yes"/>
      <point x="591" y="115"/>
      <point x="771" y="212"/>
      <point x="821" y="293" type="qcurve"/>
      <point x="967" y="250" type="line"/>
      <point x="891" y="130"/>
      <point x="616" y="-20"/>
      <point x="467" y="-20" type="qcurve" smooth="yes"/>
      <point x="272" y="-20"/>
      <point x="47" y="235"/>
      <point x="47" y="432" type="qcurve" smooth="yes"/>
      <point x="47" y="559"/>
      <point x="146" y="798"/>
      <point x="316" y="978"/>
      <point x="558" y="1087"/>
      <point x="694" y="1087" type="qcurve" smooth="yes"/>
      <point x="856" y="1087"/>
      <point x="1051" y="938"/>
      <point x="1051" y="799" type="qcurve" smooth="yes"/>
      <point x="1051" y="469"/>
    </contour>
    <contour>
      <point x="682" y="952" type="qcurve" smooth="yes"/>
      <point x="597" y="952"/>
      <point x="451" y="894"/>
      <point x="348" y="794"/>
      <point x="277" y="674"/>
      <point x="256" y="604" type="qcurve"/>
      <point x="393" y="594"/>
      <point x="473" y="594" type="qcurve" smooth="yes"/>
      <point x="889" y="594"/>
      <point x="889" y="801" type="qcurve" smooth="yes"/>
      <point x="889" y="877"/>
      <point x="779" y="952"/>
    </contour>
  </outline>
</glyph>
<glyph name="igrave" format="2">
  <advance width="462"/>
  <unicode hex="00EC"/>
  <anchor x="0" y="0" name="Anchor-11"/>
  <anchor x="0" y="0" name="Anchor-10"/>
  <anchor x="500" y="1466" name="Anchor-9"/>
  <anchor x="303" y="20" name="Anchor-8"/>
  <anchor x="98" y="0" name="Anchor-7"/>
  <outline>
    <contour>
      <point x="350" y="1466" type="line"/>
      <point x="526" y="1466" type="line"/>
      <point x="596" y="1260" type="line"/>
      <point x="471" y="1219" type="line"/>
    </contour>
    <contour>
      <point x="238" y="1069" type="line"/>
      <point x="418" y="1069" type="line"/>
      <point x="190" y="0" type="line"/>
      <point x="10" y="0" type="line"/>
    </contour>
  </outline>
</glyph>
<glyph name="iacute" format="2">
  <advance width="462"/>
  <unicode hex="00ED"/>
  <anchor x="0" y="0" name="Anchor-11"/>
  <anchor x="0" y="0" name="Anchor-10"/>
  <anchor x="463" y="1495" name="Anchor-9"/>
  <anchor x="303" y="20" name="Anchor-8"/>
  <anchor x="98" y="0" name="Anchor-7"/>
  <outline>
    <contour>
      <point x="406" y="1247" type="line"/>
      <point x="295" y="1288" type="line"/>
      <point x="451" y="1495" type="line"/>
      <point x="629" y="1495" type="line"/>
    </contour>
    <contour>
      <point x="238" y="1069" type="line"/>
      <point x="418" y="1069" type="line"/>
      <point x="190" y="0" type="line"/>
      <point x="10" y="0" type="line"/>
    </contour>
  </outline>
</glyph>
<glyph name="icircumflex" format="2">
  <advance width="462"/>
  <unicode hex="00EE"/>
  <anchor x="0" y="0" name="Anchor-11"/>
  <anchor x="0" y="0" name="Anchor-10"/>
  <anchor x="401" y="1495" name="Anchor-9"/>
  <anchor x="303" y="20" name="Anchor-8"/>
  <anchor x="98" y="0" name="Anchor-7"/>
  <outline>
    <contour>
      <point x="113" y="1311" type="line"/>
      <point x="350" y="1495" type="line"/>
      <point x="481" y="1495" type="line"/>
      <point x="639" y="1311" type="line"/>
      <point x="530" y="1262" type="line"/>
      <point x="393" y="1391" type="line"/>
      <point x="201" y="1262" type="line"/>
    </contour>
    <contour>
      <point x="238" y="1069" type="line"/>
      <point x="418" y="1069" type="line"/>
      <point x="190" y="0" type="line"/>
      <point x="10" y="0" type="line"/>
    </contour>
  </outline>
</glyph>
<glyph name="eth" format="2">
  <advance width="1193"/>
  <unicode hex="00F0"/>
  <outline>
    <contour>
      <point x="1153" y="1384" type="line"/>
      <point x="975" y="1286" type="line"/>
      <point x="1052" y="1169"/>
      <point x="1124" y="894"/>
      <point x="1124" y="762" type="qcurve" smooth="yes"/>
      <point x="1124" y="622"/>
      <point x="1048" y="372"/>
      <point x="916" y="186"/>
      <point x="744" y="50"/>
      <point x="547" y="-20"/>
      <point x="446" y="-20" type="qcurve" smooth="yes"/>
      <point x="267" y="-20"/>
      <point x="37" y="216"/>
      <point x="37" y="391" type="qcurve" smooth="yes"/>
      <point x="37" y="481"/>
      <point x="102" y="656"/>
      <point x="217" y="799"/>
      <point x="364" y="908"/>
      <point x="539" y="969"/>
      <point x="627" y="969" type="qcurve" smooth="yes"/>
      <point x="746" y="969"/>
      <point x="919" y="852"/>
      <point x="952" y="754" type="qcurve"/>
      <point x="952" y="828"/>
      <point x="944" y="885" type="qcurve" smooth="yes"/>
      <point x="925" y="1067"/>
      <point x="823" y="1217" type="qcurve"/>
      <point x="598" y="1090" type="line"/>
      <point x="559" y="1165" type="line"/>
      <point x="772" y="1284" type="line"/>
      <point x="680" y="1393"/>
      <point x="528" y="1495" type="qcurve"/>
      <point x="778" y="1495" type="line"/>
      <point x="864" y="1433"/>
      <point x="926" y="1356" type="qcurve"/>
      <point x="1114" y="1460" type="line"/>
    </contour>
    <contour>
      <point x="485" y="135" type="qcurve" smooth="yes"/>
      <point x="590" y="135"/>
      <point x="785" y="252"/>
      <point x="903" y="445"/>
      <point x="903" y="549" type="qcurve" smooth="yes"/>
      <point x="903" y="667"/>
      <point x="756" y="821"/>
      <point x="639" y="821" type="qcurve" smooth="yes"/>
      <point x="534" y="821"/>
      <point x="342" y="710"/>
      <point x="223" y="521"/>
      <point x="223" y="414" type="qcurve" smooth="yes"/>
      <point x="223" y="295"/>
      <point x="370" y="135"/>
    </contour>
  </outline>
</glyph>
<glyph name="ntilde" format="2">
  <advance width="1161"/>
  <unicode hex="00F1"/>
  <anchor x="0" y="0" name="Anchor-11"/>
  <anchor x="0" y="0" name="Anchor-10"/>
  <anchor x="918" y="1495" name="Anchor-9"/>
  <anchor x="0" y="0" name="Anchor-8"/>
  <anchor x="475" y="0" name="Anchor-7"/>
  <outline>
    <contour>
      <point x="760" y="1370" type="qcurve" smooth="yes"/>
      <point x="721" y="1370"/>
      <point x="664" y="1322"/>
      <point x="645" y="1280"/>
      <point x="645" y="1272" type="qcurve"/>
      <point x="539" y="1272" type="line"/>
      <point x="542" y="1285"/>
      <point x="562" y="1330"/>
      <point x="603" y="1393"/>
      <point x="656" y="1445"/>
      <point x="736" y="1483"/>
      <point x="780" y="1483" type="qcurve" smooth="yes"/>
      <point x="827" y="1483"/>
      <point x="903" y="1439"/>
      <point x="973" y="1395"/>
      <point x="1012" y="1395" type="qcurve" smooth="yes"/>
      <point x="1046" y="1395"/>
      <point x="1100" y="1423"/>
      <point x="1128" y="1463"/>
      <point x="1141" y="1488"/>
      <point x="1143" y="1495" type="qcurve"/>
      <point x="1247" y="1495" type="line"/>
      <point x="1244" y="1479"/>
      <point x="1211" y="1417"/>
      <point x="1152" y="1340"/>
      <point x="1051" y="1284"/>
      <point x="993" y="1284" type="qcurve" smooth="yes"/>
      <point x="954" y="1284"/>
      <point x="885" y="1311"/>
      <point x="843" y="1343"/>
      <point x="788" y="1370"/>
    </contour>
    <contour>
      <point x="238" y="1069" type="line"/>
      <point x="401" y="1069" type="line"/>
      <point x="352" y="840" type="line"/>
      <point x="435" y="953"/>
      <point x="692" y="1087"/>
      <point x="825" y="1087" type="qcurve" smooth="yes"/>
      <point x="1059" y="1087"/>
      <point x="1059" y="836" type="qcurve" smooth="yes"/>
      <point x="1059" y="768"/>
      <point x="1034" y="639" type="qcurve" smooth="yes"/>
      <point x="899" y="0" type="line"/>
      <point x="719" y="0" type="line"/>
      <point x="846" y="598" type="line" smooth="yes"/>
      <point x="864" y="686"/>
      <point x="864" y="752" type="qcurve" smooth="yes"/>
      <point x="864" y="926"/>
      <point x="719" y="926" type="qcurve" smooth="yes"/>
      <point x="615" y="926"/>
      <point x="387" y="765"/>
      <point x="328" y="645" type="qcurve"/>
      <point x="190" y="0" type="line"/>
      <point x="10" y="0" type="line"/>
    </contour>
  </outline>
</glyph>
<glyph name="otilde" format="2">
  <advance width="1183"/>
  <unicode hex="00F5"/>
  <anchor x="934" y="999" name="Anchor-11"/>
  <anchor x="592" y="535" name="Anchor-10"/>
  <anchor x="782" y="1495" name="Anchor-9"/>
  <anchor x="567" y="0" name="Anchor-8"/>
  <anchor x="489" y="0" name="Anchor-7"/>
  <outline>
    <contour>
      <point x="625" y="1370" type="qcurve" smooth="yes"/>
      <point x="586" y="1370"/>
      <point x="529" y="1322"/>
      <point x="510" y="1280"/>
      <point x="510" y="1272" type="qcurve"/>
      <point x="403" y="1272" type="line"/>
      <point x="407" y="1290"/>
      <point x="439" y="1351"/>
      <point x="496" y="1428"/>
      <point x="591" y="1483"/>
      <point x="645" y="1483" type="qcurve" smooth="yes"/>
      <point x="692" y="1483"/>
      <point x="768" y="1439"/>
      <point x="838" y="1395"/>
      <point x="877" y="1395" type="qcurve" smooth="yes"/>
      <point x="911" y="1395"/>
      <point x="965" y="1423"/>
      <point x="993" y="1463"/>
      <point x="1006" y="1488"/>
      <point x="1008" y="1495" type="qcurve"/>
      <point x="1112" y="1495" type="line"/>
      <point x="1109" y="1479"/>
      <point x="1076" y="1417"/>
      <point x="1017" y="1340"/>
      <point x="916" y="1284"/>
      <point x="858" y="1284" type="qcurve" smooth="yes"/>
      <point x="819" y="1284"/>
      <point x="750" y="1311"/>
      <point x="708" y="1343"/>
      <point x="653" y="1370"/>
    </contour>
    <contour>
      <point x="45" y="430" type="qcurve" smooth="yes"/>
      <point x="45" y="606"/>
      <point x="215" y="909"/>
      <point x="506" y="1087"/>
      <point x="676" y="1087" type="qcurve" smooth="yes"/>
      <point x="781" y="1087"/>
      <point x="946" y="1017"/>
      <point x="1050" y="893"/>
      <point x="1104" y="730"/>
      <point x="1104" y="635" type="qcurve" smooth="yes"/>
      <point x="1104" y="460"/>
      <point x="934" y="158"/>
      <point x="641" y="-20"/>
      <point x="469" y="-20" type="qcurve" smooth="yes"/>
      <point x="330" y="-20"/>
      <point x="135" y="103"/>
      <point x="45" y="303"/>
    </contour>
    <contour>
      <point x="915" y="608" type="qcurve" smooth="yes"/>
      <point x="915" y="752"/>
      <point x="774" y="932"/>
      <point x="647" y="932" type="qcurve" smooth="yes"/>
      <point x="569" y="932"/>
      <point x="418" y="858"/>
      <point x="302" y="733"/>
      <point x="231" y="554"/>
      <point x="231" y="455" type="qcurve" smooth="yes"/>
      <point x="231" y="312"/>
      <point x="373" y="135"/>
      <point x="500" y="135" type="qcurve" smooth="yes"/>
      <point x="606" y="135"/>
      <point x="796" y="256"/>
      <point x="915" y="476"/>
    </contour>
  </outline>
</glyph>
<glyph name="divide" format="2">
  <advance width="1091"/>
  <unicode hex="00F7"/>
  <outline>
    <contour>
      <point x="461" y="829" type="line"/>
      <point x="461" y="1038" type="line"/>
      <point x="614" y="1038" type="line"/>
      <point x="614" y="829" type="line"/>
    </contour>
    <contour>
      <point x="125" y="514" type="line"/>
      <point x="125" y="662" type="line"/>
      <point x="950" y="662" type="line"/>
      <point x="950" y="514" type="line"/>
    </contour>
    <contour>
      <point x="461" y="135" type="line"/>
      <point x="461" y="344" type="line"/>
      <point x="614" y="344" type="line"/>
      <point x="614" y="135" type="line"/>
    </contour>
  </outline>
</glyph>
<glyph name="thorn" format="2">
  <advance width="1183"/>
  <unicode hex="00FE"/>
  <outline>
    <contour>
      <point x="-82" y="-436" type="line"/>
      <point x="319" y="1454" type="line"/>
      <point x="504" y="1454" type="line"/>
      <point x="383" y="897" type="line"/>
      <point x="459" y="985"/>
      <point x="664" y="1087"/>
      <point x="770" y="1087" type="qcurve" smooth="yes"/>
      <point x="941" y="1087"/>
      <point x="1147" y="828"/>
      <point x="1147" y="641" type="qcurve" smooth="yes"/>
      <point x="1147" y="473"/>
      <point x="986" y="168"/>
      <point x="713" y="-20"/>
      <point x="559" y="-20" type="qcurve" smooth="yes"/>
      <point x="439" y="-20"/>
      <point x="273" y="106"/>
      <point x="236" y="211" type="qcurve"/>
      <point x="98" y="-436" type="line"/>
    </contour>
    <contour>
      <point x="537" y="135" type="qcurve" smooth="yes"/>
      <point x="647" y="135"/>
      <point x="844" y="278"/>
      <point x="958" y="498"/>
      <point x="958" y="612" type="qcurve" smooth="yes"/>
      <point x="958" y="748"/>
      <point x="810" y="932"/>
      <point x="690" y="932" type="qcurve" smooth="yes"/>
      <point x="630" y="932"/>
      <point x="487" y="868"/>
      <point x="365" y="755"/>
      <point x="338" y="692" type="qcurve"/>
      <point x="272" y="387" type="line"/>
      <point x="293" y="278"/>
      <point x="438" y="135"/>
    </contour>
  </outline>
</glyph>
<glyph name="Abreve" format="2">
  <advance width="1335"/>
  <unicode hex="0102"/>
  <anchor x="0" y="0" name="Anchor-11"/>
  <anchor x="0" y="0" name="Anchor-10"/>
  <anchor x="948" y="1880" name="Anchor-9"/>
  <anchor x="1184" y="0" name="Anchor-8"/>
  <anchor x="555" y="0" name="Anchor-7"/>
  <outline>
    <contour>
      <point x="1059" y="1880" type="qcurve"/>
      <point x="1161" y="1880" type="line"/>
      <point x="1141" y="1783"/>
      <point x="990" y="1653"/>
      <point x="899" y="1653" type="qcurve" smooth="yes"/>
      <point x="820" y="1653"/>
      <point x="725" y="1750"/>
      <point x="725" y="1827" type="qcurve" smooth="yes"/>
      <point x="725" y="1853"/>
      <point x="731" y="1880" type="qcurve"/>
      <point x="836" y="1880" type="line"/>
      <point x="831" y="1850"/>
      <point x="831" y="1845" type="qcurve" smooth="yes"/>
      <point x="831" y="1802"/>
      <point x="880" y="1741"/>
      <point x="918" y="1741" type="qcurve" smooth="yes"/>
      <point x="959" y="1741"/>
      <point x="1040" y="1820"/>
    </contour>
    <contour>
      <point x="774" y="1454" type="line"/>
      <point x="932" y="1454" type="line"/>
      <point x="1184" y="0" type="line"/>
      <point x="987" y="0" type="line"/>
      <point x="918" y="426" type="line"/>
      <point x="348" y="426" type="line"/>
      <point x="100" y="0" type="line"/>
      <point x="-96" y="0" type="line"/>
    </contour>
    <contour>
      <point x="909" y="569" type="line"/>
      <point x="809" y="1241" type="line"/>
      <point x="414" y="569" type="line"/>
    </contour>
  </outline>
</glyph>
<glyph name="Aogonek" format="2">
  <advance width="1335"/>
  <unicode hex="0104"/>
  <anchor x="0" y="0" name="Anchor-11"/>
  <anchor x="0" y="0" name="Anchor-10"/>
  <anchor x="858" y="1454" name="Anchor-9"/>
  <anchor x="1184" y="0" name="Anchor-8"/>
  <anchor x="555" y="0" name="Anchor-7"/>
  <outline>
    <contour>
      <point x="1022" y="-211" type="qcurve" smooth="yes"/>
      <point x="1022" y="-240"/>
      <point x="1068" y="-267"/>
      <point x="1114" y="-272" type="qcurve"/>
      <point x="1047" y="-387" type="line"/>
      <point x="970" y="-379"/>
      <point x="903" y="-303"/>
      <point x="903" y="-252" type="qcurve" smooth="yes"/>
      <point x="903" y="-126"/>
      <point x="1065" y="0" type="qcurve"/>
      <point x="987" y="0" type="line"/>
      <point x="918" y="426" type="line"/>
      <point x="348" y="426" type="line"/>
      <point x="100" y="0" type="line"/>
      <point x="-96" y="0" type="line"/>
      <point x="774" y="1454" type="line"/>
      <point x="932" y="1454" type="line"/>
      <point x="1184" y="0" type="line"/>
      <point x="1097" y="-76"/>
      <point x="1022" y="-171"/>
    </contour>
    <contour>
      <point x="414" y="569" type="line"/>
      <point x="909" y="569" type="line"/>
      <point x="809" y="1241" type="line"/>
    </contour>
  </outline>
</glyph>
<glyph name="aogonek" format="2">
  <advance width="1241"/>
  <unicode hex="0105"/>
  <anchor x="0" y="0" name="Anchor-11"/>
  <anchor x="0" y="0" name="Anchor-10"/>
  <anchor x="733" y="1069" name="Anchor-9"/>
  <anchor x="1012" y="0" name="Anchor-8"/>
  <anchor x="508" y="0" name="Anchor-7"/>
  <outline>
    <contour>
      <point x="999" y="195" type="qcurve" smooth="yes"/>
      <point x="999" y="175"/>
      <point x="1020" y="158"/>
      <point x="1044" y="156" type="qcurve"/>
      <point x="1012" y="0" type="line"/>
      <point x="925" y="-76"/>
      <point x="850" y="-171"/>
      <point x="850" y="-211" type="qcurve" smooth="yes"/>
      <point x="850" y="-240"/>
      <point x="896" y="-267"/>
      <point x="942" y="-272" type="qcurve"/>
      <point x="874" y="-387" type="line"/>
      <point x="797" y="-379"/>
      <point x="731" y="-303"/>
      <point x="731" y="-252" type="qcurve" smooth="yes"/>
      <point x="731" y="-125"/>
      <point x="891" y="-2" type="qcurve"/>
      <point x="823" y="20"/>
      <point x="823" y="84" type="qcurve" smooth="yes"/>
      <point x="823" y="114"/>
      <point x="842" y="201" type="qcurve"/>
      <point x="763" y="99"/>
      <point x="536" y="-20"/>
      <point x="426" y="-20" type="qcurve" smooth="yes"/>
      <point x="252" y="-20"/>
      <point x="45" y="236"/>
      <point x="45" y="424" type="qcurve" smooth="yes"/>
      <point x="45" y="550"/>
      <point x="143" y="793"/>
      <point x="304" y="975"/>
      <point x="523" y="1087"/>
      <point x="637" y="1087" type="qcurve" smooth="yes"/>
      <point x="755" y="1087"/>
      <point x="920" y="958"/>
      <point x="956" y="856" type="qcurve"/>
      <point x="1004" y="1069" type="line"/>
      <point x="1184" y="1069" type="line"/>
      <point x="1004" y="221" type="line" smooth="yes"/>
      <point x="999" y="196"/>
    </contour>
    <contour>
      <point x="504" y="135" type="qcurve" smooth="yes"/>
      <point x="597" y="135"/>
      <point x="816" y="279"/>
      <point x="856" y="375" type="qcurve"/>
      <point x="920" y="682" type="line"/>
      <point x="907" y="786"/>
      <point x="751" y="932"/>
      <point x="657" y="932" type="qcurve" smooth="yes"/>
      <point x="547" y="932"/>
      <point x="350" y="789"/>
      <point x="236" y="568"/>
      <point x="236" y="453" type="qcurve" smooth="yes"/>
      <point x="236" y="318"/>
      <point x="384" y="135"/>
    </contour>
  </outline>
</glyph>
<glyph name="Ccircumflex" format="2">
  <advance width="1337"/>
  <unicode hex="0108"/>
  <anchor x="0" y="0" name="Anchor-11"/>
  <anchor x="0" y="0" name="Anchor-10"/>
  <anchor x="942" y="1880" name="Anchor-9"/>
  <anchor x="0" y="0" name="Anchor-8"/>
  <anchor x="557" y="0" name="Anchor-7"/>
  <outline>
    <contour>
      <point x="653" y="1696" type="line"/>
      <point x="891" y="1880" type="line"/>
      <point x="1022" y="1880" type="line"/>
      <point x="1180" y="1696" type="line"/>
      <point x="1071" y="1647" type="line"/>
      <point x="934" y="1776" type="line"/>
      <point x="741" y="1647" type="line"/>
    </contour>
    <contour>
      <point x="92" y="592" type="qcurve" smooth="yes"/>
      <point x="92" y="715"/>
      <point x="165" y="964"/>
      <point x="308" y="1187"/>
      <point x="501" y="1360"/>
      <point x="761" y="1462"/>
      <point x="905" y="1462" type="qcurve" smooth="yes"/>
      <point x="1097" y="1462"/>
      <point x="1333" y="1288"/>
      <point x="1372" y="1145" type="qcurve"/>
      <point x="1219" y="1057" type="line"/>
      <point x="1199" y="1127"/>
      <point x="1129" y="1224"/>
      <point x="1037" y="1275"/>
      <point x="940" y="1296"/>
      <point x="881" y="1296" type="qcurve" smooth="yes"/>
      <point x="763" y="1296"/>
      <point x="562" y="1213"/>
      <point x="423" y="1076"/>
      <point x="325" y="898"/>
      <point x="279" y="708"/>
      <point x="279" y="614" type="qcurve" smooth="yes"/>
      <point x="279" y="486"/>
      <point x="363" y="280"/>
      <point x="535" y="154"/>
      <point x="651" y="154" type="qcurve" smooth="yes"/>
      <point x="768" y="154"/>
      <point x="1005" y="284"/>
      <point x="1087" y="410" type="qcurve"/>
      <point x="1223" y="326" type="line"/>
      <point x="1153" y="215"/>
      <point x="944" y="58"/>
      <point x="726" y="-12"/>
      <point x="618" y="-12" type="qcurve" smooth="yes"/>
      <point x="516" y="-12"/>
      <point x="342" y="55"/>
      <point x="220" y="171"/>
      <point x="133" y="326"/>
      <point x="92" y="500"/>
    </contour>
  </outline>
</glyph>
<glyph name="Dcaron" format="2">
  <advance width="1417"/>
  <unicode hex="010E"/>
  <anchor x="0" y="0" name="Anchor-11"/>
  <anchor x="653" y="727" name="Anchor-10"/>
  <anchor x="893" y="1876" name="Anchor-9"/>
  <anchor x="0" y="0" name="Anchor-8"/>
  <anchor x="494" y="0" name="Anchor-7"/>
  <outline>
    <contour>
      <point x="604" y="1827" type="line"/>
      <point x="713" y="1876" type="line"/>
      <point x="850" y="1747" type="line"/>
      <point x="1042" y="1876" type="line"/>
      <point x="1130" y="1827" type="line"/>
      <point x="893" y="1642" type="line"/>
      <point x="762" y="1642" type="line"/>
    </contour>
    <contour>
      <point x="350" y="1454" type="line"/>
      <point x="831" y="1454" type="line" smooth="yes"/>
      <point x="965" y="1454"/>
      <point x="1173" y="1368"/>
      <point x="1302" y="1215"/>
      <point x="1368" y="1014"/>
      <point x="1368" y="895" type="qcurve" smooth="yes"/>
      <point x="1368" y="642"/>
      <point x="1149" y="232"/>
      <point x="761" y="0"/>
      <point x="522" y="0" type="qcurve" smooth="yes"/>
      <point x="41" y="0" type="line"/>
    </contour>
    <contour>
      <point x="557" y="164" type="line" smooth="yes"/>
      <point x="696" y="164"/>
      <point x="932" y="279"/>
      <point x="1090" y="473"/>
      <point x="1178" y="727"/>
      <point x="1178" y="866" type="qcurve" smooth="yes"/>
      <point x="1178" y="1058"/>
      <point x="981" y="1290"/>
      <point x="797" y="1290" type="qcurve" smooth="yes"/>
      <point x="500" y="1290" type="line"/>
      <point x="260" y="164" type="line"/>
    </contour>
  </outline>
</glyph>
<glyph name="Dcroat" format="2">
  <advance width="1431"/>
  <unicode hex="0110"/>
  <outline>
    <contour>
      <point x="846" y="1454" type="line" smooth="yes"/>
      <point x="980" y="1454"/>
      <point x="1188" y="1368"/>
      <point x="1317" y="1215"/>
      <point x="1382" y="1014"/>
      <point x="1382" y="895" type="qcurve" smooth="yes"/>
      <point x="1382" y="642"/>
      <point x="1163" y="232"/>
      <point x="776" y="0"/>
      <point x="537" y="0" type="qcurve" smooth="yes"/>
      <point x="55" y="0" type="line"/>
      <point x="197" y="662" type="line"/>
      <point x="86" y="662" type="line"/>
      <point x="117" y="801" type="line"/>
      <point x="225" y="801" type="line"/>
      <point x="365" y="1454" type="line"/>
    </contour>
    <contour>
      <point x="571" y="164" type="line" smooth="yes"/>
      <point x="710" y="164"/>
      <point x="946" y="279"/>
      <point x="1104" y="473"/>
      <point x="1192" y="727"/>
      <point x="1192" y="866" type="qcurve" smooth="yes"/>
      <point x="1192" y="1058"/>
      <point x="995" y="1290"/>
      <point x="811" y="1290" type="qcurve" smooth="yes"/>
      <point x="514" y="1290" type="line"/>
      <point x="410" y="801" type="line"/>
      <point x="719" y="801" type="line"/>
      <point x="690" y="662" type="line"/>
      <point x="381" y="662" type="line"/>
      <point x="274" y="164" type="line"/>
    </contour>
  </outline>
</glyph>
<glyph name="Ebreve" format="2">
  <advance width="1187"/>
  <unicode hex="0114"/>
  <anchor x="0" y="0" name="Anchor-11"/>
  <anchor x="0" y="0" name="Anchor-10"/>
  <anchor x="879" y="1880" name="Anchor-9"/>
  <anchor x="981" y="0" name="Anchor-8"/>
  <anchor x="481" y="0" name="Anchor-7"/>
  <outline>
    <contour>
      <point x="989" y="1880" type="qcurve"/>
      <point x="1092" y="1880" type="line"/>
      <point x="1072" y="1784"/>
      <point x="920" y="1653"/>
      <point x="829" y="1653" type="qcurve" smooth="yes"/>
      <point x="750" y="1653"/>
      <point x="655" y="1750"/>
      <point x="655" y="1827" type="qcurve" smooth="yes"/>
      <point x="655" y="1848"/>
      <point x="662" y="1880" type="qcurve"/>
      <point x="766" y="1880" type="line"/>
      <point x="762" y="1856"/>
      <point x="762" y="1845" type="qcurve" smooth="yes"/>
      <point x="762" y="1801"/>
      <point x="810" y="1741"/>
      <point x="848" y="1741" type="qcurve" smooth="yes"/>
      <point x="889" y="1741"/>
      <point x="970" y="1820"/>
    </contour>
    <contour>
      <point x="350" y="1454" type="line"/>
      <point x="1272" y="1454" type="line"/>
      <point x="1237" y="1290" type="line"/>
      <point x="500" y="1290" type="line"/>
      <point x="399" y="819" type="line"/>
      <point x="1040" y="819" type="line"/>
      <point x="1008" y="666" type="line"/>
      <point x="367" y="666" type="line"/>
      <point x="260" y="164" type="line"/>
      <point x="1016" y="164" type="line"/>
      <point x="981" y="0" type="line"/>
      <point x="41" y="0" type="line"/>
    </contour>
  </outline>
</glyph>
<glyph name="Eogonek" format="2">
  <advance width="1187"/>
  <unicode hex="0118"/>
  <anchor x="0" y="0" name="Anchor-11"/>
  <anchor x="0" y="0" name="Anchor-10"/>
  <anchor x="788" y="1454" name="Anchor-9"/>
  <anchor x="981" y="0" name="Anchor-8"/>
  <anchor x="481" y="0" name="Anchor-7"/>
  <outline>
    <contour>
      <point x="1237" y="1290" type="line"/>
      <point x="500" y="1290" type="line"/>
      <point x="399" y="819" type="line"/>
      <point x="1040" y="819" type="line"/>
      <point x="1008" y="666" type="line"/>
      <point x="367" y="666" type="line"/>
      <point x="260" y="164" type="line"/>
      <point x="1016" y="164" type="line"/>
      <point x="981" y="0" type="line"/>
      <point x="894" y="-76"/>
      <point x="819" y="-171"/>
      <point x="819" y="-211" type="qcurve" smooth="yes"/>
      <point x="819" y="-240"/>
      <point x="865" y="-267"/>
      <point x="911" y="-272" type="qcurve"/>
      <point x="844" y="-387" type="line"/>
      <point x="767" y="-379"/>
      <point x="700" y="-303"/>
      <point x="700" y="-252" type="qcurve" smooth="yes"/>
      <point x="700" y="-126"/>
      <point x="862" y="0" type="qcurve"/>
      <point x="41" y="0" type="line"/>
      <point x="350" y="1454" type="line"/>
      <point x="1272" y="1454" type="line"/>
    </contour>
  </outline>
</glyph>
<glyph name="Ecaron" format="2">
  <advance width="1187"/>
  <unicode hex="011A"/>
  <anchor x="0" y="0" name="Anchor-11"/>
  <anchor x="0" y="0" name="Anchor-10"/>
  <anchor x="881" y="1880" name="Anchor-9"/>
  <anchor x="981" y="0" name="Anchor-8"/>
  <anchor x="481" y="0" name="Anchor-7"/>
  <outline>
    <contour>
      <point x="592" y="1831" type="line"/>
      <point x="700" y="1880" type="line"/>
      <point x="838" y="1751" type="line"/>
      <point x="1030" y="1880" type="line"/>
      <point x="1118" y="1831" type="line"/>
      <point x="881" y="1647" type="line"/>
      <point x="750" y="1647" type="line"/>
    </contour>
    <contour>
      <point x="350" y="1454" type="line"/>
      <point x="1272" y="1454" type="line"/>
      <point x="1237" y="1290" type="line"/>
      <point x="500" y="1290" type="line"/>
      <point x="399" y="819" type="line"/>
      <point x="1040" y="819" type="line"/>
      <point x="1008" y="666" type="line"/>
      <point x="367" y="666" type="line"/>
      <point x="260" y="164" type="line"/>
      <point x="1016" y="164" type="line"/>
      <point x="981" y="0" type="line"/>
      <point x="41" y="0" type="line"/>
    </contour>
  </outline>
</glyph>
<glyph name="ecaron" format="2">
  <advance width="1103"/>
  <unicode hex="011B"/>
  <anchor x="0" y="0" name="Anchor-11"/>
  <anchor x="0" y="0" name="Anchor-10"/>
  <anchor x="791" y="1495" name="Anchor-9"/>
  <anchor x="614" y="0" name="Anchor-8"/>
  <anchor x="471" y="0" name="Anchor-7"/>
  <outline>
    <contour>
      <point x="791" y="1262" type="line"/>
      <point x="659" y="1262" type="line"/>
      <point x="502" y="1446" type="line"/>
      <point x="610" y="1495" type="line"/>
      <point x="748" y="1366" type="line"/>
      <point x="940" y="1495" type="line"/>
      <point x="1028" y="1446" type="line"/>
    </contour>
    <contour>
      <point x="467" y="469" type="qcurve" smooth="yes"/>
      <point x="344" y="469"/>
      <point x="231" y="479" type="qcurve"/>
      <point x="229" y="463"/>
      <point x="229" y="432" type="qcurve" smooth="yes"/>
      <point x="229" y="296"/>
      <point x="366" y="115"/>
      <point x="496" y="115" type="qcurve" smooth="yes"/>
      <point x="591" y="115"/>
      <point x="771" y="212"/>
      <point x="821" y="293" type="qcurve"/>
      <point x="967" y="250" type="line"/>
      <point x="891" y="130"/>
      <point x="616" y="-20"/>
      <point x="467" y="-20" type="qcurve" smooth="yes"/>
      <point x="272" y="-20"/>
      <point x="47" y="235"/>
      <point x="47" y="432" type="qcurve" smooth="yes"/>
      <point x="47" y="559"/>
      <point x="146" y="798"/>
      <point x="316" y="978"/>
      <point x="558" y="1087"/>
      <point x="694" y="1087" type="qcurve" smooth="yes"/>
      <point x="856" y="1087"/>
      <point x="1051" y="938"/>
      <point x="1051" y="799" type="qcurve" smooth="yes"/>
      <point x="1051" y="469"/>
    </contour>
    <contour>
      <point x="682" y="952" type="qcurve" smooth="yes"/>
      <point x="597" y="952"/>
      <point x="451" y="894"/>
      <point x="348" y="794"/>
      <point x="277" y="674"/>
      <point x="256" y="604" type="qcurve"/>
      <point x="393" y="594"/>
      <point x="473" y="594" type="qcurve" smooth="yes"/>
      <point x="889" y="594"/>
      <point x="889" y="801" type="qcurve" smooth="yes"/>
      <point x="889" y="877"/>
      <point x="779" y="952"/>
    </contour>
  </outline>
</glyph>
<glyph name="Gdot" format="2">
  <advance width="1404"/>
  <unicode hex="0120"/>
  <anchor x="0" y="0" name="Anchor-11"/>
  <anchor x="0" y="0" name="Anchor-10"/>
  <anchor x="1006" y="1876" name="Anchor-9"/>
  <anchor x="0" y="0" name="Anchor-8"/>
  <anchor x="647" y="0" name="Anchor-7"/>
  <outline>
    <contour>
      <point x="1087" y="1876" type="line"/>
      <point x="1042" y="1659" type="line"/>
      <point x="879" y="1659" type="line"/>
      <point x="926" y="1876" type="line"/>
    </contour>
    <contour>
      <point x="844" y="586" type="line"/>
      <point x="874" y="725" type="line"/>
      <point x="1325" y="725" type="line"/>
      <point x="1171" y="0" type="line"/>
      <point x="1016" y="0" type="line"/>
      <point x="1057" y="197" type="line"/>
      <point x="834" y="-10"/>
      <point x="598" y="-10" type="qcurve" smooth="yes"/>
      <point x="447" y="-10"/>
      <point x="212" y="163"/>
      <point x="92" y="438"/>
      <point x="92" y="598" type="qcurve" smooth="yes"/>
      <point x="92" y="760"/>
      <point x="230" y="1078"/>
      <point x="454" y="1317"/>
      <point x="756" y="1464"/>
      <point x="911" y="1464" type="qcurve" smooth="yes"/>
      <point x="1103" y="1464"/>
      <point x="1334" y="1295"/>
      <point x="1374" y="1147" type="qcurve"/>
      <point x="1212" y="1049" type="line"/>
      <point x="1179" y="1172"/>
      <point x="1001" y="1298"/>
      <point x="872" y="1298" type="qcurve" smooth="yes"/>
      <point x="715" y="1298"/>
      <point x="438" y="1094"/>
      <point x="279" y="776"/>
      <point x="279" y="608" type="qcurve" smooth="yes"/>
      <point x="279" y="416"/>
      <point x="482" y="156"/>
      <point x="647" y="156" type="qcurve" smooth="yes"/>
      <point x="873" y="156"/>
      <point x="1098" y="387" type="qcurve"/>
      <point x="1141" y="586" type="line"/>
    </contour>
  </outline>
</glyph>
<glyph name="Hcircumflex" format="2">
  <advance width="1460"/>
  <unicode hex="0124"/>
  <anchor x="0" y="0" name="Anchor-11"/>
  <anchor x="772" y="727" name="Anchor-10"/>
  <anchor x="1004" y="1880" name="Anchor-9"/>
  <anchor x="0" y="0" name="Anchor-8"/>
  <anchor x="618" y="0" name="Anchor-7"/>
  <outline>
    <contour>
      <point x="715" y="1696" type="line"/>
      <point x="952" y="1880" type="line"/>
      <point x="1083" y="1880" type="line"/>
      <point x="1241" y="1696" type="line"/>
      <point x="1133" y="1647" type="line"/>
      <point x="995" y="1776" type="line"/>
      <point x="803" y="1647" type="line"/>
    </contour>
    <contour>
      <point x="350" y="1454" type="line"/>
      <point x="535" y="1454" type="line"/>
      <point x="401" y="825" type="line"/>
      <point x="1149" y="825" type="line"/>
      <point x="1282" y="1454" type="line"/>
      <point x="1466" y="1454" type="line"/>
      <point x="1157" y="0" type="line"/>
      <point x="973" y="0" type="line"/>
      <point x="1114" y="662" type="line"/>
      <point x="367" y="662" type="line"/>
      <point x="225" y="0" type="line"/>
      <point x="41" y="0" type="line"/>
    </contour>
  </outline>
</glyph>
<glyph name="hcircumflex" format="2">
  <advance width="1161"/>
  <unicode hex="0125"/>
  <anchor x="0" y="0" name="Anchor-11"/>
  <anchor x="582" y="535" name="Anchor-10"/>
  <anchor x="854" y="1876" name="Anchor-9"/>
  <anchor x="0" y="0" name="Anchor-8"/>
  <anchor x="469" y="0" name="Anchor-7"/>
  <outline>
    <contour>
      <point x="586" y="1694" type="line"/>
      <point x="807" y="1876" type="line"/>
      <point x="928" y="1876" type="line"/>
      <point x="1075" y="1694" type="line"/>
      <point x="975" y="1645" type="line"/>
      <point x="846" y="1772" type="line"/>
      <point x="668" y="1645" type="line"/>
    </contour>
    <contour>
      <point x="328" y="1495" type="line"/>
      <point x="508" y="1495" type="line"/>
      <point x="369" y="840" type="line"/>
      <point x="454" y="956"/>
      <point x="688" y="1087"/>
      <point x="809" y="1087" type="qcurve" smooth="yes"/>
      <point x="1055" y="1087"/>
      <point x="1055" y="821" type="qcurve" smooth="yes"/>
      <point x="1055" y="738"/>
      <point x="1034" y="639" type="qcurve" smooth="yes"/>
      <point x="899" y="0" type="line"/>
      <point x="719" y="0" type="line"/>
      <point x="846" y="598" type="line" smooth="yes"/>
      <point x="862" y="683"/>
      <point x="862" y="737" type="qcurve" smooth="yes"/>
      <point x="862" y="830"/>
      <point x="782" y="926"/>
      <point x="705" y="926" type="qcurve" smooth="yes"/>
      <point x="606" y="926"/>
      <point x="386" y="764"/>
      <point x="328" y="645" type="qcurve"/>
      <point x="190" y="0" type="line"/>
      <point x="10" y="0" type="line"/>
    </contour>
  </outline>
</glyph>
<glyph name="Hbar" format="2">
  <advance width="1480"/>
  <unicode hex="0126"/>
  <outline>
    <contour>
      <point x="1526" y="1219" type="line"/>
      <point x="1505" y="1122" type="line"/>
      <point x="1409" y="1122" type="line"/>
      <point x="1169" y="0" type="line"/>
      <point x="985" y="0" type="line"/>
      <point x="1126" y="662" type="line"/>
      <point x="379" y="662" type="line"/>
      <point x="238" y="0" type="line"/>
      <point x="53" y="0" type="line"/>
      <point x="293" y="1122" type="line"/>
      <point x="195" y="1122" type="line"/>
      <point x="215" y="1219" type="line"/>
      <point x="313" y="1219" type="line"/>
      <point x="362" y="1454" type="line"/>
      <point x="547" y="1454" type="line"/>
      <point x="498" y="1219" type="line"/>
      <point x="1245" y="1219" type="line"/>
      <point x="1294" y="1454" type="line"/>
      <point x="1479" y="1454" type="line"/>
      <point x="1430" y="1219" type="line"/>
    </contour>
    <contour>
      <point x="1161" y="825" type="line"/>
      <point x="1225" y="1122" type="line"/>
      <point x="477" y="1122" type="line"/>
      <point x="414" y="825" type="line"/>
    </contour>
  </outline>
</glyph>
<glyph name="Itilde" format="2">
  <advance width="528"/>
  <unicode hex="0128"/>
  <anchor x="0" y="0" name="Anchor-11"/>
  <anchor x="0" y="0" name="Anchor-10"/>
  <anchor x="535" y="1880" name="Anchor-9"/>
  <anchor x="225" y="0" name="Anchor-8"/>
  <anchor x="133" y="0" name="Anchor-7"/>
  <outline>
    <contour>
      <point x="377" y="1755" type="qcurve" smooth="yes"/>
      <point x="338" y="1755"/>
      <point x="281" y="1707"/>
      <point x="262" y="1665"/>
      <point x="262" y="1657" type="qcurve"/>
      <point x="156" y="1657" type="line"/>
      <point x="159" y="1670"/>
      <point x="179" y="1715"/>
      <point x="220" y="1778"/>
      <point x="273" y="1830"/>
      <point x="353" y="1868"/>
      <point x="397" y="1868" type="qcurve" smooth="yes"/>
      <point x="444" y="1868"/>
      <point x="520" y="1824"/>
      <point x="590" y="1780"/>
      <point x="629" y="1780" type="qcurve" smooth="yes"/>
      <point x="663" y="1780"/>
      <point x="717" y="1808"/>
      <point x="745" y="1848"/>
      <point x="758" y="1873"/>
      <point x="760" y="1880" type="qcurve"/>
      <point x="864" y="1880" type="line"/>
      <point x="861" y="1864"/>
      <point x="828" y="1802"/>
      <point x="769" y="1725"/>
      <point x="668" y="1669"/>
      <point x="610" y="1669" type="qcurve" smooth="yes"/>
      <point x="571" y="1669"/>
      <point x="502" y="1696"/>
      <point x="460" y="1728"/>
      <point x="405" y="1755"/>
    </contour>
    <contour>
      <point x="350" y="1452" type="line"/>
      <point x="535" y="1452" type="line"/>
      <point x="225" y="0" type="line"/>
      <point x="41" y="0" type="line"/>
    </contour>
  </outline>
</glyph>
<glyph name="itilde" format="2">
  <advance width="462"/>
  <unicode hex="0129"/>
  <anchor x="0" y="0" name="Anchor-11"/>
  <anchor x="0" y="0" name="Anchor-10"/>
  <anchor x="592" y="1466" name="Anchor-9"/>
  <anchor x="303" y="20" name="Anchor-8"/>
  <anchor x="98" y="0" name="Anchor-7"/>
  <outline>
    <contour>
      <point x="434" y="1341" type="qcurve" smooth="yes"/>
      <point x="395" y="1341"/>
      <point x="338" y="1293"/>
      <point x="319" y="1251"/>
      <point x="319" y="1243" type="qcurve"/>
      <point x="213" y="1243" type="line"/>
      <point x="217" y="1261"/>
      <point x="249" y="1322"/>
      <point x="306" y="1399"/>
      <point x="401" y="1454"/>
      <point x="455" y="1454" type="qcurve" smooth="yes"/>
      <point x="492" y="1454"/>
      <point x="557" y="1426"/>
      <point x="597" y="1394"/>
      <point x="655" y="1366"/>
      <point x="686" y="1366" type="qcurve" smooth="yes"/>
      <point x="720" y="1366"/>
      <point x="774" y="1394"/>
      <point x="802" y="1434"/>
      <point x="815" y="1459"/>
      <point x="817" y="1466" type="qcurve"/>
      <point x="922" y="1466" type="line"/>
      <point x="919" y="1450"/>
      <point x="886" y="1388"/>
      <point x="827" y="1311"/>
      <point x="726" y="1255"/>
      <point x="668" y="1255" type="qcurve" smooth="yes"/>
      <point x="618" y="1255"/>
      <point x="537" y="1298"/>
      <point x="468" y="1341"/>
    </contour>
    <contour>
      <point x="238" y="1069" type="line"/>
      <point x="418" y="1069" type="line"/>
      <point x="190" y="0" type="line"/>
      <point x="10" y="0" type="line"/>
    </contour>
  </outline>
</glyph>
<glyph name="Imacron" format="2">
  <advance width="528"/>
  <unicode hex="012A"/>
  <anchor x="0" y="0" name="Anchor-11"/>
  <anchor x="0" y="0" name="Anchor-10"/>
  <anchor x="524" y="1839" name="Anchor-9"/>
  <anchor x="225" y="0" name="Anchor-8"/>
  <anchor x="133" y="0" name="Anchor-7"/>
  <outline>
    <contour>
      <point x="213" y="1720" type="line"/>
      <point x="238" y="1839" type="line"/>
      <point x="809" y="1839" type="line"/>
      <point x="782" y="1720" type="line"/>
    </contour>
    <contour>
      <point x="350" y="1452" type="line"/>
      <point x="535" y="1452" type="line"/>
      <point x="225" y="0" type="line"/>
      <point x="41" y="0" type="line"/>
    </contour>
  </outline>
</glyph>
<glyph name="imacron" format="2">
  <advance width="462"/>
  <unicode hex="012B"/>
  <anchor x="0" y="0" name="Anchor-11"/>
  <anchor x="0" y="0" name="Anchor-10"/>
  <anchor x="406" y="1454" name="Anchor-9"/>
  <anchor x="303" y="20" name="Anchor-8"/>
  <anchor x="98" y="0" name="Anchor-7"/>
  <outline>
    <contour>
      <point x="94" y="1335" type="line"/>
      <point x="119" y="1454" type="line"/>
      <point x="690" y="1454" type="line"/>
      <point x="664" y="1335" type="line"/>
    </contour>
    <contour>
      <point x="238" y="1069" type="line"/>
      <point x="418" y="1069" type="line"/>
      <point x="190" y="0" type="line"/>
      <point x="10" y="0" type="line"/>
    </contour>
  </outline>
</glyph>
<glyph name="Ibreve" format="2">
  <advance width="528"/>
  <unicode hex="012C"/>
  <anchor x="0" y="0" name="Anchor-11"/>
  <anchor x="0" y="0" name="Anchor-10"/>
  <anchor x="532" y="1880" name="Anchor-9"/>
  <anchor x="225" y="0" name="Anchor-8"/>
  <anchor x="133" y="0" name="Anchor-7"/>
  <outline>
    <contour>
      <point x="643" y="1880" type="qcurve"/>
      <point x="745" y="1880" type="line"/>
      <point x="725" y="1783"/>
      <point x="574" y="1653"/>
      <point x="483" y="1653" type="qcurve" smooth="yes"/>
      <point x="404" y="1653"/>
      <point x="309" y="1750"/>
      <point x="309" y="1827" type="qcurve" smooth="yes"/>
      <point x="309" y="1853"/>
      <point x="315" y="1880" type="qcurve"/>
      <point x="420" y="1880" type="line"/>
      <point x="416" y="1856"/>
      <point x="416" y="1845" type="qcurve" smooth="yes"/>
      <point x="416" y="1801"/>
      <point x="464" y="1741"/>
      <point x="502" y="1741" type="qcurve" smooth="yes"/>
      <point x="543" y="1741"/>
      <point x="624" y="1820"/>
    </contour>
    <contour>
      <point x="350" y="1452" type="line"/>
      <point x="535" y="1452" type="line"/>
      <point x="225" y="0" type="line"/>
      <point x="41" y="0" type="line"/>
    </contour>
  </outline>
</glyph>
<glyph name="ibreve" format="2">
  <advance width="462"/>
  <unicode hex="012D"/>
  <anchor x="0" y="0" name="Anchor-11"/>
  <anchor x="0" y="0" name="Anchor-10"/>
  <anchor x="414" y="1495" name="Anchor-9"/>
  <anchor x="303" y="20" name="Anchor-8"/>
  <anchor x="98" y="0" name="Anchor-7"/>
  <outline>
    <contour>
      <point x="524" y="1495" type="qcurve"/>
      <point x="627" y="1495" type="line"/>
      <point x="607" y="1398"/>
      <point x="456" y="1268"/>
      <point x="365" y="1268" type="qcurve" smooth="yes"/>
      <point x="286" y="1268"/>
      <point x="190" y="1365"/>
      <point x="190" y="1442" type="qcurve" smooth="yes"/>
      <point x="190" y="1464"/>
      <point x="197" y="1495" type="qcurve"/>
      <point x="301" y="1495" type="line"/>
      <point x="297" y="1471"/>
      <point x="297" y="1460" type="qcurve" smooth="yes"/>
      <point x="297" y="1416"/>
      <point x="345" y="1356"/>
      <point x="383" y="1356" type="qcurve" smooth="yes"/>
      <point x="424" y="1356"/>
      <point x="505" y="1435"/>
    </contour>
    <contour>
      <point x="238" y="1069" type="line"/>
      <point x="418" y="1069" type="line"/>
      <point x="190" y="0" type="line"/>
      <point x="10" y="0" type="line"/>
    </contour>
  </outline>
</glyph>
<glyph name="Iogonek" format="2">
  <advance width="528"/>
  <unicode hex="012E"/>
  <anchor x="0" y="0" name="Anchor-11"/>
  <anchor x="0" y="0" name="Anchor-10"/>
  <anchor x="442" y="1454" name="Anchor-9"/>
  <anchor x="225" y="0" name="Anchor-8"/>
  <anchor x="133" y="0" name="Anchor-7"/>
  <outline>
    <contour>
      <point x="225" y="0" type="line"/>
      <point x="138" y="-76"/>
      <point x="63" y="-171"/>
      <point x="63" y="-211" type="qcurve" smooth="yes"/>
      <point x="63" y="-240"/>
      <point x="110" y="-267"/>
      <point x="156" y="-272" type="qcurve"/>
      <point x="88" y="-387" type="line"/>
      <point x="11" y="-379"/>
      <point x="-55" y="-303"/>
      <point x="-55" y="-252" type="qcurve" smooth="yes"/>
      <point x="-55" y="-125"/>
      <point x="106" y="0" type="qcurve"/>
      <point x="41" y="0" type="line"/>
      <point x="350" y="1452" type="line"/>
      <point x="535" y="1452" type="line"/>
    </contour>
  </outline>
</glyph>
<glyph name="iogonek" format="2">
  <advance width="462"/>
  <unicode hex="012F"/>
  <anchor x="0" y="0" name="Anchor-11"/>
  <anchor x="0" y="0" name="Anchor-10"/>
  <anchor x="0" y="0" name="Anchor-9"/>
  <anchor x="190" y="0" name="Anchor-8"/>
  <anchor x="98" y="0" name="Anchor-7"/>
  <outline>
    <contour>
      <point x="328" y="1495" type="line"/>
      <point x="508" y="1495" type="line"/>
      <point x="461" y="1270" type="line"/>
      <point x="281" y="1270" type="line"/>
    </contour>
    <contour>
      <point x="10" y="0" type="line"/>
      <point x="238" y="1069" type="line"/>
      <point x="418" y="1069" type="line"/>
      <point x="190" y="0" type="line"/>
      <point x="103" y="-75"/>
      <point x="29" y="-171"/>
      <point x="29" y="-211" type="qcurve" smooth="yes"/>
      <point x="29" y="-240"/>
      <point x="75" y="-267"/>
      <point x="121" y="-272" type="qcurve"/>
      <point x="53" y="-387" type="line"/>
      <point x="-24" y="-379"/>
      <point x="-90" y="-303"/>
      <point x="-90" y="-252" type="qcurve" smooth="yes"/>
      <point x="-90" y="-126"/>
      <point x="72" y="0" type="qcurve"/>
    </contour>
  </outline>
</glyph>
<glyph name="Idotaccent" format="2">
  <advance width="528"/>
  <unicode hex="0130"/>
  <anchor x="0" y="0" name="Anchor-11"/>
  <anchor x="0" y="0" name="Anchor-10"/>
  <anchor x="532" y="1880" name="Anchor-9"/>
  <anchor x="225" y="0" name="Anchor-8"/>
  <anchor x="133" y="0" name="Anchor-7"/>
  <outline>
    <contour>
      <point x="406" y="1663" type="line"/>
      <point x="453" y="1880" type="line"/>
      <point x="614" y="1880" type="line"/>
      <point x="569" y="1663" type="line"/>
    </contour>
    <contour>
      <point x="350" y="1452" type="line"/>
      <point x="535" y="1452" type="line"/>
      <point x="225" y="0" type="line"/>
      <point x="41" y="0" type="line"/>
    </contour>
  </outline>
</glyph>
<glyph name="dotlessi" format="2">
  <advance width="462"/>
  <unicode hex="0131"/>
  <anchor x="0" y="0" name="Anchor-11"/>
  <anchor x="0" y="0" name="Anchor-10"/>
  <anchor x="324" y="1069" name="Anchor-9"/>
  <anchor x="303" y="20" name="Anchor-8"/>
  <anchor x="98" y="0" name="Anchor-7"/>
  <outline>
    <contour>
      <point x="238" y="1069" type="line"/>
      <point x="418" y="1069" type="line"/>
      <point x="190" y="0" type="line"/>
      <point x="10" y="0" type="line"/>
    </contour>
  </outline>
</glyph>
<glyph name="Jcircumflex" format="2">
  <advance width="966"/>
  <unicode hex="0134"/>
  <anchor x="0" y="0" name="Anchor-11"/>
  <anchor x="0" y="0" name="Anchor-10"/>
  <anchor x="977" y="1876" name="Anchor-9"/>
  <anchor x="0" y="0" name="Anchor-8"/>
  <anchor x="0" y="0" name="Anchor-7"/>
  <outline>
    <contour>
      <point x="688" y="1692" type="line"/>
      <point x="926" y="1876" type="line"/>
      <point x="1057" y="1876" type="line"/>
      <point x="1214" y="1692" type="line"/>
      <point x="1106" y="1642" type="line"/>
      <point x="969" y="1772" type="line"/>
      <point x="776" y="1642" type="line"/>
    </contour>
    <contour>
      <point x="-80" y="68" type="qcurve"/>
      <point x="-2" y="217" type="line"/>
      <point x="32" y="186"/>
      <point x="158" y="143"/>
      <point x="236" y="143" type="qcurve" smooth="yes"/>
      <point x="300" y="143"/>
      <point x="401" y="174"/>
      <point x="479" y="245"/>
      <point x="537" y="333"/>
      <point x="588" y="473"/>
      <point x="625" y="613"/>
      <point x="647" y="715" type="qcurve" smooth="yes"/>
      <point x="805" y="1452" type="line"/>
      <point x="989" y="1452" type="line"/>
      <point x="831" y="715" type="line" smooth="yes"/>
      <point x="809" y="611"/>
      <point x="768" y="457"/>
      <point x="710" y="295"/>
      <point x="643" y="181"/>
      <point x="550" y="77"/>
      <point x="438" y="14"/>
      <point x="290" y="-23"/>
      <point x="201" y="-23" type="qcurve" smooth="yes"/>
      <point x="28" y="-23"/>
    </contour>
  </outline>
</glyph>
<glyph name="jcircumflex" format="2">
  <advance width="462"/>
  <unicode hex="0135"/>
  <anchor x="0" y="0" name="Anchor-11"/>
  <anchor x="0" y="0" name="Anchor-10"/>
  <anchor x="422" y="1495" name="Anchor-9"/>
  <anchor x="0" y="0" name="Anchor-8"/>
  <anchor x="119" y="0" name="Anchor-7"/>
  <outline>
    <contour>
      <point x="133" y="1311" type="line"/>
      <point x="371" y="1495" type="line"/>
      <point x="502" y="1495" type="line"/>
      <point x="659" y="1311" type="line"/>
      <point x="551" y="1262" type="line"/>
      <point x="414" y="1391" type="line"/>
      <point x="221" y="1262" type="line"/>
    </contour>
    <contour>
      <point x="-428" y="-295" type="qcurve"/>
      <point x="-319" y="-174" type="line"/>
      <point x="-280" y="-221"/>
      <point x="-197" y="-221" type="qcurve" smooth="yes"/>
      <point x="-134" y="-221"/>
      <point x="-15" y="-120"/>
      <point x="0" y="-47" type="qcurve" smooth="yes"/>
      <point x="238" y="1069" type="line"/>
      <point x="418" y="1069" type="line"/>
      <point x="182" y="-35" type="line" smooth="yes"/>
      <point x="150" y="-184"/>
      <point x="-80" y="-381"/>
      <point x="-211" y="-381" type="qcurve" smooth="yes"/>
      <point x="-354" y="-381"/>
    </contour>
  </outline>
</glyph>
<glyph name="Kcedilla" format="2">
  <advance width="1280"/>
  <unicode hex="0136"/>
  <anchor x="0" y="0" name="Anchor-11"/>
  <anchor x="0" y="0" name="Anchor-10"/>
  <anchor x="0" y="0" name="Anchor-9"/>
  <anchor x="0" y="0" name="Anchor-8"/>
  <anchor x="569" y="0" name="Anchor-7"/>
  <outline>
    <contour>
      <point x="350" y="1452" type="line"/>
      <point x="535" y="1452" type="line"/>
      <point x="362" y="649" type="line"/>
      <point x="1233" y="1454" type="line"/>
      <point x="1434" y="1454" type="line"/>
      <point x="745" y="813" type="line"/>
      <point x="1155" y="0" type="line"/>
      <point x="952" y="0" type="line"/>
      <point x="608" y="707" type="line"/>
      <point x="319" y="444" type="line"/>
      <point x="225" y="0" type="line"/>
      <point x="41" y="0" type="line"/>
    </contour>
    <contour>
      <point x="410" y="-436" type="line"/>
      <point x="485" y="-270" type="line"/>
      <point x="434" y="-270" type="line"/>
      <point x="471" y="-98" type="line"/>
      <point x="629" y="-98" type="line"/>
      <point x="592" y="-270" type="line"/>
      <point x="498" y="-436" type="line"/>
    </contour>
  </outline>
</glyph>
<glyph name="kcedilla" format="2">
  <advance width="1110"/>
  <unicode hex="0137"/>
  <anchor x="0" y="0" name="Anchor-11"/>
  <anchor x="0" y="0" name="Anchor-10"/>
  <anchor x="0" y="0" name="Anchor-9"/>
  <anchor x="0" y="0" name="Anchor-8"/>
  <anchor x="446" y="0" name="Anchor-7"/>
  <outline>
    <contour>
      <point x="1051" y="872" type="qcurve" smooth="yes"/>
      <point x="1051" y="740"/>
      <point x="874" y="519"/>
      <point x="707" y="449" type="qcurve"/>
      <point x="942" y="0" type="line"/>
      <point x="748" y="0" type="line"/>
      <point x="494" y="522" type="line"/>
      <point x="680" y="563"/>
      <point x="887" y="746"/>
      <point x="887" y="848" type="qcurve" smooth="yes"/>
      <point x="887" y="940"/>
      <point x="791" y="940" type="qcurve" smooth="yes"/>
      <point x="656" y="940"/>
      <point x="363" y="671"/>
      <point x="293" y="481" type="qcurve"/>
      <point x="190" y="0" type="line"/>
      <point x="10" y="0" type="line"/>
      <point x="328" y="1495" type="line"/>
      <point x="508" y="1495" type="line"/>
      <point x="358" y="788" type="line"/>
      <point x="590" y="1087"/>
      <point x="838" y="1087" type="qcurve" smooth="yes"/>
      <point x="945" y="1087"/>
      <point x="1051" y="972"/>
    </contour>
    <contour>
      <point x="311" y="-270" type="line"/>
      <point x="348" y="-98" type="line"/>
      <point x="506" y="-98" type="line"/>
      <point x="469" y="-270" type="line"/>
      <point x="375" y="-436" type="line"/>
      <point x="287" y="-436" type="line"/>
      <point x="362" y="-270" type="line"/>
    </contour>
  </outline>
</glyph>
<glyph name="kgreenlandic" format="2">
  <advance width="1060"/>
  <unicode hex="0138"/>
  <outline>
    <contour>
      <point x="238" y="1069" type="line"/>
      <point x="418" y="1069" type="line"/>
      <point x="299" y="512" type="line"/>
      <point x="928" y="1067" type="line"/>
      <point x="1124" y="1067" type="line"/>
      <point x="629" y="625" type="line"/>
      <point x="920" y="0" type="line"/>
      <point x="725" y="0" type="line"/>
      <point x="492" y="522" type="line"/>
      <point x="260" y="330" type="line"/>
      <point x="190" y="0" type="line"/>
      <point x="10" y="0" type="line"/>
    </contour>
  </outline>
</glyph>
<glyph name="Lacute" format="2">
  <advance width="1144"/>
  <unicode hex="0139"/>
  <anchor x="975" y="1069" name="Anchor-11"/>
  <anchor x="614" y="727" name="Anchor-10"/>
  <anchor x="565" y="1880" name="Anchor-9"/>
  <anchor x="0" y="0" name="Anchor-8"/>
  <anchor x="516" y="0" name="Anchor-7"/>
  <outline>
    <contour>
      <point x="508" y="1632" type="line"/>
      <point x="397" y="1673" type="line"/>
      <point x="553" y="1880" type="line"/>
      <point x="731" y="1880" type="line"/>
    </contour>
    <contour>
      <point x="350" y="1454" type="line"/>
      <point x="535" y="1454" type="line"/>
      <point x="260" y="164" type="line"/>
      <point x="1024" y="164" type="line"/>
      <point x="989" y="0" type="line"/>
      <point x="41" y="0" type="line"/>
    </contour>
  </outline>
</glyph>
<glyph name="lacute" format="2">
  <advance width="573"/>
  <unicode hex="013A"/>
  <anchor x="557" y="1069" name="Anchor-11"/>
  <anchor x="287" y="535" name="Anchor-10"/>
  <anchor x="557" y="1921" name="Anchor-9"/>
  <anchor x="0" y="0" name="Anchor-8"/>
  <anchor x="254" y="0" name="Anchor-7"/>
  <outline>
    <contour>
      <point x="500" y="1673" type="line"/>
      <point x="389" y="1714" type="line"/>
      <point x="545" y="1921" type="line"/>
      <point x="723" y="1921" type="line"/>
    </contour>
    <contour>
      <point x="51" y="145" type="qcurve" smooth="yes"/>
      <point x="51" y="165"/>
      <point x="59" y="211" type="qcurve" smooth="yes"/>
      <point x="332" y="1495" type="line"/>
      <point x="510" y="1495" type="line"/>
      <point x="252" y="276" type="line" smooth="yes"/>
      <point x="248" y="248"/>
      <point x="248" y="238" type="qcurve" smooth="yes"/>
      <point x="248" y="196"/>
      <point x="296" y="150"/>
      <point x="340" y="150" type="qcurve" smooth="yes"/>
      <point x="390" y="150"/>
      <point x="453" y="174" type="qcurve"/>
      <point x="446" y="29" type="line"/>
      <point x="401" y="11"/>
      <point x="275" y="-14"/>
      <point x="229" y="-14" type="qcurve" smooth="yes"/>
      <point x="144" y="-14"/>
      <point x="51" y="70"/>
    </contour>
  </outline>
</glyph>
<glyph name="Lcedilla" format="2">
  <advance width="1144"/>
  <unicode hex="013B"/>
  <anchor x="975" y="1069" name="Anchor-11"/>
  <anchor x="614" y="727" name="Anchor-10"/>
  <anchor x="426" y="1454" name="Anchor-9"/>
  <anchor x="0" y="0" name="Anchor-8"/>
  <anchor x="516" y="0" name="Anchor-7"/>
  <outline>
    <contour>
      <point x="350" y="1454" type="line"/>
      <point x="535" y="1454" type="line"/>
      <point x="260" y="164" type="line"/>
      <point x="1024" y="164" type="line"/>
      <point x="989" y="0" type="line"/>
      <point x="41" y="0" type="line"/>
    </contour>
    <contour>
      <point x="356" y="-436" type="line"/>
      <point x="432" y="-270" type="line"/>
      <point x="381" y="-270" type="line"/>
      <point x="418" y="-98" type="line"/>
      <point x="575" y="-98" type="line"/>
      <point x="539" y="-270" type="line"/>
      <point x="444" y="-436" type="line"/>
    </contour>
  </outline>
</glyph>
<glyph name="Lcaron" format="2">
  <advance width="1144"/>
  <unicode hex="013D"/>
  <anchor x="975" y="1069" name="Anchor-11"/>
  <anchor x="614" y="727" name="Anchor-10"/>
  <anchor x="426" y="1454" name="Anchor-9"/>
  <anchor x="0" y="0" name="Anchor-8"/>
  <anchor x="516" y="0" name="Anchor-7"/>
  <outline>
    <contour>
      <point x="930" y="1288" type="line"/>
      <point x="1085" y="1495" type="line"/>
      <point x="1264" y="1495" type="line"/>
      <point x="1040" y="1247" type="line"/>
    </contour>
    <contour>
      <point x="350" y="1454" type="line"/>
      <point x="535" y="1454" type="line"/>
      <point x="260" y="164" type="line"/>
      <point x="1024" y="164" type="line"/>
      <point x="989" y="0" type="line"/>
      <point x="41" y="0" type="line"/>
    </contour>
  </outline>
</glyph>
<glyph name="Ldot" format="2">
  <advance width="1144"/>
  <unicode hex="013F"/>
  <anchor x="975" y="1069" name="Anchor-11"/>
  <anchor x="614" y="727" name="Anchor-10"/>
  <anchor x="426" y="1454" name="Anchor-9"/>
  <anchor x="0" y="0" name="Anchor-8"/>
  <anchor x="516" y="0" name="Anchor-7"/>
  <outline>
    <contour>
      <point x="350" y="1454" type="line"/>
      <point x="535" y="1454" type="line"/>
      <point x="260" y="164" type="line"/>
      <point x="1024" y="164" type="line"/>
      <point x="989" y="0" type="line"/>
      <point x="41" y="0" type="line"/>
    </contour>
    <contour>
      <point x="670" y="702" type="line"/>
      <point x="723" y="956" type="line"/>
      <point x="874" y="956" type="line"/>
      <point x="821" y="702" type="line"/>
    </contour>
  </outline>
</glyph>
<glyph name="Lslash" format="2">
  <advance width="1157"/>
  <unicode hex="0141"/>
  <anchor x="975" y="1069" name="Anchor-11"/>
  <anchor x="614" y="727" name="Anchor-10"/>
  <anchor x="426" y="1454" name="Anchor-9"/>
  <anchor x="0" y="0" name="Anchor-8"/>
  <anchor x="516" y="0" name="Anchor-7"/>
  <outline>
    <contour>
      <point x="260" y="164" type="line"/>
      <point x="1024" y="164" type="line"/>
      <point x="989" y="0" type="line"/>
      <point x="41" y="0" type="line"/>
      <point x="158" y="553" type="line"/>
      <point x="49" y="477" type="line"/>
      <point x="18" y="580" type="line"/>
      <point x="188" y="696" type="line"/>
      <point x="350" y="1454" type="line"/>
      <point x="535" y="1454" type="line"/>
      <point x="406" y="844" type="line"/>
      <point x="737" y="1071" type="line"/>
      <point x="766" y="971" type="line"/>
      <point x="375" y="700" type="line"/>
    </contour>
  </outline>
</glyph>
<glyph name="lslash" format="2">
  <advance width="616"/>
  <unicode hex="0142"/>
  <outline>
    <contour>
      <point x="289" y="238" type="qcurve" smooth="yes"/>
      <point x="289" y="196"/>
      <point x="335" y="150"/>
      <point x="379" y="150" type="qcurve" smooth="yes"/>
      <point x="431" y="150"/>
      <point x="494" y="174" type="qcurve"/>
      <point x="487" y="29" type="line"/>
      <point x="440" y="10"/>
      <point x="314" y="-14"/>
      <point x="268" y="-14" type="qcurve" smooth="yes"/>
      <point x="183" y="-14"/>
      <point x="90" y="70"/>
      <point x="90" y="145" type="qcurve" smooth="yes"/>
      <point x="90" y="165"/>
      <point x="98" y="211" type="qcurve" smooth="yes"/>
      <point x="195" y="666" type="line"/>
      <point x="61" y="580" type="line"/>
      <point x="31" y="680" type="line"/>
      <point x="225" y="805" type="line"/>
      <point x="371" y="1495" type="line"/>
      <point x="551" y="1495" type="line"/>
      <point x="434" y="940" type="line"/>
      <point x="631" y="1069" type="line"/>
      <point x="664" y="969" type="line"/>
      <point x="403" y="801" type="line"/>
      <point x="301" y="317" type="line" smooth="yes"/>
      <point x="289" y="264"/>
    </contour>
  </outline>
</glyph>
<glyph name="Nacute" format="2">
  <advance width="1513"/>
  <unicode hex="0143"/>
  <anchor x="0" y="0" name="Anchor-11"/>
  <anchor x="0" y="0" name="Anchor-10"/>
  <anchor x="1106" y="1876" name="Anchor-9"/>
  <anchor x="0" y="0" name="Anchor-8"/>
  <anchor x="647" y="0" name="Anchor-7"/>
  <outline>
    <contour>
      <point x="1049" y="1628" type="line"/>
      <point x="938" y="1669" type="line"/>
      <point x="1094" y="1876" type="line"/>
      <point x="1272" y="1876" type="line"/>
    </contour>
    <contour>
      <point x="350" y="1454" type="line"/>
      <point x="494" y="1454" type="line"/>
      <point x="1096" y="322" type="line"/>
      <point x="1335" y="1452" type="line"/>
      <point x="1520" y="1452" type="line"/>
      <point x="1210" y="0" type="line"/>
      <point x="1057" y="0" type="line"/>
      <point x="461" y="1110" type="line"/>
      <point x="225" y="0" type="line"/>
      <point x="41" y="0" type="line"/>
    </contour>
  </outline>
</glyph>
<glyph name="Ncedilla" format="2">
  <advance width="1513"/>
  <unicode hex="0145"/>
  <anchor x="0" y="0" name="Anchor-11"/>
  <anchor x="0" y="0" name="Anchor-10"/>
  <anchor x="967" y="1450" name="Anchor-9"/>
  <anchor x="0" y="0" name="Anchor-8"/>
  <anchor x="647" y="0" name="Anchor-7"/>
  <outline>
    <contour>
      <point x="350" y="1454" type="line"/>
      <point x="494" y="1454" type="line"/>
      <point x="1096" y="322" type="line"/>
      <point x="1335" y="1452" type="line"/>
      <point x="1520" y="1452" type="line"/>
      <point x="1210" y="0" type="line"/>
      <point x="1057" y="0" type="line"/>
      <point x="461" y="1110" type="line"/>
      <point x="225" y="0" type="line"/>
      <point x="41" y="0" type="line"/>
    </contour>
    <contour>
      <point x="487" y="-436" type="line"/>
      <point x="563" y="-270" type="line"/>
      <point x="512" y="-270" type="line"/>
      <point x="549" y="-98" type="line"/>
      <point x="707" y="-98" type="line"/>
      <point x="670" y="-270" type="line"/>
      <point x="575" y="-436" type="line"/>
    </contour>
  </outline>
</glyph>
<glyph name="Ncaron" format="2">
  <advance width="1513"/>
  <unicode hex="0147"/>
  <anchor x="0" y="0" name="Anchor-11"/>
  <anchor x="0" y="0" name="Anchor-10"/>
  <anchor x="1059" y="1876" name="Anchor-9"/>
  <anchor x="0" y="0" name="Anchor-8"/>
  <anchor x="647" y="0" name="Anchor-7"/>
  <outline>
    <contour>
      <point x="770" y="1827" type="line"/>
      <point x="879" y="1876" type="line"/>
      <point x="1016" y="1747" type="line"/>
      <point x="1208" y="1876" type="line"/>
      <point x="1296" y="1827" type="line"/>
      <point x="1059" y="1642" type="line"/>
      <point x="928" y="1642" type="line"/>
    </contour>
    <contour>
      <point x="350" y="1454" type="line"/>
      <point x="494" y="1454" type="line"/>
      <point x="1096" y="322" type="line"/>
      <point x="1335" y="1452" type="line"/>
      <point x="1520" y="1452" type="line"/>
      <point x="1210" y="0" type="line"/>
      <point x="1057" y="0" type="line"/>
      <point x="461" y="1110" type="line"/>
      <point x="225" y="0" type="line"/>
      <point x="41" y="0" type="line"/>
    </contour>
  </outline>
</glyph>
<glyph name="Eng" format="2">
  <advance width="1499"/>
  <unicode hex="014A"/>
  <outline>
    <contour>
      <point x="578" y="-295" type="qcurve"/>
      <point x="686" y="-174" type="line"/>
      <point x="722" y="-221"/>
      <point x="805" y="-221" type="qcurve" smooth="yes"/>
      <point x="870" y="-221"/>
      <point x="989" y="-120"/>
      <point x="1004" y="-47" type="qcurve" smooth="yes"/>
      <point x="1020" y="31" type="line"/>
      <point x="461" y="1106" type="line"/>
      <point x="225" y="0" type="line"/>
      <point x="41" y="0" type="line"/>
      <point x="350" y="1454" type="line"/>
      <point x="492" y="1454" type="line"/>
      <point x="1079" y="330" type="line"/>
      <point x="1319" y="1452" type="line"/>
      <point x="1503" y="1452" type="line"/>
      <point x="1186" y="-41" type="line" smooth="yes"/>
      <point x="1165" y="-138"/>
      <point x="1040" y="-296"/>
      <point x="876" y="-381"/>
      <point x="793" y="-381" type="qcurve" smooth="yes"/>
      <point x="649" y="-381"/>
    </contour>
  </outline>
</glyph>
<glyph name="eng" format="2">
  <advance width="1161"/>
  <unicode hex="014B"/>
  <outline>
    <contour>
      <point x="281" y="-295" type="qcurve"/>
      <point x="389" y="-174" type="line"/>
      <point x="428" y="-221"/>
      <point x="512" y="-221" type="qcurve" smooth="yes"/>
      <point x="574" y="-221"/>
      <point x="692" y="-120"/>
      <point x="709" y="-47" type="qcurve" smooth="yes"/>
      <point x="846" y="598" type="line" smooth="yes"/>
      <point x="864" y="686"/>
      <point x="864" y="752" type="qcurve" smooth="yes"/>
      <point x="864" y="926"/>
      <point x="719" y="926" type="qcurve" smooth="yes"/>
      <point x="615" y="926"/>
      <point x="387" y="765"/>
      <point x="328" y="645" type="qcurve"/>
      <point x="190" y="0" type="line"/>
      <point x="10" y="0" type="line"/>
      <point x="238" y="1069" type="line"/>
      <point x="401" y="1069" type="line"/>
      <point x="352" y="840" type="line"/>
      <point x="435" y="953"/>
      <point x="692" y="1087"/>
      <point x="825" y="1087" type="qcurve" smooth="yes"/>
      <point x="1059" y="1087"/>
      <point x="1059" y="836" type="qcurve" smooth="yes"/>
      <point x="1059" y="768"/>
      <point x="1034" y="639" type="qcurve" smooth="yes"/>
      <point x="891" y="-35" type="line" smooth="yes"/>
      <point x="870" y="-134"/>
      <point x="746" y="-294"/>
      <point x="582" y="-381"/>
      <point x="498" y="-381" type="qcurve" smooth="yes"/>
      <point x="355" y="-381"/>
    </contour>
  </outline>
</glyph>
